<?xml version="1.0" encoding="UTF-8"?>
<svg xmlns="http://www.w3.org/2000/svg" xmlns:xlink="http://www.w3.org/1999/xlink" width="1511.5000429153442" height="1963.1300445895195"><defs><style type="text/css"><![CDATA[@import url("https://atlas.mindmup.com/_resources/22/fonts.css")]]></style></defs><rect width="100%" height="100%" fill="#FFFFFF"/><g transform="translate(798,1045)" style="fill:none;"><g transform="translate(-279,-148)"><path d="M122,38Q122,872.6 273,815" stroke="#707070" stroke-width="1" stroke-linecap="round"/></g><g transform="translate(-6,484.13004458951946)"><path d="M50,183Q50,-33.599999999999994 120,24" stroke="#707070" stroke-width="1" stroke-linecap="round"/></g><g transform="translate(114,484.13004458951946)"><path d="M54,24Q54,111.5 127,74" stroke="#707070" stroke-width="1" stroke-linecap="round"/></g><g transform="translate(241,534.3420445895194)"><path d="M125,24L155,24" stroke="#707070" stroke-width="1" stroke-linecap="round"/></g><g transform="translate(114,484.13004458951946)"><path d="M54,24Q54,199.6 127,142" stroke="#707070" stroke-width="1" stroke-linecap="round"/></g><g transform="translate(241,602.3420445895194)"><path d="M145,24L175,24" stroke="#707070" stroke-width="1" stroke-linecap="round"/></g><g transform="translate(114,375.34204458951945)"><path d="M54,133Q54,-21.599999999999994 127,36" stroke="#707070" stroke-width="1" stroke-linecap="round"/></g><g transform="translate(241,375.34204458951945)"><path d="M171,36Q171,51 201,51" stroke="#707070" stroke-width="1" stroke-linecap="round"/></g><g transform="translate(241,375.34204458951945)"><path d="M91,36Q91,165.2 201,122" stroke="#707070" stroke-width="1" stroke-linecap="round"/></g><g transform="translate(241,268.72591958951944)"><path d="M91,142Q91,-25.19999999999999 201,18" stroke="#707070" stroke-width="1" stroke-linecap="round"/></g><g transform="translate(241,324.72591958951944)"><path d="M91,86Q91,-22.5 201,24" stroke="#707070" stroke-width="1" stroke-linecap="round"/></g><g transform="translate(-6,642.5899195895195)"><path d="M50,24Q50,130.75 120,85" stroke="#707070" stroke-width="1" stroke-linecap="round"/></g><g transform="translate(114,670.1300445895195)"><path d="M156,58Q156,24 186,24" stroke="#707070" stroke-width="1" stroke-linecap="round"/></g><g transform="translate(300,670.1300445895195)"><path d="M136,24L166,24" stroke="#707070" stroke-width="1" stroke-linecap="round"/></g><g transform="translate(114,704.1300445895195)"><path d="M156,24Q156,58 186,58" stroke="#707070" stroke-width="1" stroke-linecap="round"/></g><g transform="translate(300,738.1300445895195)"><path d="M135,24L165,24" stroke="#707070" stroke-width="1" stroke-linecap="round"/></g><g transform="translate(-6,642.5899195895195)"><path d="M50,24Q50,278.6 120,221" stroke="#707070" stroke-width="1" stroke-linecap="round"/></g><g transform="translate(114,806.1160906677248)"><path d="M65,58Q65,-17.25 150,15" stroke="#707070" stroke-width="1" stroke-linecap="round"/></g><g transform="translate(114,840.1300445895195)"><path d="M120,24Q120,31 150,31" stroke="#707070" stroke-width="1" stroke-linecap="round"/></g><g transform="translate(-408,-216.30958041048052)"><path d="M251,106Q251,-33.599999999999994 109,24" stroke="#707070" stroke-width="1" stroke-linecap="round"/></g><g transform="translate(-545,-216.30958041048052)"><path d="M147,24L117,24" stroke="#707070" stroke-width="1" stroke-linecap="round"/></g><g transform="translate(-395,-148)"><path d="M238,38Q238,453.6 96,396" stroke="#707070" stroke-width="1" stroke-linecap="round"/></g><g transform="translate(-573,148.84666958951948)"><path d="M226,99Q226,-32.25 158,24" stroke="#707070" stroke-width="1" stroke-linecap="round"/></g><g transform="translate(-542,216.84666958951948)"><path d="M157,31Q157,15 127,15" stroke="#707070" stroke-width="1" stroke-linecap="round"/></g><g transform="translate(-675,216.84666958951948)"><path d="M143,15L113,15" stroke="#707070" stroke-width="1" stroke-linecap="round"/></g><g transform="translate(-468,223.84666958951948)"><path d="M121,24Q121,144 53,108" stroke="#707070" stroke-width="1" stroke-linecap="round"/></g><g transform="translate(-501,223.84666958951948)"><path d="M116,24Q116,58 86,58" stroke="#707070" stroke-width="1" stroke-linecap="round"/></g><g transform="translate(-279,-410.4636710782054)"><path d="M122,300Q122,-33.60000000000002 265,24" stroke="#707070" stroke-width="1" stroke-linecap="round"/></g><g transform="translate(-14.499957084655762,-746.4636710782054)"><path d="M42,360Q42,-33.60000000000002 105,24" stroke="#707070" stroke-width="1" stroke-linecap="round"/></g><g transform="translate(90.50004291534424,-904.7516710782054)"><path d="M42,183Q42,-21 105,15" stroke="#707070" stroke-width="1" stroke-linecap="round"/></g><g transform="translate(195.50004291534424,-913.7516710782054)"><path d="M129,24L159,24" stroke="#707070" stroke-width="1" stroke-linecap="round"/></g><g transform="translate(90.50004291534424,-811.7516710782054)"><path d="M42,90Q42,-21 105,15" stroke="#707070" stroke-width="1" stroke-linecap="round"/></g><g transform="translate(195.50004291534424,-845.7516710782054)"><path d="M54,49Q54,-10.5 129,15" stroke="#707070" stroke-width="1" stroke-linecap="round"/></g><g transform="translate(195.50004291534424,-811.7516710782054)"><path d="M54,15Q54,83.25 129,54" stroke="#707070" stroke-width="1" stroke-linecap="round"/></g><g transform="translate(90.50004291534424,-746.4636710782054)"><path d="M75,24Q75,56 105,56" stroke="#707070" stroke-width="1" stroke-linecap="round"/></g><g transform="translate(-14.499957084655762,-645.4636710782054)"><path d="M42,259Q42,-21 105,15" stroke="#707070" stroke-width="1" stroke-linecap="round"/></g><g transform="translate(-14.499957084655762,-545.4636710782054)"><path d="M42,159Q42,-33.599999999999994 105,24" stroke="#707070" stroke-width="1" stroke-linecap="round"/></g><g transform="translate(-14.499957084655762,-410.4636710782054)"><path d="M42,24Q42,134 105,98" stroke="#707070" stroke-width="1" stroke-linecap="round"/></g><g transform="translate(-14.499957084655762,-410.4636710782054)"><path d="M42,24Q42,223.6 105,166" stroke="#707070" stroke-width="1" stroke-linecap="round"/></g><g transform="translate(-14.499957084655762,-410.4636710782054)"><path d="M42,24Q42,417.6 105,360" stroke="#707070" stroke-width="1" stroke-linecap="round"/></g><g transform="translate(90.50004291534424,-191.5329210782054)"><path d="M83,142Q83,-33.599999999999994 186,24" stroke="#707070" stroke-width="1" stroke-linecap="round"/></g><g transform="translate(276.50004291534424,-191.5329210782054)"><path d="M174,24L204,24" stroke="#707070" stroke-width="1" stroke-linecap="round"/></g><g transform="translate(276.50004291534424,-191.5329210782054)"><path d="M92,24Q92,143 204,92" stroke="#707070" stroke-width="1" stroke-linecap="round"/></g><g transform="translate(276.50004291534424,-191.5329210782054)"><path d="M92,24Q92,217.6 204,160" stroke="#707070" stroke-width="1" stroke-linecap="round"/></g><g transform="translate(276.50004291534424,-327.5329210782054)"><path d="M92,160Q92,-33.599999999999994 204,24" stroke="#707070" stroke-width="1" stroke-linecap="round"/></g><g transform="translate(276.50004291534424,-259.5329210782054)"><path d="M92,92Q92,-27 204,24" stroke="#707070" stroke-width="1" stroke-linecap="round"/></g><g transform="translate(90.50004291534424,-74.46367107820538)"><path d="M83,24Q83,147.2 186,104" stroke="#707070" stroke-width="1" stroke-linecap="round"/></g><g transform="translate(90.50004291534424,-74.46367107820538)"><path d="M83,24Q83,223.6 186,166" stroke="#707070" stroke-width="1" stroke-linecap="round"/></g><g transform="translate(90.50004291534424,-74.46367107820538)"><path d="M83,24Q83,291.6 186,234" stroke="#707070" stroke-width="1" stroke-linecap="round"/></g><g transform="translate(-14.499957084655762,-595.4636710782054)"><path d="M42,209Q42,-21 105,15" stroke="#707070" stroke-width="1" stroke-linecap="round"/></g><g transform="translate(-14.499957084655762,-410.4636710782054)"><path d="M75,24Q75,48 105,48" stroke="#707070" stroke-width="1" stroke-linecap="round"/></g><g transform="translate(-14.499957084655762,-427.4636710782054)"><path d="M75,41Q75,15 105,15" stroke="#707070" stroke-width="1" stroke-linecap="round"/></g><g transform="translate(90.50004291534424,-427.4636710782054)"><path d="M85,15L115,15" stroke="#707070" stroke-width="1" stroke-linecap="round"/></g><g transform="translate(-14.499957084655762,-477.4636710782054)"><path d="M42,91Q42,-21 105,15" stroke="#707070" stroke-width="1" stroke-linecap="round"/></g><g transform="translate(-421,-148)"><path d="M264,38Q264,670.6 122,613" stroke="#707070" stroke-width="1" stroke-linecap="round"/></g><g transform="translate(-590,431.8466695895195)"><path d="M179,33L149,33" stroke="#707070" stroke-width="1" stroke-linecap="round"/></g><g transform="translate(-768,266.8466695895195)"><path d="M253,198Q253,-46.19999999999999 158,33" stroke="#707070" stroke-width="1" stroke-linecap="round"/></g><g transform="translate(-768,352.8466695895195)"><path d="M253,112Q253,-26.25 158,33" stroke="#707070" stroke-width="1" stroke-linecap="round"/></g><g transform="translate(-768,431.8466695895195)"><path d="M188,33Q188,58 158,58" stroke="#707070" stroke-width="1" stroke-linecap="round"/></g><g transform="translate(-768,431.8466695895195)"><path d="M253,33Q253,259.2 158,180" stroke="#707070" stroke-width="1" stroke-linecap="round"/></g><g transform="translate(-464,-148)"><path d="M307,38Q307,208.6 165,151" stroke="#707070" stroke-width="1" stroke-linecap="round"/></g><g transform="translate(-592,-111.140625)"><path d="M211,114Q211,-21 107,15" stroke="#707070" stroke-width="1" stroke-linecap="round"/></g><g transform="translate(-622,-21.15333041048052)"><path d="M241,24Q241,171 138,135" stroke="#707070" stroke-width="1" stroke-linecap="round"/></g><g transform="translate(-642,-50.15625)"><path d="M188,53Q188,24 158,24" stroke="#707070" stroke-width="1" stroke-linecap="round"/></g><g transform="translate(-643,-21.15333041048052)"><path d="M262,24Q262,115 158,76" stroke="#707070" stroke-width="1" stroke-linecap="round"/></g><g transform="translate(-419.81249618530273,-637.7187900543214)"><path d="M263,528Q263,-33.60000000000002 118,24" stroke="#707070" stroke-width="1" stroke-linecap="round"/></g><g transform="translate(-597.8124961853027,-721.7187900543214)"><path d="M237,108Q237,-33.599999999999994 158,24" stroke="#707070" stroke-width="1" stroke-linecap="round"/></g><g transform="translate(-597.8124961853027,-653.7187900543214)"><path d="M188,40Q188,24 158,24" stroke="#707070" stroke-width="1" stroke-linecap="round"/></g><g transform="translate(-570.8124961853027,-637.7187900543214)"><path d="M210,24Q210,99.25 131,67" stroke="#707070" stroke-width="1" stroke-linecap="round"/></g><g transform="translate(-534.8124961853027,-637.7187900543214)"><path d="M174,24Q174,153 95,117" stroke="#707070" stroke-width="1" stroke-linecap="round"/></g><g transform="translate(-592,-216.30958041048052)"><path d="M107,120L184,24" stroke-dasharray="4, 4" stroke="#c60c30" stroke-width="1"/><path d="M172,31L184,24L180,37Z" fill="#c60c30" stroke="#c60c30" stroke-width="1"/></g><g transform="translate(-408,-216.30958041048052)"><path d="M685,49L109,24" stroke-dasharray="4, 4" stroke="#c60c30" stroke-width="1"/><path d="M122,29L109,24L122,20Z" fill="#c60c30" stroke="#c60c30" stroke-width="1"/></g><g transform="translate(-421,-191.5329210782054)"><path d="M698,24L122,656" stroke-dasharray="4, 4" stroke="#c60c30" stroke-width="1"/><path d="M134,650L122,656L127,643Z" fill="#c60c30" stroke="#c60c30" stroke-width="1"/></g><g transform="translate(-545,-210.30958041048052)"><path d="M941,769L117,18" stroke-dasharray="4, 4" stroke="#c60c30" stroke-width="1"/><path d="M124,30L117,18L130,23Z" fill="#c60c30" stroke="#c60c30" stroke-width="1"/></g><g transform="translate(480.50004291534424,-327.5329210782054)"><path d="M72,48L94,68" stroke-dasharray="4, 4" stroke="#c60c30" stroke-width="1"/><path d="M87,56L94,68L81,63Z" fill="#c60c30" stroke="#c60c30" stroke-width="1"/></g><g transform="translate(-419.81249618530273,-637.7187900543214)"><path d="M696,470L118,24" stroke-dasharray="4, 4" stroke="#c60c30" stroke-width="1"/><path d="M125,36L118,24L131,28Z" fill="#c60c30" stroke="#c60c30" stroke-width="1"/></g><g transform="translate(-279,-148)"><rect x="0" y="0" width="244" height="76" border="1" rx="10" ry="10" style="fill:#000000;stroke:#707070;stroke-width:1px;"/><image xlink:href="image1.png" x="6" y="6" width="64" height="64"/><text font-family="NotoSans, 'Helvetica Neue', Roboto, Helvetica, Arial, sans-serif" font-size="15" font-weight="bold" lengthAdjust="spacingAndGlyphs" style="fill:#FFFFFF;"><tspan y="42" x="157" text-anchor="middle" textLength="163">IMDS – Juarez, Mexico</tspan></text></g><g transform="translate(-419.81249618530273,-637.7187900543214)"><rect x="0" y="0" width="118" height="48" border="1" rx="10" ry="10" style="fill:#a71930;stroke:#707070;stroke-width:1px;"/><image xlink:href="image32.png" x="76" y="6" width="36" height="36"/><text font-family="NotoSans, 'Helvetica Neue', Roboto, Helvetica, Arial, sans-serif" font-size="12" font-weight="bold" lengthAdjust="spacingAndGlyphs" style="fill:#FFFFFF;"><tspan y="27" x="39" text-anchor="middle" textLength="65">Customers</tspan></text></g><g transform="translate(-597.8124961853027,-721.7187900543214)"><rect x="0" y="0" width="158" height="48" border="1" rx="10" ry="10" style="fill:#E0E0E0;stroke:#707070;stroke-width:1px;"/><text font-family="NotoSans, 'Helvetica Neue', Roboto, Helvetica, Arial, sans-serif" font-size="12" font-weight="bold" lengthAdjust="spacingAndGlyphs" style="fill:#4F4F4F;"><tspan y="18" x="79" text-anchor="middle" textLength="105">Daimler Truck AG</tspan><tspan y="36" x="79" text-anchor="middle" textLength="50">[205311]</tspan></text></g><g transform="translate(-597.8124961853027,-653.7187900543214)"><rect x="0" y="0" width="158" height="48" border="1" rx="10" ry="10" style="fill:#E0E0E0;stroke:#707070;stroke-width:1px;"/><text font-family="NotoSans, 'Helvetica Neue', Roboto, Helvetica, Arial, sans-serif" font-size="12" font-weight="bold" lengthAdjust="spacingAndGlyphs" style="fill:#4F4F4F;"><tspan y="18" x="79" text-anchor="middle" textLength="130">International Motors,</tspan><tspan y="36" x="79" text-anchor="middle" textLength="74">LLC [186555]</tspan></text></g><g transform="translate(-570.8124961853027,-585.7187900543214)"><rect x="0" y="0" width="131" height="30" border="1" rx="10" ry="10" style="fill:#E0E0E0;stroke:#707070;stroke-width:1px;"/><text font-family="NotoSans, 'Helvetica Neue', Roboto, Helvetica, Arial, sans-serif" font-size="12" font-weight="bold" lengthAdjust="spacingAndGlyphs" style="fill:#4F4F4F;"><tspan y="18" x="66" text-anchor="middle" textLength="119">Volvo Group [46569]</tspan></text></g><g transform="translate(-534.8124961853027,-535.7187900543214)"><rect x="0" y="0" width="95" height="30" border="1" rx="10" ry="10" style="fill:#E0E0E0;stroke:#707070;stroke-width:1px;"/><text font-family="NotoSans, 'Helvetica Neue', Roboto, Helvetica, Arial, sans-serif" font-size="12" font-weight="bold" lengthAdjust="spacingAndGlyphs" style="fill:#4F4F4F;"><tspan y="18" x="48" text-anchor="middle" textLength="83">BMW AG [103]</tspan></text></g><g transform="translate(-408,-216.30958041048052)"><rect x="0" y="0" width="109" height="48" border="1" rx="10" ry="10" style="fill:#a71930;stroke:#707070;stroke-width:1px;"/><image xlink:href="image40.png" x="67" y="6" width="36" height="36"/><text font-family="NotoSans, 'Helvetica Neue', Roboto, Helvetica, Arial, sans-serif" font-size="12" font-weight="bold" lengthAdjust="spacingAndGlyphs" style="fill:#FFFFFF;"><tspan y="27" x="34" text-anchor="middle" textLength="56">Suppliers</tspan></text></g><g transform="translate(-545,-210.30958041048052)"><rect x="0" y="0" width="117" height="36" border="1" rx="10" ry="10" style="fill:#E0E0E0;stroke:#707070;stroke-width:1px;"/><image xlink:href="image41.png" x="87" y="6" width="24" height="24"/><text font-family="NotoSans, 'Helvetica Neue', Roboto, Helvetica, Arial, sans-serif" font-size="12" font-weight="bold" lengthAdjust="spacingAndGlyphs" style="fill:#4F4F4F;"><tspan y="21" x="44" text-anchor="middle" textLength="76">Components</tspan></text></g><g transform="translate(-464,-21.15333041048052)"><rect x="0" y="0" width="165" height="48" border="1" rx="10" ry="10" style="fill:#a71930;stroke:#707070;stroke-width:1px;"/><image xlink:href="image42.png" x="123" y="6" width="36" height="36"/><text font-family="NotoSans, 'Helvetica Neue', Roboto, Helvetica, Arial, sans-serif" font-size="12" font-weight="bold" lengthAdjust="spacingAndGlyphs" style="fill:#FFFFFF;"><tspan y="27" x="62" text-anchor="middle" textLength="112">Support from/ to...</tspan></text></g><g transform="translate(-592,-111.140625)"><rect x="0" y="0" width="107" height="30" border="1" rx="10" ry="10" style="fill:#E0E0E0;stroke:#707070;stroke-width:1px;"/><text font-family="NotoSans, 'Helvetica Neue', Roboto, Helvetica, Arial, sans-serif" font-size="12" font-weight="bold" lengthAdjust="spacingAndGlyphs" style="fill:#4F4F4F;"><tspan y="18" x="54" text-anchor="middle" textLength="95">from: SQM/ SQE</tspan></text></g><g transform="translate(-642,-50.15625)"><rect x="0" y="0" width="158" height="48" border="1" rx="10" ry="10" style="fill:#E0E0E0;stroke:#707070;stroke-width:1px;"/><text font-family="NotoSans, 'Helvetica Neue', Roboto, Helvetica, Arial, sans-serif" font-size="12" font-weight="bold" lengthAdjust="spacingAndGlyphs" style="fill:#4F4F4F;"><tspan y="18" x="79" text-anchor="middle" textLength="89">from: Sourcing</tspan><tspan y="36" x="79" text-anchor="middle" textLength="87">(Procurement)</tspan></text></g><g transform="translate(-643,30.84375)"><rect x="0" y="0" width="158" height="48" border="1" rx="10" ry="10" style="fill:#E0E0E0;stroke:#707070;stroke-width:1px;"/><text font-family="NotoSans, 'Helvetica Neue', Roboto, Helvetica, Arial, sans-serif" font-size="12" font-weight="bold" lengthAdjust="spacingAndGlyphs" style="fill:#4F4F4F;"><tspan y="18" x="79" text-anchor="middle" textLength="83">from: Product</tspan><tspan y="36" x="79" text-anchor="middle" textLength="73">Engineering</tspan></text></g><g transform="translate(-622,98.84375)"><rect x="0" y="0" width="138" height="30" border="1" rx="10" ry="10" style="fill:#E0E0E0;stroke:#707070;stroke-width:1px;"/><text font-family="NotoSans, 'Helvetica Neue', Roboto, Helvetica, Arial, sans-serif" font-size="12" font-weight="bold" lengthAdjust="spacingAndGlyphs" style="fill:#4F4F4F;"><tspan y="18" x="69" text-anchor="middle" textLength="126">to: Advanced Quality</tspan></text></g><g transform="translate(-395,223.84666958951948)"><rect x="0" y="0" width="96" height="48" border="1" rx="10" ry="10" style="fill:#a71930;stroke:#707070;stroke-width:1px;"/><image xlink:href="image43.png" x="54" y="6" width="36" height="36"/><text font-family="NotoSans, 'Helvetica Neue', Roboto, Helvetica, Arial, sans-serif" font-size="12" font-weight="bold" lengthAdjust="spacingAndGlyphs" style="fill:#FFFFFF;"><tspan y="27" x="28" text-anchor="middle" textLength="43">Portals</tspan></text></g><g transform="translate(-573,148.84666958951948)"><rect x="0" y="0" width="158" height="48" border="1" rx="10" ry="10" style="fill:#E0E0E0;stroke:#707070;stroke-width:1px;"/><text font-family="NotoSans, 'Helvetica Neue', Roboto, Helvetica, Arial, sans-serif" font-size="12" font-weight="bold" lengthAdjust="spacingAndGlyphs" style="fill:#4F4F4F;"><tspan y="18" x="79" text-anchor="middle" textLength="76">STELLANTIS/</tspan><tspan y="36" x="79" text-anchor="middle" textLength="106">eSupplierConnect</tspan></text></g><g transform="translate(-542,216.84666958951948)"><rect x="0" y="0" width="127" height="30" border="1" rx="10" ry="10" style="fill:#E0E0E0;stroke:#707070;stroke-width:1px;"/><text font-family="NotoSans, 'Helvetica Neue', Roboto, Helvetica, Arial, sans-serif" font-size="12" font-weight="bold" lengthAdjust="spacingAndGlyphs" style="fill:#4F4F4F;"><tspan y="18" x="64" text-anchor="middle" textLength="115">OpenText/ Covisint</tspan></text></g><g transform="translate(-675,216.84666958951948)"><rect x="0" y="0" width="113" height="30" border="1" rx="10" ry="10" style="fill:#E0E0E0;stroke:#707070;stroke-width:1px;"/><text font-family="NotoSans, 'Helvetica Neue', Roboto, Helvetica, Arial, sans-serif" font-size="12" font-weight="bold" lengthAdjust="spacingAndGlyphs" style="fill:#4F4F4F;"><tspan y="18" x="57" text-anchor="middle" textLength="101">GM SupplyPower</tspan></text></g><g transform="translate(-501,266.8466695895195)"><rect x="0" y="0" width="86" height="30" border="1" rx="10" ry="10" style="fill:#E0E0E0;stroke:#707070;stroke-width:1px;"/><text font-family="NotoSans, 'Helvetica Neue', Roboto, Helvetica, Arial, sans-serif" font-size="12" font-weight="bold" lengthAdjust="spacingAndGlyphs" style="fill:#4F4F4F;"><tspan y="18" x="43" text-anchor="middle" textLength="74">DTNA Portal</tspan></text></g><g transform="translate(-468,316.8466695895195)"><rect x="0" y="0" width="53" height="30" border="1" rx="10" ry="10" style="fill:#E0E0E0;stroke:#707070;stroke-width:1px;"/><text font-family="NotoSans, 'Helvetica Neue', Roboto, Helvetica, Arial, sans-serif" font-size="12" font-weight="bold" lengthAdjust="spacingAndGlyphs" style="fill:#4F4F4F;"><tspan y="18" x="27" text-anchor="middle" textLength="41">Assent</tspan></text></g><g transform="translate(-421,440.8466695895195)"><rect x="0" y="0" width="122" height="48" border="1" rx="10" ry="10" style="fill:#a71930;stroke:#707070;stroke-width:1px;"/><image xlink:href="image44.png" x="80" y="6" width="36" height="36"/><text font-family="NotoSans, 'Helvetica Neue', Roboto, Helvetica, Arial, sans-serif" font-size="12" font-weight="bold" lengthAdjust="spacingAndGlyphs" style="fill:#FFFFFF;"><tspan y="27" x="41" text-anchor="middle" textLength="69">Documents</tspan></text></g><g transform="translate(-590,431.8466695895195)"><rect x="0" y="0" width="149" height="66" border="1" rx="10" ry="10" style="fill:#E0E0E0;stroke:#707070;stroke-width:1px;"/><image xlink:href="image45.png" x="111" y="17" width="32" height="32"/><text font-family="NotoSans, 'Helvetica Neue', Roboto, Helvetica, Arial, sans-serif" font-size="12" font-weight="bold" lengthAdjust="spacingAndGlyphs" style="fill:#4F4F4F;"><tspan y="18" x="56" text-anchor="middle" textLength="81">International</tspan><tspan y="36" x="56" text-anchor="middle" textLength="100">Organization for</tspan><tspan y="54" x="56" text-anchor="middle" textLength="96">Standardization</tspan></text></g><g transform="translate(-768,266.8466695895195)"><rect x="0" y="0" width="158" height="66" border="1" rx="10" ry="10" style="fill:#E0E0E0;stroke:#707070;stroke-width:1px;"/><text font-family="NotoSans, 'Helvetica Neue', Roboto, Helvetica, Arial, sans-serif" font-size="12" font-weight="bold" lengthAdjust="spacingAndGlyphs" style="fill:#4F4F4F;"><tspan y="18" x="79" text-anchor="middle" textLength="52">ISO 1043</tspan><tspan y="36" x="79" text-anchor="middle" textLength="140">Plastics — Symbols and</tspan><tspan y="54" x="79" text-anchor="middle" textLength="111">abbreviated terms</tspan></text></g><g transform="translate(-768,352.8466695895195)"><rect x="0" y="0" width="158" height="66" border="1" rx="10" ry="10" style="fill:#E0E0E0;stroke:#707070;stroke-width:1px;"/><text font-family="NotoSans, 'Helvetica Neue', Roboto, Helvetica, Arial, sans-serif" font-size="12" font-weight="bold" lengthAdjust="spacingAndGlyphs" style="fill:#4F4F4F;"><tspan y="18" x="79" text-anchor="middle" textLength="78">DIN ISO 1629</tspan><tspan y="36" x="79" text-anchor="middle" textLength="121">Rubber and latices –</tspan><tspan y="54" x="79" text-anchor="middle" textLength="87">Nomenclature</tspan></text></g><g transform="translate(-768,438.8466695895195)"><rect x="0" y="0" width="158" height="102" border="1" rx="10" ry="10" style="fill:#E0E0E0;stroke:#707070;stroke-width:1px;"/><text font-family="NotoSans, 'Helvetica Neue', Roboto, Helvetica, Arial, sans-serif" font-size="12" font-weight="bold" lengthAdjust="spacingAndGlyphs" style="fill:#4F4F4F;"><tspan y="18" x="79" text-anchor="middle" textLength="59">ISO 11469</tspan><tspan y="36" x="79" text-anchor="middle" textLength="110">Plastics — Generic</tspan><tspan y="54" x="79" text-anchor="middle" textLength="107">identification and</tspan><tspan y="72" x="79" text-anchor="middle" textLength="115">marking of plastics</tspan><tspan y="90" x="79" text-anchor="middle" textLength="54">products</tspan></text></g><g transform="translate(-768,560.8466695895195)"><rect x="0" y="0" width="158" height="102" border="1" rx="10" ry="10" style="fill:#E0E0E0;stroke:#707070;stroke-width:1px;"/><text font-family="NotoSans, 'Helvetica Neue', Roboto, Helvetica, Arial, sans-serif" font-size="12" font-weight="bold" lengthAdjust="spacingAndGlyphs" style="fill:#4F4F4F;"><tspan y="18" x="79" text-anchor="middle" textLength="59">ISO 18064</tspan><tspan y="36" x="79" text-anchor="middle" textLength="87">Thermoplastic</tspan><tspan y="54" x="79" text-anchor="middle" textLength="83">elastomers —</tspan><tspan y="72" x="79" text-anchor="middle" textLength="113">Nomenclature and</tspan><tspan y="90" x="79" text-anchor="middle" textLength="111">abbreviated terms</tspan></text></g><g transform="translate(-14.499957084655762,-410.4636710782054)"><rect x="0" y="0" width="85" height="48" border="1" rx="10" ry="10" style="fill:#a71930;stroke:#707070;stroke-width:1px;"/><image xlink:href="image2.png" x="6" y="6" width="36" height="36"/><text font-family="NotoSans, 'Helvetica Neue', Roboto, Helvetica, Arial, sans-serif" font-size="12" font-weight="bold" lengthAdjust="spacingAndGlyphs" style="fill:#FFFFFF;"><tspan y="27" x="63" text-anchor="middle" textLength="32">Tools</tspan></text></g><g transform="translate(90.50004291534424,-746.4636710782054)"><rect x="0" y="0" width="85" height="48" border="1" rx="10" ry="10" style="fill:#E0E0E0;stroke:#707070;stroke-width:1px;"/><image xlink:href="image3.png" x="6" y="6" width="36" height="36"/><text font-family="NotoSans, 'Helvetica Neue', Roboto, Helvetica, Arial, sans-serif" font-size="12" font-weight="bold" lengthAdjust="spacingAndGlyphs" style="fill:#4F4F4F;"><tspan y="27" x="63" text-anchor="middle" textLength="32">IMDS</tspan></text></g><g transform="translate(195.50004291534424,-904.7516710782054)"><rect x="0" y="0" width="139" height="30" border="1" rx="10" ry="10" style="fill:#E0E0E0;stroke:#707070;stroke-width:1px;"/><text font-family="NotoSans, 'Helvetica Neue', Roboto, Helvetica, Arial, sans-serif" font-size="12" font-weight="bold" lengthAdjust="spacingAndGlyphs" style="fill:#4F4F4F;"><tspan y="18" x="70" text-anchor="middle" textLength="127">SCD - Control Devices</tspan></text></g><g transform="translate(354.50004291534424,-913.7516710782054)"><rect x="0" y="0" width="158" height="48" border="1" rx="10" ry="10" style="fill:#E0E0E0;stroke:#707070;stroke-width:1px;"/><text font-family="NotoSans, 'Helvetica Neue', Roboto, Helvetica, Arial, sans-serif" font-size="12" font-weight="bold" lengthAdjust="spacingAndGlyphs" style="fill:#4F4F4F;"><tspan y="18" x="79" text-anchor="middle" textLength="81">Joseph Pollak</tspan><tspan y="36" x="79" text-anchor="middle" textLength="118">Corporation [11899]</tspan></text></g><g transform="translate(195.50004291534424,-811.7516710782054)"><rect x="0" y="0" width="109" height="30" border="1" rx="10" ry="10" style="fill:#E0E0E0;stroke:#707070;stroke-width:1px;"/><text font-family="NotoSans, 'Helvetica Neue', Roboto, Helvetica, Arial, sans-serif" font-size="12" font-weight="bold" lengthAdjust="spacingAndGlyphs" style="fill:#4F4F4F;"><tspan y="18" x="55" text-anchor="middle" textLength="97">SRE - Electronics</tspan></text></g><g transform="translate(324.50004291534424,-845.7516710782054)"><rect x="0" y="0" width="149" height="30" border="1" rx="10" ry="10" style="fill:#E0E0E0;stroke:#707070;stroke-width:1px;"/><text font-family="NotoSans, 'Helvetica Neue', Roboto, Helvetica, Arial, sans-serif" font-size="12" font-weight="bold" lengthAdjust="spacingAndGlyphs" style="fill:#4F4F4F;"><tspan y="18" x="75" text-anchor="middle" textLength="137">Stoneridge TED [67439]</tspan></text></g><g transform="translate(324.50004291534424,-781.75)"><rect x="0" y="0" width="158" height="48" border="1" rx="10" ry="10" style="fill:#c5d2e0;stroke:#707070;stroke-width:1px;"/><text font-family="NotoSans, 'Helvetica Neue', Roboto, Helvetica, Arial, sans-serif" font-size="12" font-weight="bold" lengthAdjust="spacingAndGlyphs" style="fill:#a71930;"><tspan y="18" x="79" text-anchor="middle" textLength="115">Orlaco Products BV</tspan><tspan y="36" x="79" text-anchor="middle" textLength="43">[98964]</tspan></text></g><g transform="translate(195.50004291534424,-713.7516710782054)"><rect x="0" y="0" width="158" height="48" border="1" rx="10" ry="10" style="fill:#E0E0E0;stroke:#707070;stroke-width:1px;"/><text font-family="NotoSans, 'Helvetica Neue', Roboto, Helvetica, Arial, sans-serif" font-size="12" font-weight="bold" lengthAdjust="spacingAndGlyphs" style="fill:#4F4F4F;"><tspan y="18" x="79" text-anchor="middle" textLength="121">Pollak, A Stoneridge</tspan><tspan y="36" x="79" text-anchor="middle" textLength="95">Company [2724]</tspan></text></g><g transform="translate(90.50004291534424,-645.4636710782054)"><rect x="0" y="0" width="55" height="30" border="1" rx="10" ry="10" style="fill:#E0E0E0;stroke:#707070;stroke-width:1px;"/><text font-family="NotoSans, 'Helvetica Neue', Roboto, Helvetica, Arial, sans-serif" font-size="12" font-weight="bold" lengthAdjust="spacingAndGlyphs" style="fill:#4F4F4F;"><tspan y="18" x="28" text-anchor="middle" textLength="43">CAMDS</tspan></text></g><g transform="translate(90.50004291534424,-595.4636710782054)"><rect x="0" y="0" width="129" height="30" border="1" rx="10" ry="10" style="fill:#E0E0E0;stroke:#707070;stroke-width:1px;"/><text font-family="NotoSans, 'Helvetica Neue', Roboto, Helvetica, Arial, sans-serif" font-size="12" font-weight="bold" lengthAdjust="spacingAndGlyphs" style="fill:#4F4F4F;"><tspan y="18" x="65" text-anchor="middle" textLength="117">ORACLE JD Edwards</tspan></text></g><g transform="translate(90.50004291534424,-545.4636710782054)"><rect x="0" y="0" width="136" height="48" border="1" rx="10" ry="10" style="fill:#E0E0E0;stroke:#707070;stroke-width:1px;"/><text font-family="NotoSans, 'Helvetica Neue', Roboto, Helvetica, Arial, sans-serif" font-size="12" font-weight="bold" lengthAdjust="spacingAndGlyphs" style="fill:#4F4F4F;"><tspan y="18" x="68" text-anchor="middle" textLength="47">canweb</tspan><tspan y="36" x="68" text-anchor="middle" textLength="124">http://canweb/view/</tspan></text></g><g transform="translate(90.50004291534424,-477.4636710782054)"><rect x="0" y="0" width="77" height="30" border="1" rx="10" ry="10" style="fill:#E0E0E0;stroke:#707070;stroke-width:1px;"/><text font-family="NotoSans, 'Helvetica Neue', Roboto, Helvetica, Arial, sans-serif" font-size="12" font-weight="bold" lengthAdjust="spacingAndGlyphs" style="fill:#4F4F4F;"><tspan y="18" x="39" text-anchor="middle" textLength="65">CM Tool V3</tspan></text></g><g transform="translate(90.50004291534424,-427.4636710782054)"><rect x="0" y="0" width="95" height="30" border="1" rx="10" ry="10" style="fill:#E0E0E0;stroke:#707070;stroke-width:1px;"/><text font-family="NotoSans, 'Helvetica Neue', Roboto, Helvetica, Arial, sans-serif" font-size="12" font-weight="bold" lengthAdjust="spacingAndGlyphs" style="fill:#4F4F4F;"><tspan y="18" x="48" text-anchor="middle" textLength="83">Lexington CM</tspan></text></g><g transform="translate(205.50004291534424,-427.4636710782054)"><rect x="0" y="0" width="107" height="30" border="1" rx="10" ry="10" style="fill:#E0E0E0;stroke:#707070;stroke-width:1px;"/><text font-family="NotoSans, 'Helvetica Neue', Roboto, Helvetica, Arial, sans-serif" font-size="12" font-weight="bold" lengthAdjust="spacingAndGlyphs" style="fill:#4F4F4F;"><tspan y="18" x="54" text-anchor="middle" textLength="95">CM_MasterV501</tspan></text></g><g transform="translate(90.50004291534424,-377.4636710782054)"><rect x="0" y="0" width="115" height="30" border="1" rx="10" ry="10" style="fill:#E0E0E0;stroke:#707070;stroke-width:1px;"/><text font-family="NotoSans, 'Helvetica Neue', Roboto, Helvetica, Arial, sans-serif" font-size="12" font-weight="bold" lengthAdjust="spacingAndGlyphs" style="fill:#4F4F4F;"><tspan y="18" x="58" text-anchor="middle" textLength="103">: Component Edit</tspan></text></g><g transform="translate(90.50004291534424,-327.4636710782054)"><rect x="0" y="0" width="151" height="30" border="1" rx="10" ry="10" style="fill:#E0E0E0;stroke:#707070;stroke-width:1px;"/><text font-family="NotoSans, 'Helvetica Neue', Roboto, Helvetica, Arial, sans-serif" font-size="12" font-weight="bold" lengthAdjust="spacingAndGlyphs" style="fill:#4F4F4F;"><tspan y="18" x="76" text-anchor="middle" textLength="139">ELCID 4.2.1 (2020-03-02)</tspan></text></g><g transform="translate(90.50004291534424,-277.4636710782054)"><rect x="0" y="0" width="158" height="66" border="1" rx="10" ry="10" style="fill:#E0E0E0;stroke:#707070;stroke-width:1px;"/><text font-family="NotoSans, 'Helvetica Neue', Roboto, Helvetica, Arial, sans-serif" font-size="12" font-weight="bold" lengthAdjust="spacingAndGlyphs" style="fill:#4F4F4F;"><tspan y="18" x="79" text-anchor="middle" textLength="50">MatWeb</tspan><tspan y="36" x="79" text-anchor="middle" textLength="126">MATERIAL PROPERTY</tspan><tspan y="54" x="79" text-anchor="middle" textLength="32">DATA</tspan></text></g><g transform="translate(90.50004291534424,-74.46367107820538)"><rect x="0" y="0" width="166" height="48" border="1" rx="10" ry="10" style="fill:#E0E0E0;stroke:#707070;stroke-width:1px;"/><image xlink:href="image4.png" x="6" y="6" width="36" height="36"/><text font-family="NotoSans, 'Helvetica Neue', Roboto, Helvetica, Arial, sans-serif" font-size="12" font-weight="bold" lengthAdjust="spacingAndGlyphs" style="fill:#4F4F4F;"><tspan y="27" x="104" text-anchor="middle" textLength="113">SharePoint/ Teams</tspan></text></g><g transform="translate(276.50004291534424,-191.5329210782054)"><rect x="0" y="0" width="184" height="48" border="1" rx="10" ry="10" style="fill:#c5d2e0;stroke:#707070;stroke-width:1px;"/><image xlink:href="image5.png" x="6" y="6" width="36" height="36"/><text font-family="NotoSans, 'Helvetica Neue', Roboto, Helvetica, Arial, sans-serif" font-size="12" font-weight="bold" lengthAdjust="spacingAndGlyphs" style="fill:#a71930;"><tspan y="27" x="113" text-anchor="middle" textLength="131">IMDS – Juarez, Mexico</tspan></text></g><g transform="translate(480.50004291534424,-327.5329210782054)"><rect x="0" y="0" width="144" height="48" border="1" rx="10" ry="10" style="fill:#c5d2e0;stroke:#707070;stroke-width:1px;"/><image xlink:href="image6.png" x="6" y="6" width="36" height="36"/><text font-family="NotoSans, 'Helvetica Neue', Roboto, Helvetica, Arial, sans-serif" font-size="12" font-weight="bold" lengthAdjust="spacingAndGlyphs" style="fill:#a71930;"><tspan y="27" x="93" text-anchor="middle" textLength="91">List: Sent MDSs</tspan></text></g><g transform="translate(480.50004291534424,-259.5329210782054)"><rect x="0" y="0" width="187" height="48" border="1" rx="10" ry="10" style="fill:#c5d2e0;stroke:#707070;stroke-width:1px;"/><image xlink:href="image7.png" x="6" y="6" width="36" height="36"/><text font-family="NotoSans, 'Helvetica Neue', Roboto, Helvetica, Arial, sans-serif" font-size="12" font-weight="bold" lengthAdjust="spacingAndGlyphs" style="fill:#a71930;"><tspan y="18" x="114" text-anchor="middle" textLength="58">List: PFAS</tspan><tspan y="36" x="114" text-anchor="middle" textLength="123">Submissions Tracker</tspan></text></g><g transform="translate(480.50004291534424,-191.5329210782054)"><rect x="0" y="0" width="172" height="48" border="1" rx="10" ry="10" style="fill:#c5d2e0;stroke:#707070;stroke-width:1px;"/><image xlink:href="image8.png" x="6" y="6" width="36" height="36"/><text font-family="NotoSans, 'Helvetica Neue', Roboto, Helvetica, Arial, sans-serif" font-size="12" font-weight="bold" lengthAdjust="spacingAndGlyphs" style="fill:#a71930;"><tspan y="18" x="107" text-anchor="middle" textLength="119">Catalog: Companies</tspan><tspan y="36" x="107" text-anchor="middle" textLength="27">(list)</tspan></text></g><g transform="translate(480.50004291534424,-123.53292107820539)"><rect x="0" y="0" width="164" height="48" border="1" rx="10" ry="10" style="fill:#c5d2e0;stroke:#707070;stroke-width:1px;"/><image xlink:href="image9.png" x="6" y="6" width="36" height="36"/><text font-family="NotoSans, 'Helvetica Neue', Roboto, Helvetica, Arial, sans-serif" font-size="12" font-weight="bold" lengthAdjust="spacingAndGlyphs" style="fill:#a71930;"><tspan y="18" x="103" text-anchor="middle" textLength="111">Catalog: Locations</tspan><tspan y="36" x="103" text-anchor="middle" textLength="27">(list)</tspan></text></g><g transform="translate(480.50004291534424,-55.53292107820539)"><rect x="0" y="0" width="203" height="48" border="1" rx="10" ry="10" style="fill:#c5d2e0;stroke:#707070;stroke-width:1px;"/><image xlink:href="image9.png" x="6" y="6" width="36" height="36"/><text font-family="NotoSans, 'Helvetica Neue', Roboto, Helvetica, Arial, sans-serif" font-size="12" font-weight="bold" lengthAdjust="spacingAndGlyphs" style="fill:#a71930;"><tspan y="18" x="122" text-anchor="middle" textLength="149">Catalog: Basic Substance</tspan><tspan y="36" x="122" text-anchor="middle" textLength="27">(list)</tspan></text></g><g transform="translate(276.50004291534424,12.46707892179461)"><rect x="0" y="0" width="125" height="36" border="1" rx="10" ry="10" style="fill:#E0E0E0;stroke:#707070;stroke-width:1px;"/><image xlink:href="image11.png" x="6" y="6" width="24" height="24"/><text font-family="NotoSans, 'Helvetica Neue', Roboto, Helvetica, Arial, sans-serif" font-size="12" font-weight="bold" lengthAdjust="spacingAndGlyphs" style="fill:#4F4F4F;"><tspan y="21" x="77" text-anchor="middle" textLength="84">IMDS Request</tspan></text></g><g transform="translate(276.50004291534424,68.46707892179461)"><rect x="0" y="0" width="163" height="48" border="1" rx="10" ry="10" style="fill:#E0E0E0;stroke:#707070;stroke-width:1px;"/><image xlink:href="image12.png" x="6" y="12" width="24" height="24"/><text font-family="NotoSans, 'Helvetica Neue', Roboto, Helvetica, Arial, sans-serif" font-size="12" font-weight="bold" lengthAdjust="spacingAndGlyphs" style="fill:#4F4F4F;"><tspan y="18" x="96" text-anchor="middle" textLength="122">Supplier APQP, PPAP</tspan><tspan y="36" x="96" text-anchor="middle" textLength="46">Tracker</tspan></text></g><g transform="translate(276.50004291534424,136.4670789217946)"><rect x="0" y="0" width="169" height="48" border="1" rx="10" ry="10" style="fill:#E0E0E0;stroke:#707070;stroke-width:1px;"/><image xlink:href="image13.png" x="6" y="12" width="24" height="24"/><text font-family="NotoSans, 'Helvetica Neue', Roboto, Helvetica, Arial, sans-serif" font-size="12" font-weight="bold" lengthAdjust="spacingAndGlyphs" style="fill:#4F4F4F;"><tspan y="18" x="99" text-anchor="middle" textLength="128">Supplier PPAP / APQP</tspan><tspan y="36" x="99" text-anchor="middle" textLength="46">Tracker</tspan></text></g><g transform="translate(-6,642.5899195895195)"><rect x="0" y="0" width="100" height="48" border="1" rx="10" ry="10" style="fill:#a71930;stroke:#707070;stroke-width:1px;"/><image xlink:href="image14.png" x="6" y="6" width="36" height="36"/><text font-family="NotoSans, 'Helvetica Neue', Roboto, Helvetica, Arial, sans-serif" font-size="12" font-weight="bold" lengthAdjust="spacingAndGlyphs" style="fill:#FFFFFF;"><tspan y="27" x="71" text-anchor="middle" textLength="47">Reports</tspan></text></g><g transform="translate(114,484.13004458951946)"><rect x="0" y="0" width="107" height="48" border="1" rx="10" ry="10" style="fill:#E0E0E0;stroke:#707070;stroke-width:1px;"/><image xlink:href="image15.png" x="6" y="6" width="36" height="36"/><text font-family="NotoSans, 'Helvetica Neue', Roboto, Helvetica, Arial, sans-serif" font-size="12" font-weight="bold" lengthAdjust="spacingAndGlyphs" style="fill:#4F4F4F;"><tspan y="27" x="74" text-anchor="middle" textLength="54">Power BI</tspan></text></g><g transform="translate(241,375.34204458951945)"><rect x="0" y="0" width="181" height="72" border="1" rx="10" ry="10" style="fill:#c5d2e0;stroke:#707070;stroke-width:1px;"/><image xlink:href="image16.png" x="6" y="6" width="60" height="60"/><text font-family="NotoSans, 'Helvetica Neue', Roboto, Helvetica, Arial, sans-serif" font-size="12" font-weight="bold" lengthAdjust="spacingAndGlyphs" style="fill:#a71930;"><tspan y="39" x="123" text-anchor="middle" textLength="104">Workspace: IMDS</tspan></text></g><g transform="translate(442,268.72591958951944)"><rect x="0" y="0" width="143" height="36" border="1" rx="10" ry="10" style="fill:#c5d2e0;stroke:#707070;stroke-width:1px;"/><image xlink:href="image17.png" x="6" y="6" width="24" height="24"/><text font-family="NotoSans, 'Helvetica Neue', Roboto, Helvetica, Arial, sans-serif" font-size="12" font-weight="bold" lengthAdjust="spacingAndGlyphs" style="fill:#a71930;"><tspan y="21" x="86" text-anchor="middle" textLength="102">Report: SRI IMDS</tspan></text></g><g transform="translate(442,324.72591958951944)"><rect x="0" y="0" width="171" height="48" border="1" rx="10" ry="10" style="fill:#c5d2e0;stroke:#707070;stroke-width:1px;"/><image xlink:href="image18.png" x="6" y="12" width="24" height="24"/><text font-family="NotoSans, 'Helvetica Neue', Roboto, Helvetica, Arial, sans-serif" font-size="12" font-weight="bold" lengthAdjust="spacingAndGlyphs" style="fill:#a71930;"><tspan y="18" x="100" text-anchor="middle" textLength="122">Report: MDSs Status</tspan><tspan y="36" x="100" text-anchor="middle" textLength="82">per Customer</tspan></text></g><g transform="translate(442,392.72591958951944)"><rect x="0" y="0" width="171" height="66" border="1" rx="10" ry="10" style="fill:#c5d2e0;stroke:#707070;stroke-width:1px;"/><image xlink:href="image18.png" x="6" y="21" width="24" height="24"/><text font-family="NotoSans, 'Helvetica Neue', Roboto, Helvetica, Arial, sans-serif" font-size="12" font-weight="bold" lengthAdjust="spacingAndGlyphs" style="fill:#a71930;"><tspan y="18" x="100" text-anchor="middle" textLength="80">Report: VoC –</tspan><tspan y="36" x="100" text-anchor="middle" textLength="105">Daimler Truck AG</tspan><tspan y="54" x="100" text-anchor="middle" textLength="42">(DTNA)</tspan></text></g><g transform="translate(442,478.72591958951944)"><rect x="0" y="0" width="156" height="36" border="1" rx="10" ry="10" style="fill:#c5d2e0;stroke:#707070;stroke-width:1px;"/><image xlink:href="image20.png" x="6" y="6" width="24" height="24"/><text font-family="NotoSans, 'Helvetica Neue', Roboto, Helvetica, Arial, sans-serif" font-size="12" font-weight="bold" lengthAdjust="spacingAndGlyphs" style="fill:#a71930;"><tspan y="21" x="93" text-anchor="middle" textLength="103">Report: _sandbox</tspan></text></g><g transform="translate(241,534.3420445895194)"><rect x="0" y="0" width="135" height="48" border="1" rx="10" ry="10" style="fill:#E0E0E0;stroke:#707070;stroke-width:1px;"/><image xlink:href="image21.png" x="6" y="6" width="36" height="36"/><text font-family="NotoSans, 'Helvetica Neue', Roboto, Helvetica, Arial, sans-serif" font-size="12" font-weight="bold" lengthAdjust="spacingAndGlyphs" style="fill:#4F4F4F;"><tspan y="18" x="88" text-anchor="middle" textLength="82">SRI Inventory</tspan><tspan y="36" x="88" text-anchor="middle" textLength="24">App</tspan></text></g><g transform="translate(396,534.3420445895194)"><rect x="0" y="0" width="161" height="48" border="1" rx="10" ry="10" style="fill:#E0E0E0;stroke:#707070;stroke-width:1px;"/><image xlink:href="image22.png" x="6" y="12" width="24" height="24"/><text font-family="NotoSans, 'Helvetica Neue', Roboto, Helvetica, Arial, sans-serif" font-size="12" font-weight="bold" lengthAdjust="spacingAndGlyphs" style="fill:#4F4F4F;"><tspan y="18" x="95" text-anchor="middle" textLength="29">PFEP</tspan><tspan y="36" x="95" text-anchor="middle" textLength="120">(Plan for Every Part)</tspan></text></g><g transform="translate(241,602.3420445895194)"><rect x="0" y="0" width="155" height="48" border="1" rx="10" ry="10" style="fill:#E0E0E0;stroke:#707070;stroke-width:1px;"/><image xlink:href="image23.png" x="6" y="6" width="36" height="36"/><text font-family="NotoSans, 'Helvetica Neue', Roboto, Helvetica, Arial, sans-serif" font-size="12" font-weight="bold" lengthAdjust="spacingAndGlyphs" style="fill:#4F4F4F;"><tspan y="18" x="98" text-anchor="middle" textLength="102">SRI Procurement</tspan><tspan y="36" x="98" text-anchor="middle" textLength="24">App</tspan></text></g><g transform="translate(416,602.3420445895194)"><rect x="0" y="0" width="187" height="48" border="1" rx="10" ry="10" style="fill:#E0E0E0;stroke:#707070;stroke-width:1px;"/><image xlink:href="image24.png" x="6" y="12" width="24" height="24"/><text font-family="NotoSans, 'Helvetica Neue', Roboto, Helvetica, Arial, sans-serif" font-size="12" font-weight="bold" lengthAdjust="spacingAndGlyphs" style="fill:#4F4F4F;"><tspan y="18" x="108" text-anchor="middle" textLength="142">Global Supplier Address</tspan><tspan y="36" x="108" text-anchor="middle" textLength="31">Book</tspan></text></g><g transform="translate(114,704.1300445895195)"><rect x="0" y="0" width="166" height="48" border="1" rx="10" ry="10" style="fill:#E0E0E0;stroke:#707070;stroke-width:1px;"/><image xlink:href="image25.png" x="6" y="6" width="36" height="36"/><text font-family="NotoSans, 'Helvetica Neue', Roboto, Helvetica, Arial, sans-serif" font-size="12" font-weight="bold" lengthAdjust="spacingAndGlyphs" style="fill:#4F4F4F;"><tspan y="27" x="104" text-anchor="middle" textLength="113">Teams/ SharePoint</tspan></text></g><g transform="translate(300,670.1300445895195)"><rect x="0" y="0" width="146" height="48" border="1" rx="10" ry="10" style="fill:#E0E0E0;stroke:#707070;stroke-width:1px;"/><image xlink:href="image27.png" x="6" y="12" width="24" height="24"/><text font-family="NotoSans, 'Helvetica Neue', Roboto, Helvetica, Arial, sans-serif" font-size="12" font-weight="bold" lengthAdjust="spacingAndGlyphs" style="fill:#4F4F4F;"><tspan y="18" x="88" text-anchor="middle" textLength="105">IMDS reports SCD</tspan><tspan y="36" x="88" text-anchor="middle" textLength="79">(old location)</tspan></text></g><g transform="translate(466,673.1300445895195)"><rect x="0" y="0" width="145" height="42" border="1" rx="10" ry="10" style="fill:#c5d2e0;stroke:#707070;stroke-width:1px;"/><image xlink:href="image28.png" x="6" y="6" width="30" height="30"/><text font-family="NotoSans, 'Helvetica Neue', Roboto, Helvetica, Arial, sans-serif" font-size="12" font-weight="bold" lengthAdjust="spacingAndGlyphs" style="fill:#a71930;"><tspan y="24" x="90" text-anchor="middle" textLength="98">NEW LOCATION!</tspan></text></g><g transform="translate(300,738.1300445895195)"><rect x="0" y="0" width="145" height="48" border="1" rx="10" ry="10" style="fill:#E0E0E0;stroke:#707070;stroke-width:1px;"/><image xlink:href="image29.png" x="6" y="12" width="24" height="24"/><text font-family="NotoSans, 'Helvetica Neue', Roboto, Helvetica, Arial, sans-serif" font-size="12" font-weight="bold" lengthAdjust="spacingAndGlyphs" style="fill:#4F4F4F;"><tspan y="18" x="87" text-anchor="middle" textLength="104">IMDS reports SRE</tspan><tspan y="36" x="87" text-anchor="middle" textLength="79">(old location)</tspan></text></g><g transform="translate(465,741.1300445895195)"><rect x="0" y="0" width="145" height="42" border="1" rx="10" ry="10" style="fill:#c5d2e0;stroke:#707070;stroke-width:1px;"/><image xlink:href="image28.png" x="6" y="6" width="30" height="30"/><text font-family="NotoSans, 'Helvetica Neue', Roboto, Helvetica, Arial, sans-serif" font-size="12" font-weight="bold" lengthAdjust="spacingAndGlyphs" style="fill:#a71930;"><tspan y="24" x="90" text-anchor="middle" textLength="98">NEW LOCATION!</tspan></text></g><g transform="translate(114,840.1300445895195)"><rect x="0" y="0" width="130" height="48" border="1" rx="10" ry="10" style="fill:#E0E0E0;stroke:#707070;stroke-width:1px;"/><image xlink:href="image31.png" x="6" y="6" width="36" height="36"/><text font-family="NotoSans, 'Helvetica Neue', Roboto, Helvetica, Arial, sans-serif" font-size="12" font-weight="bold" lengthAdjust="spacingAndGlyphs" style="fill:#4F4F4F;"><tspan y="27" x="86" text-anchor="middle" textLength="77">Shared Drive</tspan></text></g><g transform="translate(264,806.1160906677248)"><rect x="0" y="0" width="137" height="30" border="1" rx="10" ry="10" style="fill:#5c7f92;stroke:#707070;stroke-width:1px;"/><text font-family="NotoSans, 'Helvetica Neue', Roboto, Helvetica, Arial, sans-serif" font-size="12" font-weight="bold" lengthAdjust="spacingAndGlyphs" style="fill:#FFFFFF;"><tspan y="18" x="69" text-anchor="middle" textLength="125">SRE Monthly Reports</tspan></text></g><g transform="translate(264,856.1160906677248)"><rect x="0" y="0" width="139" height="30" border="1" rx="10" ry="10" style="fill:#5c7f92;stroke:#707070;stroke-width:1px;"/><text font-family="NotoSans, 'Helvetica Neue', Roboto, Helvetica, Arial, sans-serif" font-size="12" font-weight="bold" lengthAdjust="spacingAndGlyphs" style="fill:#FFFFFF;"><tspan y="18" x="70" text-anchor="middle" textLength="127">SCD Monthly Reports</tspan></text></g><g transform="translate(-301,-1015)"><rect x="0" y="0" width="287" height="341" border="1" rx="10" ry="10" style="fill:#FFFFFF;stroke:#707070;stroke-width:1px;"/><image xlink:href="image49.png" x="6" y="6" width="275" height="329"/></g></g></svg>