<?xml version="1.0" encoding="UTF-8"?>
<svg xmlns="http://www.w3.org/2000/svg" xmlns:xlink="http://www.w3.org/1999/xlink" width="1476" height="1361.7343139648438"><defs><style type="text/css"><![CDATA[@import url("https://atlas.mindmup.com/_resources/22/fonts.css")]]></style></defs><rect width="100%" height="100%" fill="#FFFFFF"/><g transform="translate(1073,627.038)" style="fill:none;"><g transform="translate(-279,-20)"><path d="M57,18Q57,315 134,279" stroke="#707070" stroke-width="1" stroke-linecap="round"/></g><g transform="translate(-145,122)"><path d="M30,137Q30,-21 79,15" stroke="#707070" stroke-width="1" stroke-linecap="round"/></g><g transform="translate(-66,93)"><path d="M63,44Q63,-6.75 145,15" stroke="#707070" stroke-width="1" stroke-linecap="round"/></g><g transform="translate(-66,122)"><path d="M63,15Q63,67.5 145,45" stroke="#707070" stroke-width="1" stroke-linecap="round"/></g><g transform="translate(79,143)"><path d="M106,24L136,24" stroke="#707070" stroke-width="1" stroke-linecap="round"/></g><g transform="translate(-145,220)"><path d="M49,39Q49,15 79,15" stroke="#707070" stroke-width="1" stroke-linecap="round"/></g><g transform="translate(-66,220)"><path d="M56,15L86,15" stroke="#707070" stroke-width="1" stroke-linecap="round"/></g><g transform="translate(20,211)"><path d="M84,24L114,24" stroke="#707070" stroke-width="1" stroke-linecap="round"/></g><g transform="translate(-145,244)"><path d="M30,15Q30,174 79,138" stroke="#707070" stroke-width="1" stroke-linecap="round"/></g><g transform="translate(-66,279)"><path d="M45,103Q45,6 109,42" stroke="#707070" stroke-width="1" stroke-linecap="round"/></g><g transform="translate(-66,367)"><path d="M45,15Q45,103 109,67" stroke="#707070" stroke-width="1" stroke-linecap="round"/></g><g transform="translate(-672,-78.19431103515626)"><path d="M403,76Q403,77 373,77" stroke="#707070" stroke-width="1" stroke-linecap="round"/></g><g transform="translate(-780,-78.19431103515626)"><path d="M118,77Q118,78 88,78" stroke="#707070" stroke-width="1" stroke-linecap="round"/></g><g transform="translate(-354,-20)"><path d="M132,18Q132,202 55,166" stroke="#707070" stroke-width="1" stroke-linecap="round"/></g><g transform="translate(-532,96.80568896484374)"><path d="M188,49Q188,24 158,24" stroke="#707070" stroke-width="1" stroke-linecap="round"/></g><g transform="translate(-501,130.80568896484374)"><path d="M175,15Q175,74.5 127,49" stroke="#707070" stroke-width="1" stroke-linecap="round"/></g><g transform="translate(-279,-278)"><path d="M57,276Q57,-21 134,15" stroke="#707070" stroke-width="1" stroke-linecap="round"/></g><g transform="translate(-145,-506)"><path d="M22,243Q22,-21 64,15" stroke="#707070" stroke-width="1" stroke-linecap="round"/></g><g transform="translate(-81,-597.038)"><path d="M22,106Q22,-21 64,15" stroke="#707070" stroke-width="1" stroke-linecap="round"/></g><g transform="translate(-17,-597.038)"><path d="M24,15L54,15" stroke="#707070" stroke-width="1" stroke-linecap="round"/></g><g transform="translate(-81,-538.038)"><path d="M22,47Q22,-9 64,15" stroke="#707070" stroke-width="1" stroke-linecap="round"/></g><g transform="translate(-17,-547.038)"><path d="M26,24L56,24" stroke="#707070" stroke-width="1" stroke-linecap="round"/></g><g transform="translate(-81,-506)"><path d="M22,15Q22,78 121,51" stroke="#707070" stroke-width="1" stroke-linecap="round"/></g><g transform="translate(-145,-411)"><path d="M22,148Q22,-21 64,15" stroke="#707070" stroke-width="1" stroke-linecap="round"/></g><g transform="translate(-145,-311)"><path d="M34,48Q34,24 64,24" stroke="#707070" stroke-width="1" stroke-linecap="round"/></g><g transform="translate(-145,-278)"><path d="M22,15Q22,136 64,100" stroke="#707070" stroke-width="1" stroke-linecap="round"/></g><g transform="translate(-145,-278)"><path d="M22,15Q22,279 64,243" stroke="#707070" stroke-width="1" stroke-linecap="round"/></g><g transform="translate(-81,-143)"><path d="M63,108Q63,-21 145,15" stroke="#707070" stroke-width="1" stroke-linecap="round"/></g><g transform="translate(-81,-93)"><path d="M63,58Q63,-17.25 145,15" stroke="#707070" stroke-width="1" stroke-linecap="round"/></g><g transform="translate(-81,-50)"><path d="M115,15Q115,31 145,31" stroke="#707070" stroke-width="1" stroke-linecap="round"/></g><g transform="translate(-81,-50)"><path d="M63,15Q63,135 145,99" stroke="#707070" stroke-width="1" stroke-linecap="round"/></g><g transform="translate(-145,-361)"><path d="M22,98Q22,-21 64,15" stroke="#707070" stroke-width="1" stroke-linecap="round"/></g><g transform="translate(-145,-278)"><path d="M22,15Q22,76.25 64,50" stroke="#707070" stroke-width="1" stroke-linecap="round"/></g><g transform="translate(-454,-20)"><path d="M232,18Q232,503 155,467" stroke="#707070" stroke-width="1" stroke-linecap="round"/></g><g transform="translate(-687,413.69631396484374)"><path d="M243,33L213,33" stroke="#707070" stroke-width="1" stroke-linecap="round"/></g><g transform="translate(-865,188.69631396484374)"><path d="M285,258Q285,-46.19999999999999 158,33" stroke="#707070" stroke-width="1" stroke-linecap="round"/></g><g transform="translate(-1043,68.69631396484374)"><path d="M257,153Q257,-37.19999999999999 158,42" stroke="#707070" stroke-width="1" stroke-linecap="round"/></g><g transform="translate(-1043,172.69631396484374)"><path d="M188,49Q188,33 158,33" stroke="#707070" stroke-width="1" stroke-linecap="round"/></g><g transform="translate(-965,188.69631396484374)"><path d="M179,33Q179,139.75 80,94" stroke="#707070" stroke-width="1" stroke-linecap="round"/></g><g transform="translate(-1001,188.69631396484374)"><path d="M215,33Q215,219.6 116,162" stroke="#707070" stroke-width="1" stroke-linecap="round"/></g><g transform="translate(-865,394.69631396484374)"><path d="M188,52Q188,33 158,33" stroke="#707070" stroke-width="1" stroke-linecap="round"/></g><g transform="translate(-865,413.69631396484374)"><path d="M285,33Q285,181.75 158,118" stroke="#707070" stroke-width="1" stroke-linecap="round"/></g><g transform="translate(-865,413.69631396484374)"><path d="M285,33Q285,319.2 158,240" stroke="#707070" stroke-width="1" stroke-linecap="round"/></g><g transform="translate(-423,-20)"><path d="M201,18Q201,311 124,275" stroke="#707070" stroke-width="1" stroke-linecap="round"/></g><g transform="translate(-550,214.80568896484374)"><path d="M137,40Q137,15 107,15" stroke="#707070" stroke-width="1" stroke-linecap="round"/></g><g transform="translate(-519,239.80568896484374)"><path d="M106,15Q106,40 76,40" stroke="#707070" stroke-width="1" stroke-linecap="round"/></g><g transform="translate(-353,-212.19431103515626)"><path d="M131,210Q131,-21 54,15" stroke="#707070" stroke-width="1" stroke-linecap="round"/></g><g transform="translate(-531,-296.19431103515626)"><path d="M205,99Q205,-12 158,24" stroke="#707070" stroke-width="1" stroke-linecap="round"/></g><g transform="translate(-605,-296.19431103515626)"><path d="M84,24L54,24" stroke="#707070" stroke-width="1" stroke-linecap="round"/></g><g transform="translate(-531,-212.19431103515626)"><path d="M188,15Q188,24 158,24" stroke="#707070" stroke-width="1" stroke-linecap="round"/></g><g transform="translate(-605,-228.19431103515626)"><path d="M84,40Q84,15 54,15" stroke="#707070" stroke-width="1" stroke-linecap="round"/></g><g transform="translate(-607,-212.19431103515626)"><path d="M86,24Q86,49 56,49" stroke="#707070" stroke-width="1" stroke-linecap="round"/></g><g transform="translate(-504,-212.19431103515626)"><path d="M178,15Q178,135 131,99" stroke="#707070" stroke-width="1" stroke-linecap="round"/></g><g transform="translate(-578,-128.19431103515626)"><path d="M84,15L54,15" stroke="#707070" stroke-width="1" stroke-linecap="round"/></g><g transform="translate(-531,-212.19431103515626)"><path d="M158,24L746,379" stroke-dasharray="4, 4" stroke="#c60c30" stroke-width="1"/><path d="M737,368L746,379L732,376Z" fill="#c60c30" stroke="#c60c30" stroke-width="1"/></g><g transform="translate(-66,220)"><path d="M109,101L66,15" stroke-dasharray="4, 4" stroke="#c60c30" stroke-width="1"/><path d="M68,29L66,15L76,25Z" fill="#c60c30" stroke="#c60c30" stroke-width="1"/></g><g transform="translate(-66,220)"><path d="M188,163L66,15" stroke-dasharray="4, 4" stroke="#c60c30" stroke-width="1"/><path d="M71,28L66,15L78,22Z" fill="#c60c30" stroke="#c60c30" stroke-width="1"/></g><g transform="translate(-672,-78.19431103515626)"><path d="M176,293L187,155" stroke-dasharray="4, 4" stroke="#c60c30" stroke-width="1"/><path d="M181,168L187,155L191,168Z" fill="#c60c30" stroke="#c60c30" stroke-width="1"/></g><g transform="translate(-279,-20)"><rect x="0" y="0" width="114" height="35" border="1" rx="10" ry="10" style="fill:#000000;stroke:#707070;stroke-width:1px;"/><text font-family="NotoSans, 'Helvetica Neue', Roboto, Helvetica, Arial, sans-serif" font-size="15" font-weight="bold" lengthAdjust="spacingAndGlyphs" style="fill:#FFFFFF;"><tspan y="21" x="57" text-anchor="middle" textLength="102">IMDS – Juarez</tspan></text></g><g transform="translate(-353,-212.19431103515626)"><rect x="0" y="0" width="54" height="30" border="1" rx="10" ry="10" style="fill:#a71930;stroke:#707070;stroke-width:1px;"/><text font-family="NotoSans, 'Helvetica Neue', Roboto, Helvetica, Arial, sans-serif" font-size="12" font-weight="bold" lengthAdjust="spacingAndGlyphs" style="fill:#FFFFFF;"><tspan y="18" x="27" text-anchor="middle" textLength="42">Clients</tspan></text></g><g transform="translate(-531,-296.19431103515626)"><rect x="0" y="0" width="158" height="48" border="1" rx="10" ry="10" style="fill:#E0E0E0;stroke:#707070;stroke-width:1px;"/><text font-family="NotoSans, 'Helvetica Neue', Roboto, Helvetica, Arial, sans-serif" font-size="12" font-weight="bold" lengthAdjust="spacingAndGlyphs" style="fill:#4F4F4F;"><tspan y="18" x="79" text-anchor="middle" textLength="105">Daimler Truck AG</tspan><tspan y="36" x="79" text-anchor="middle" textLength="50">[261589]</tspan></text></g><g transform="translate(-605,-287.19431103515626)"><rect x="0" y="0" width="54" height="30" border="1" rx="10" ry="10" style="fill:#E0E0E0;stroke:#707070;stroke-width:1px;"/><text font-family="NotoSans, 'Helvetica Neue', Roboto, Helvetica, Arial, sans-serif" font-size="12" font-weight="bold" lengthAdjust="spacingAndGlyphs" style="fill:#4F4F4F;"><tspan y="18" x="27" text-anchor="middle" textLength="42">MDS: #</tspan></text></g><g transform="translate(-531,-212.19431103515626)"><rect x="0" y="0" width="158" height="48" border="1" rx="10" ry="10" style="fill:#E0E0E0;stroke:#707070;stroke-width:1px;"/><text font-family="NotoSans, 'Helvetica Neue', Roboto, Helvetica, Arial, sans-serif" font-size="12" font-weight="bold" lengthAdjust="spacingAndGlyphs" style="fill:#4F4F4F;"><tspan y="18" x="79" text-anchor="middle" textLength="130">International Motors,</tspan><tspan y="36" x="79" text-anchor="middle" textLength="74">LLC [186555]</tspan></text></g><g transform="translate(-605,-228.19431103515626)"><rect x="0" y="0" width="54" height="30" border="1" rx="10" ry="10" style="fill:#E0E0E0;stroke:#707070;stroke-width:1px;"/><text font-family="NotoSans, 'Helvetica Neue', Roboto, Helvetica, Arial, sans-serif" font-size="12" font-weight="bold" lengthAdjust="spacingAndGlyphs" style="fill:#4F4F4F;"><tspan y="18" x="27" text-anchor="middle" textLength="42">MDS: #</tspan></text></g><g transform="translate(-607,-178.19431103515626)"><rect x="0" y="0" width="56" height="30" border="1" rx="10" ry="10" style="fill:#E0E0E0;stroke:#707070;stroke-width:1px;"/><text font-family="NotoSans, 'Helvetica Neue', Roboto, Helvetica, Arial, sans-serif" font-size="12" font-weight="bold" lengthAdjust="spacingAndGlyphs" style="fill:#4F4F4F;"><tspan y="18" x="28" text-anchor="middle" textLength="44">PFAS: #</tspan></text></g><g transform="translate(-504,-128.19431103515626)"><rect x="0" y="0" width="131" height="30" border="1" rx="10" ry="10" style="fill:#E0E0E0;stroke:#707070;stroke-width:1px;"/><text font-family="NotoSans, 'Helvetica Neue', Roboto, Helvetica, Arial, sans-serif" font-size="12" font-weight="bold" lengthAdjust="spacingAndGlyphs" style="fill:#4F4F4F;"><tspan y="18" x="66" text-anchor="middle" textLength="119">Volvo Group [46569]</tspan></text></g><g transform="translate(-578,-128.19431103515626)"><rect x="0" y="0" width="54" height="30" border="1" rx="10" ry="10" style="fill:#E0E0E0;stroke:#707070;stroke-width:1px;"/><text font-family="NotoSans, 'Helvetica Neue', Roboto, Helvetica, Arial, sans-serif" font-size="12" font-weight="bold" lengthAdjust="spacingAndGlyphs" style="fill:#4F4F4F;"><tspan y="18" x="27" text-anchor="middle" textLength="42">MDS: #</tspan></text></g><g transform="translate(-672,-78.19431103515626)"><rect x="0" y="0" width="373" height="155" border="1" rx="10" ry="10" style="fill:#a71930;stroke:#707070;stroke-width:1px;"/><image xlink:href="image1.png" x="6" y="6" width="300" height="143"/><text font-family="NotoSans, 'Helvetica Neue', Roboto, Helvetica, Arial, sans-serif" font-size="12" font-weight="bold" lengthAdjust="spacingAndGlyphs" style="fill:#FFFFFF;"><tspan y="81" x="339" text-anchor="middle" textLength="56">Suppliers</tspan></text></g><g transform="translate(-780,-15.194311035156261)"><rect x="0" y="0" width="88" height="30" border="1" rx="10" ry="10" style="fill:#E0E0E0;stroke:#707070;stroke-width:1px;"/><text font-family="NotoSans, 'Helvetica Neue', Roboto, Helvetica, Arial, sans-serif" font-size="12" font-weight="bold" lengthAdjust="spacingAndGlyphs" style="fill:#4F4F4F;"><tspan y="18" x="44" text-anchor="middle" textLength="76">Components</tspan></text></g><g transform="translate(-354,130.80568896484374)"><rect x="0" y="0" width="55" height="30" border="1" rx="10" ry="10" style="fill:#a71930;stroke:#707070;stroke-width:1px;"/><text font-family="NotoSans, 'Helvetica Neue', Roboto, Helvetica, Arial, sans-serif" font-size="12" font-weight="bold" lengthAdjust="spacingAndGlyphs" style="fill:#FFFFFF;"><tspan y="18" x="28" text-anchor="middle" textLength="43">Portals</tspan></text></g><g transform="translate(-532,96.80568896484374)"><rect x="0" y="0" width="158" height="48" border="1" rx="10" ry="10" style="fill:#E0E0E0;stroke:#707070;stroke-width:1px;"/><text font-family="NotoSans, 'Helvetica Neue', Roboto, Helvetica, Arial, sans-serif" font-size="12" font-weight="bold" lengthAdjust="spacingAndGlyphs" style="fill:#4F4F4F;"><tspan y="18" x="79" text-anchor="middle" textLength="76">STELLANTIS/</tspan><tspan y="36" x="79" text-anchor="middle" textLength="106">eSupplierConnect</tspan></text></g><g transform="translate(-501,164.80568896484374)"><rect x="0" y="0" width="127" height="30" border="1" rx="10" ry="10" style="fill:#E0E0E0;stroke:#707070;stroke-width:1px;"/><text font-family="NotoSans, 'Helvetica Neue', Roboto, Helvetica, Arial, sans-serif" font-size="12" font-weight="bold" lengthAdjust="spacingAndGlyphs" style="fill:#4F4F4F;"><tspan y="18" x="64" text-anchor="middle" textLength="115">OpenText/ Covisint</tspan></text></g><g transform="translate(-423,239.80568896484374)"><rect x="0" y="0" width="124" height="30" border="1" rx="10" ry="10" style="fill:#a71930;stroke:#707070;stroke-width:1px;"/><text font-family="NotoSans, 'Helvetica Neue', Roboto, Helvetica, Arial, sans-serif" font-size="12" font-weight="bold" lengthAdjust="spacingAndGlyphs" style="fill:#FFFFFF;"><tspan y="18" x="62" text-anchor="middle" textLength="112">Support from/ to...</tspan></text></g><g transform="translate(-550,214.80568896484374)"><rect x="0" y="0" width="107" height="30" border="1" rx="10" ry="10" style="fill:#E0E0E0;stroke:#707070;stroke-width:1px;"/><text font-family="NotoSans, 'Helvetica Neue', Roboto, Helvetica, Arial, sans-serif" font-size="12" font-weight="bold" lengthAdjust="spacingAndGlyphs" style="fill:#4F4F4F;"><tspan y="18" x="54" text-anchor="middle" textLength="95">from: SQM/ SQE</tspan></text></g><g transform="translate(-519,264.80568896484374)"><rect x="0" y="0" width="76" height="30" border="1" rx="10" ry="10" style="fill:#E0E0E0;stroke:#707070;stroke-width:1px;"/><text font-family="NotoSans, 'Helvetica Neue', Roboto, Helvetica, Arial, sans-serif" font-size="12" font-weight="bold" lengthAdjust="spacingAndGlyphs" style="fill:#4F4F4F;"><tspan y="18" x="38" text-anchor="middle" textLength="64">to: Quality</tspan></text></g><g transform="translate(-454,431.69631396484374)"><rect x="0" y="0" width="155" height="30" border="1" rx="10" ry="10" style="fill:#a71930;stroke:#707070;stroke-width:1px;"/><text font-family="NotoSans, 'Helvetica Neue', Roboto, Helvetica, Arial, sans-serif" font-size="12" font-weight="bold" lengthAdjust="spacingAndGlyphs" style="fill:#FFFFFF;"><tspan y="18" x="78" text-anchor="middle" textLength="143">Documents/ References</tspan></text></g><g transform="translate(-687,413.69631396484374)"><rect x="0" y="0" width="213" height="66" border="1" rx="10" ry="10" style="fill:#E0E0E0;stroke:#707070;stroke-width:1px;"/><image xlink:href="image5.png" x="157" y="10" width="50" height="47"/><text font-family="NotoSans, 'Helvetica Neue', Roboto, Helvetica, Arial, sans-serif" font-size="12" font-weight="bold" lengthAdjust="spacingAndGlyphs" style="fill:#4F4F4F;"><tspan y="18" x="79" text-anchor="middle" textLength="81">International</tspan><tspan y="36" x="79" text-anchor="middle" textLength="100">Organization for</tspan><tspan y="54" x="79" text-anchor="middle" textLength="96">Standardization</tspan></text></g><g transform="translate(-865,188.69631396484374)"><rect x="0" y="0" width="158" height="66" border="1" rx="10" ry="10" style="fill:#E0E0E0;stroke:#707070;stroke-width:1px;"/><text font-family="NotoSans, 'Helvetica Neue', Roboto, Helvetica, Arial, sans-serif" font-size="12" font-weight="bold" lengthAdjust="spacingAndGlyphs" style="fill:#4F4F4F;"><tspan y="18" x="79" text-anchor="middle" textLength="52">ISO 1043</tspan><tspan y="36" x="79" text-anchor="middle" textLength="140">Plastics — Symbols and</tspan><tspan y="54" x="79" text-anchor="middle" textLength="111">abbreviated terms</tspan></text></g><g transform="translate(-1043,68.69631396484374)"><rect x="0" y="0" width="158" height="84" border="1" rx="10" ry="10" style="fill:#E0E0E0;stroke:#707070;stroke-width:1px;"/><text font-family="NotoSans, 'Helvetica Neue', Roboto, Helvetica, Arial, sans-serif" font-size="12" font-weight="bold" lengthAdjust="spacingAndGlyphs" style="fill:#4F4F4F;"><tspan y="18" x="79" text-anchor="middle" textLength="39">Part 1:</tspan><tspan y="36" x="79" text-anchor="middle" textLength="116">Basic polymers and</tspan><tspan y="54" x="79" text-anchor="middle" textLength="74">their special</tspan><tspan y="72" x="79" text-anchor="middle" textLength="89">characteristics</tspan></text></g><g transform="translate(-1043,172.69631396484374)"><rect x="0" y="0" width="158" height="66" border="1" rx="10" ry="10" style="fill:#E0E0E0;stroke:#707070;stroke-width:1px;"/><text font-family="NotoSans, 'Helvetica Neue', Roboto, Helvetica, Arial, sans-serif" font-size="12" font-weight="bold" lengthAdjust="spacingAndGlyphs" style="fill:#4F4F4F;"><tspan y="18" x="79" text-anchor="middle" textLength="39">Part 2:</tspan><tspan y="36" x="79" text-anchor="middle" textLength="132">Fillers and reinforcing</tspan><tspan y="54" x="79" text-anchor="middle" textLength="58">materials</tspan></text></g><g transform="translate(-965,258.69631396484374)"><rect x="0" y="0" width="80" height="48" border="1" rx="10" ry="10" style="fill:#E0E0E0;stroke:#707070;stroke-width:1px;"/><text font-family="NotoSans, 'Helvetica Neue', Roboto, Helvetica, Arial, sans-serif" font-size="12" font-weight="bold" lengthAdjust="spacingAndGlyphs" style="fill:#4F4F4F;"><tspan y="18" x="40" text-anchor="middle" textLength="39">Part 3:</tspan><tspan y="36" x="40" text-anchor="middle" textLength="68">Plasticizers</tspan></text></g><g transform="translate(-1001,326.69631396484374)"><rect x="0" y="0" width="116" height="48" border="1" rx="10" ry="10" style="fill:#E0E0E0;stroke:#707070;stroke-width:1px;"/><text font-family="NotoSans, 'Helvetica Neue', Roboto, Helvetica, Arial, sans-serif" font-size="12" font-weight="bold" lengthAdjust="spacingAndGlyphs" style="fill:#4F4F4F;"><tspan y="18" x="58" text-anchor="middle" textLength="39">Part 4:</tspan><tspan y="36" x="58" text-anchor="middle" textLength="104">Flame retardants</tspan></text></g><g transform="translate(-865,394.69631396484374)"><rect x="0" y="0" width="158" height="66" border="1" rx="10" ry="10" style="fill:#E0E0E0;stroke:#707070;stroke-width:1px;"/><text font-family="NotoSans, 'Helvetica Neue', Roboto, Helvetica, Arial, sans-serif" font-size="12" font-weight="bold" lengthAdjust="spacingAndGlyphs" style="fill:#4F4F4F;"><tspan y="18" x="79" text-anchor="middle" textLength="78">DIN ISO 1629</tspan><tspan y="36" x="79" text-anchor="middle" textLength="121">Rubber and latices –</tspan><tspan y="54" x="79" text-anchor="middle" textLength="87">Nomenclature</tspan></text></g><g transform="translate(-865,480.69631396484374)"><rect x="0" y="0" width="158" height="102" border="1" rx="10" ry="10" style="fill:#E0E0E0;stroke:#707070;stroke-width:1px;"/><text font-family="NotoSans, 'Helvetica Neue', Roboto, Helvetica, Arial, sans-serif" font-size="12" font-weight="bold" lengthAdjust="spacingAndGlyphs" style="fill:#4F4F4F;"><tspan y="18" x="79" text-anchor="middle" textLength="59">ISO 11469</tspan><tspan y="36" x="79" text-anchor="middle" textLength="110">Plastics — Generic</tspan><tspan y="54" x="79" text-anchor="middle" textLength="107">identification and</tspan><tspan y="72" x="79" text-anchor="middle" textLength="115">marking of plastics</tspan><tspan y="90" x="79" text-anchor="middle" textLength="54">products</tspan></text></g><g transform="translate(-865,602.6963139648437)"><rect x="0" y="0" width="158" height="102" border="1" rx="10" ry="10" style="fill:#E0E0E0;stroke:#707070;stroke-width:1px;"/><text font-family="NotoSans, 'Helvetica Neue', Roboto, Helvetica, Arial, sans-serif" font-size="12" font-weight="bold" lengthAdjust="spacingAndGlyphs" style="fill:#4F4F4F;"><tspan y="18" x="79" text-anchor="middle" textLength="59">ISO 18064</tspan><tspan y="36" x="79" text-anchor="middle" textLength="87">Thermoplastic</tspan><tspan y="54" x="79" text-anchor="middle" textLength="83">elastomers —</tspan><tspan y="72" x="79" text-anchor="middle" textLength="113">Nomenclature and</tspan><tspan y="90" x="79" text-anchor="middle" textLength="111">abbreviated terms</tspan></text></g><g transform="translate(-145,-278)"><rect x="0" y="0" width="44" height="30" border="1" rx="10" ry="10" style="fill:#a71930;stroke:#707070;stroke-width:1px;"/><text font-family="NotoSans, 'Helvetica Neue', Roboto, Helvetica, Arial, sans-serif" font-size="12" font-weight="bold" lengthAdjust="spacingAndGlyphs" style="fill:#FFFFFF;"><tspan y="18" x="22" text-anchor="middle" textLength="32">Tools</tspan></text></g><g transform="translate(-81,-506)"><rect x="0" y="0" width="44" height="30" border="1" rx="10" ry="10" style="fill:#E0E0E0;stroke:#707070;stroke-width:1px;"/><text font-family="NotoSans, 'Helvetica Neue', Roboto, Helvetica, Arial, sans-serif" font-size="12" font-weight="bold" lengthAdjust="spacingAndGlyphs" style="fill:#4F4F4F;"><tspan y="18" x="22" text-anchor="middle" textLength="32">IMDS</tspan></text></g><g transform="translate(-17,-597.038)"><rect x="0" y="0" width="34" height="30" border="1" rx="10" ry="10" style="fill:#E0E0E0;stroke:#707070;stroke-width:1px;"/><text font-family="NotoSans, 'Helvetica Neue', Roboto, Helvetica, Arial, sans-serif" font-size="12" font-weight="bold" lengthAdjust="spacingAndGlyphs" style="fill:#4F4F4F;"><tspan y="18" x="17" text-anchor="middle" textLength="22">SRE</tspan></text></g><g transform="translate(37,-597.038)"><rect x="0" y="0" width="149" height="30" border="1" rx="10" ry="10" style="fill:#E0E0E0;stroke:#707070;stroke-width:1px;"/><text font-family="NotoSans, 'Helvetica Neue', Roboto, Helvetica, Arial, sans-serif" font-size="12" font-weight="bold" lengthAdjust="spacingAndGlyphs" style="fill:#4F4F4F;"><tspan y="18" x="75" text-anchor="middle" textLength="137">Stoneridge TED [67439]</tspan></text></g><g transform="translate(-17,-538.038)"><rect x="0" y="0" width="36" height="30" border="1" rx="10" ry="10" style="fill:#E0E0E0;stroke:#707070;stroke-width:1px;"/><text font-family="NotoSans, 'Helvetica Neue', Roboto, Helvetica, Arial, sans-serif" font-size="12" font-weight="bold" lengthAdjust="spacingAndGlyphs" style="fill:#4F4F4F;"><tspan y="18" x="18" text-anchor="middle" textLength="24">SCD</tspan></text></g><g transform="translate(39,-547.038)"><rect x="0" y="0" width="158" height="48" border="1" rx="10" ry="10" style="fill:#E0E0E0;stroke:#707070;stroke-width:1px;"/><text font-family="NotoSans, 'Helvetica Neue', Roboto, Helvetica, Arial, sans-serif" font-size="12" font-weight="bold" lengthAdjust="spacingAndGlyphs" style="fill:#4F4F4F;"><tspan y="18" x="79" text-anchor="middle" textLength="81">Joseph Pollak</tspan><tspan y="36" x="79" text-anchor="middle" textLength="118">Corporation [11899]</tspan></text></g><g transform="translate(40.213200000000086,-479.03800000000007)"><rect x="0" y="0" width="158" height="48" border="1" rx="10" ry="10" style="fill:#E0E0E0;stroke:#707070;stroke-width:1px;"/><text font-family="NotoSans, 'Helvetica Neue', Roboto, Helvetica, Arial, sans-serif" font-size="12" font-weight="bold" lengthAdjust="spacingAndGlyphs" style="fill:#4F4F4F;"><tspan y="18" x="79" text-anchor="middle" textLength="121">Pollak, A Stoneridge</tspan><tspan y="36" x="79" text-anchor="middle" textLength="95">Company [2724]</tspan></text></g><g transform="translate(-81,-411)"><rect x="0" y="0" width="55" height="30" border="1" rx="10" ry="10" style="fill:#E0E0E0;stroke:#707070;stroke-width:1px;"/><text font-family="NotoSans, 'Helvetica Neue', Roboto, Helvetica, Arial, sans-serif" font-size="12" font-weight="bold" lengthAdjust="spacingAndGlyphs" style="fill:#4F4F4F;"><tspan y="18" x="28" text-anchor="middle" textLength="43">CAMDS</tspan></text></g><g transform="translate(-81,-361)"><rect x="0" y="0" width="129" height="30" border="1" rx="10" ry="10" style="fill:#E0E0E0;stroke:#707070;stroke-width:1px;"/><text font-family="NotoSans, 'Helvetica Neue', Roboto, Helvetica, Arial, sans-serif" font-size="12" font-weight="bold" lengthAdjust="spacingAndGlyphs" style="fill:#4F4F4F;"><tspan y="18" x="65" text-anchor="middle" textLength="117">ORACLE JD Edwards</tspan></text></g><g transform="translate(-81,-311)"><rect x="0" y="0" width="158" height="48" border="1" rx="10" ry="10" style="fill:#E0E0E0;stroke:#707070;stroke-width:1px;"/><text font-family="NotoSans, 'Helvetica Neue', Roboto, Helvetica, Arial, sans-serif" font-size="12" font-weight="bold" lengthAdjust="spacingAndGlyphs" style="fill:#4F4F4F;"><tspan y="18" x="79" text-anchor="middle" textLength="140">canweb http://canweb/</tspan><tspan y="36" x="79" text-anchor="middle" textLength="33">view/</tspan></text></g><g transform="translate(-81,-243)"><rect x="0" y="0" width="115" height="30" border="1" rx="10" ry="10" style="fill:#E0E0E0;stroke:#707070;stroke-width:1px;"/><text font-family="NotoSans, 'Helvetica Neue', Roboto, Helvetica, Arial, sans-serif" font-size="12" font-weight="bold" lengthAdjust="spacingAndGlyphs" style="fill:#4F4F4F;"><tspan y="18" x="58" text-anchor="middle" textLength="103">: Component Edit</tspan></text></g><g transform="translate(-81,-193)"><rect x="0" y="0" width="151" height="30" border="1" rx="10" ry="10" style="fill:#E0E0E0;stroke:#707070;stroke-width:1px;"/><text font-family="NotoSans, 'Helvetica Neue', Roboto, Helvetica, Arial, sans-serif" font-size="12" font-weight="bold" lengthAdjust="spacingAndGlyphs" style="fill:#4F4F4F;"><tspan y="18" x="76" text-anchor="middle" textLength="139">ELCID 4.2.1 (2020-03-02)</tspan></text></g><g transform="translate(-81,-50)"><rect x="0" y="0" width="125" height="30" border="1" rx="10" ry="10" style="fill:#E0E0E0;stroke:#707070;stroke-width:1px;"/><text font-family="NotoSans, 'Helvetica Neue', Roboto, Helvetica, Arial, sans-serif" font-size="12" font-weight="bold" lengthAdjust="spacingAndGlyphs" style="fill:#4F4F4F;"><tspan y="18" x="63" text-anchor="middle" textLength="113">Teams/ SharePoint</tspan></text></g><g transform="translate(64,-143)"><rect x="0" y="0" width="44" height="30" border="1" rx="10" ry="10" style="fill:#c5d2e0;stroke:#707070;stroke-width:1px;"/><text font-family="NotoSans, 'Helvetica Neue', Roboto, Helvetica, Arial, sans-serif" font-size="12" font-weight="bold" lengthAdjust="spacingAndGlyphs" style="fill:#a71930;"><tspan y="18" x="22" text-anchor="middle" textLength="32">IMDS</tspan></text></g><g transform="translate(64,-93)"><rect x="0" y="0" width="96" height="30" border="1" rx="10" ry="10" style="fill:#E0E0E0;stroke:#707070;stroke-width:1px;"/><text font-family="NotoSans, 'Helvetica Neue', Roboto, Helvetica, Arial, sans-serif" font-size="12" font-weight="bold" lengthAdjust="spacingAndGlyphs" style="fill:#4F4F4F;"><tspan y="18" x="48" text-anchor="middle" textLength="84">IMDS Request</tspan></text></g><g transform="translate(64,-43)"><rect x="0" y="0" width="158" height="48" border="1" rx="10" ry="10" style="fill:#E0E0E0;stroke:#707070;stroke-width:1px;"/><text font-family="NotoSans, 'Helvetica Neue', Roboto, Helvetica, Arial, sans-serif" font-size="12" font-weight="bold" lengthAdjust="spacingAndGlyphs" style="fill:#4F4F4F;"><tspan y="18" x="79" text-anchor="middle" textLength="122">Supplier APQP, PPAP</tspan><tspan y="36" x="79" text-anchor="middle" textLength="46">Tracker</tspan></text></g><g transform="translate(64,25)"><rect x="0" y="0" width="158" height="48" border="1" rx="10" ry="10" style="fill:#E0E0E0;stroke:#707070;stroke-width:1px;"/><text font-family="NotoSans, 'Helvetica Neue', Roboto, Helvetica, Arial, sans-serif" font-size="12" font-weight="bold" lengthAdjust="spacingAndGlyphs" style="fill:#4F4F4F;"><tspan y="18" x="79" text-anchor="middle" textLength="128">Supplier PPAP / APQP</tspan><tspan y="36" x="79" text-anchor="middle" textLength="46">Tracker</tspan></text></g><g transform="translate(-145,244)"><rect x="0" y="0" width="59" height="30" border="1" rx="10" ry="10" style="fill:#a71930;stroke:#707070;stroke-width:1px;"/><text font-family="NotoSans, 'Helvetica Neue', Roboto, Helvetica, Arial, sans-serif" font-size="12" font-weight="bold" lengthAdjust="spacingAndGlyphs" style="fill:#FFFFFF;"><tspan y="18" x="30" text-anchor="middle" textLength="47">Reports</tspan></text></g><g transform="translate(-66,122)"><rect x="0" y="0" width="125" height="30" border="1" rx="10" ry="10" style="fill:#E0E0E0;stroke:#707070;stroke-width:1px;"/><text font-family="NotoSans, 'Helvetica Neue', Roboto, Helvetica, Arial, sans-serif" font-size="12" font-weight="bold" lengthAdjust="spacingAndGlyphs" style="fill:#4F4F4F;"><tspan y="18" x="63" text-anchor="middle" textLength="113">Teams/ SharePoint</tspan></text></g><g transform="translate(79,93)"><rect x="0" y="0" width="117" height="30" border="1" rx="10" ry="10" style="fill:#E0E0E0;stroke:#707070;stroke-width:1px;"/><text font-family="NotoSans, 'Helvetica Neue', Roboto, Helvetica, Arial, sans-serif" font-size="12" font-weight="bold" lengthAdjust="spacingAndGlyphs" style="fill:#4F4F4F;"><tspan y="18" x="59" text-anchor="middle" textLength="105">IMDS reports SCD</tspan></text></g><g transform="translate(79,152)"><rect x="0" y="0" width="116" height="30" border="1" rx="10" ry="10" style="fill:#E0E0E0;stroke:#707070;stroke-width:1px;"/><text font-family="NotoSans, 'Helvetica Neue', Roboto, Helvetica, Arial, sans-serif" font-size="12" font-weight="bold" lengthAdjust="spacingAndGlyphs" style="fill:#4F4F4F;"><tspan y="18" x="58" text-anchor="middle" textLength="104">IMDS reports SRE</tspan></text></g><g transform="translate(215,143)"><rect x="0" y="0" width="158" height="48" border="1" rx="10" ry="10" style="fill:#E0E0E0;stroke:#707070;stroke-width:1px;"/><text font-family="NotoSans, 'Helvetica Neue', Roboto, Helvetica, Arial, sans-serif" font-size="12" font-weight="bold" lengthAdjust="spacingAndGlyphs" style="fill:#4F4F4F;"><tspan y="18" x="79" text-anchor="middle" textLength="125">186555 International</tspan><tspan y="36" x="79" text-anchor="middle" textLength="71">Motors, LLC</tspan></text></g><g transform="translate(-66,220)"><rect x="0" y="0" width="66" height="30" border="1" rx="10" ry="10" style="fill:#E0E0E0;stroke:#707070;stroke-width:1px;"/><text font-family="NotoSans, 'Helvetica Neue', Roboto, Helvetica, Arial, sans-serif" font-size="12" font-weight="bold" lengthAdjust="spacingAndGlyphs" style="fill:#4F4F4F;"><tspan y="18" x="33" text-anchor="middle" textLength="54">Power BI</tspan></text></g><g transform="translate(20,220)"><rect x="0" y="0" width="94" height="30" border="1" rx="10" ry="10" style="fill:#E0E0E0;stroke:#707070;stroke-width:1px;"/><text font-family="NotoSans, 'Helvetica Neue', Roboto, Helvetica, Arial, sans-serif" font-size="12" font-weight="bold" lengthAdjust="spacingAndGlyphs" style="fill:#4F4F4F;"><tspan y="18" x="47" text-anchor="middle" textLength="82">SRI Inventory</tspan></text></g><g transform="translate(134,211)"><rect x="0" y="0" width="132" height="48" border="1" rx="10" ry="10" style="fill:#E0E0E0;stroke:#707070;stroke-width:1px;"/><text font-family="NotoSans, 'Helvetica Neue', Roboto, Helvetica, Arial, sans-serif" font-size="12" font-weight="bold" lengthAdjust="spacingAndGlyphs" style="fill:#4F4F4F;"><tspan y="18" x="66" text-anchor="middle" textLength="29">PFEP</tspan><tspan y="36" x="66" text-anchor="middle" textLength="120">(Plan for Every Part)</tspan></text></g><g transform="translate(-66,367)"><rect x="0" y="0" width="89" height="30" border="1" rx="10" ry="10" style="fill:#E0E0E0;stroke:#707070;stroke-width:1px;"/><text font-family="NotoSans, 'Helvetica Neue', Roboto, Helvetica, Arial, sans-serif" font-size="12" font-weight="bold" lengthAdjust="spacingAndGlyphs" style="fill:#4F4F4F;"><tspan y="18" x="45" text-anchor="middle" textLength="77">Shared Drive</tspan></text></g><g transform="translate(43,279)"><rect x="0" y="0" width="158" height="84" border="1" rx="10" ry="10" style="fill:#E0E0E0;stroke:#707070;stroke-width:1px;"/><text font-family="NotoSans, 'Helvetica Neue', Roboto, Helvetica, Arial, sans-serif" font-size="12" font-weight="bold" lengthAdjust="spacingAndGlyphs" style="fill:#4F4F4F;"><tspan y="18" x="79" text-anchor="middle" textLength="125">SRE Monthly Reports</tspan><tspan y="36" x="79" text-anchor="middle" textLength="98">\\juafile02\IMDS</tspan><tspan y="54" x="79" text-anchor="middle" textLength="141">\Electronics\Electronics</tspan><tspan y="72" x="79" text-anchor="middle" textLength="101">Mensual Reports</tspan></text></g><g transform="translate(43,383)"><rect x="0" y="0" width="158" height="102" border="1" rx="10" ry="10" style="fill:#E0E0E0;stroke:#707070;stroke-width:1px;"/><text font-family="NotoSans, 'Helvetica Neue', Roboto, Helvetica, Arial, sans-serif" font-size="12" font-weight="bold" lengthAdjust="spacingAndGlyphs" style="fill:#4F4F4F;"><tspan y="18" x="79" text-anchor="middle" textLength="127">SCD Monthly Reports</tspan><tspan y="36" x="79" text-anchor="middle" textLength="98">\\juafile02\IMDS</tspan><tspan y="54" x="79" text-anchor="middle" textLength="97">\Control devices</tspan><tspan y="72" x="79" text-anchor="middle" textLength="99">\Control Devices</tspan><tspan y="90" x="79" text-anchor="middle" textLength="101">Mensual Reports</tspan></text></g></g></svg>