<?xml version="1.0" encoding="UTF-8"?>
<svg xmlns="http://www.w3.org/2000/svg" xmlns:xlink="http://www.w3.org/1999/xlink" width="1354" height="1398.6963139648437"><defs><style type="text/css"><![CDATA[@import url("https://atlas.mindmup.com/_resources/22/fonts.css")]]></style></defs><rect width="100%" height="100%" fill="#FFFFFF"/><g transform="translate(896,947)" style="fill:none;"><g transform="translate(-279,-243)"><path d="M85,31Q85,330 189,294" stroke="#707070" stroke-width="1" stroke-linecap="round"/></g><g transform="translate(-90,-89)"><path d="M30,140Q30,-21 79,15" stroke="#707070" stroke-width="1" stroke-linecap="round"/></g><g transform="translate(-11,-118)"><path d="M63,44Q63,-6.75 145,15" stroke="#707070" stroke-width="1" stroke-linecap="round"/></g><g transform="translate(-11,-89)"><path d="M63,15Q63,67.5 145,45" stroke="#707070" stroke-width="1" stroke-linecap="round"/></g><g transform="translate(134,-68)"><path d="M106,24L136,24" stroke="#707070" stroke-width="1" stroke-linecap="round"/></g><g transform="translate(-90,36)"><path d="M49,15Q49,22 79,22" stroke="#707070" stroke-width="1" stroke-linecap="round"/></g><g transform="translate(-11,43)"><path d="M33,15Q33,74.5 86,49" stroke="#707070" stroke-width="1" stroke-linecap="round"/></g><g transform="translate(75,68)"><path d="M84,24L114,24" stroke="#707070" stroke-width="1" stroke-linecap="round"/></g><g transform="translate(-11,9)"><path d="M33,49Q33,-10.5 86,15" stroke="#707070" stroke-width="1" stroke-linecap="round"/></g><g transform="translate(75,0)"><path d="M106,24L136,24" stroke="#707070" stroke-width="1" stroke-linecap="round"/></g><g transform="translate(-90,36)"><path d="M30,15Q30,176 79,140" stroke="#707070" stroke-width="1" stroke-linecap="round"/></g><g transform="translate(-11,136)"><path d="M79,40Q79,15 109,15" stroke="#707070" stroke-width="1" stroke-linecap="round"/></g><g transform="translate(-11,161)"><path d="M79,15Q79,40 109,40" stroke="#707070" stroke-width="1" stroke-linecap="round"/></g><g transform="translate(-623,-317.19431103515626)"><path d="M354,105Q354,65 323,65" stroke="#707070" stroke-width="1" stroke-linecap="round"/></g><g transform="translate(-731,-317.19431103515626)"><path d="M118,65Q118,66 88,66" stroke="#707070" stroke-width="1" stroke-linecap="round"/></g><g transform="translate(-355,-243)"><path d="M161,31Q161,279 55,243" stroke="#707070" stroke-width="1" stroke-linecap="round"/></g><g transform="translate(-533,-49.35050000000001)"><path d="M188,49Q188,24 158,24" stroke="#707070" stroke-width="1" stroke-linecap="round"/></g><g transform="translate(-502,-15.350500000000011)"><path d="M175,15Q175,74.5 127,49" stroke="#707070" stroke-width="1" stroke-linecap="round"/></g><g transform="translate(-279,-489)"><path d="M85,277Q85,-21 189,15" stroke="#707070" stroke-width="1" stroke-linecap="round"/></g><g transform="translate(-90,-717)"><path d="M22,243Q22,-21 64,15" stroke="#707070" stroke-width="1" stroke-linecap="round"/></g><g transform="translate(-26,-808.038)"><path d="M22,106Q22,-21 64,15" stroke="#707070" stroke-width="1" stroke-linecap="round"/></g><g transform="translate(38,-808.038)"><path d="M24,15L54,15" stroke="#707070" stroke-width="1" stroke-linecap="round"/></g><g transform="translate(-26,-749.038)"><path d="M22,47Q22,-9 64,15" stroke="#707070" stroke-width="1" stroke-linecap="round"/></g><g transform="translate(38,-758.038)"><path d="M26,24L56,24" stroke="#707070" stroke-width="1" stroke-linecap="round"/></g><g transform="translate(-26,-717)"><path d="M22,15Q22,78 121,51" stroke="#707070" stroke-width="1" stroke-linecap="round"/></g><g transform="translate(-90,-622)"><path d="M22,148Q22,-21 64,15" stroke="#707070" stroke-width="1" stroke-linecap="round"/></g><g transform="translate(-90,-522)"><path d="M34,48Q34,24 64,24" stroke="#707070" stroke-width="1" stroke-linecap="round"/></g><g transform="translate(-90,-489)"><path d="M22,15Q22,136 64,100" stroke="#707070" stroke-width="1" stroke-linecap="round"/></g><g transform="translate(-90,-489)"><path d="M22,15Q22,279 64,243" stroke="#707070" stroke-width="1" stroke-linecap="round"/></g><g transform="translate(-26,-354)"><path d="M63,108Q63,-21 145,15" stroke="#707070" stroke-width="1" stroke-linecap="round"/></g><g transform="translate(119,-354)"><path d="M84,15L114,15" stroke="#707070" stroke-width="1" stroke-linecap="round"/></g><g transform="translate(-26,-304)"><path d="M63,58Q63,-17.25 145,15" stroke="#707070" stroke-width="1" stroke-linecap="round"/></g><g transform="translate(-26,-261)"><path d="M115,15Q115,31 145,31" stroke="#707070" stroke-width="1" stroke-linecap="round"/></g><g transform="translate(-26,-261)"><path d="M63,15Q63,135 145,99" stroke="#707070" stroke-width="1" stroke-linecap="round"/></g><g transform="translate(-90,-572)"><path d="M22,98Q22,-21 64,15" stroke="#707070" stroke-width="1" stroke-linecap="round"/></g><g transform="translate(-90,-489)"><path d="M22,15Q22,76.25 64,50" stroke="#707070" stroke-width="1" stroke-linecap="round"/></g><g transform="translate(-455,-243)"><path d="M261,31Q261,503 155,467" stroke="#707070" stroke-width="1" stroke-linecap="round"/></g><g transform="translate(-688,190.69631396484374)"><path d="M243,33L213,33" stroke="#707070" stroke-width="1" stroke-linecap="round"/></g><g transform="translate(-866,25.69631396484374)"><path d="M285,198Q285,-46.19999999999999 158,33" stroke="#707070" stroke-width="1" stroke-linecap="round"/></g><g transform="translate(-866,111.69631396484374)"><path d="M285,112Q285,-26.25 158,33" stroke="#707070" stroke-width="1" stroke-linecap="round"/></g><g transform="translate(-866,190.69631396484374)"><path d="M188,33Q188,58 158,58" stroke="#707070" stroke-width="1" stroke-linecap="round"/></g><g transform="translate(-866,190.69631396484374)"><path d="M285,33Q285,259.2 158,180" stroke="#707070" stroke-width="1" stroke-linecap="round"/></g><g transform="translate(-354,-435.19431103515626)"><path d="M160,223Q160,-21 54,15" stroke="#707070" stroke-width="1" stroke-linecap="round"/></g><g transform="translate(-532,-503.19431103515626)"><path d="M205,83Q205,-12 158,24" stroke="#707070" stroke-width="1" stroke-linecap="round"/></g><g transform="translate(-532,-435.19431103515626)"><path d="M188,15Q188,24 158,24" stroke="#707070" stroke-width="1" stroke-linecap="round"/></g><g transform="translate(-505,-435.19431103515626)"><path d="M178,15Q178,119 131,83" stroke="#707070" stroke-width="1" stroke-linecap="round"/></g><g transform="translate(-424,-243)"><path d="M230,31Q230,170 124,134" stroke="#707070" stroke-width="1" stroke-linecap="round"/></g><g transform="translate(-551,-149.3505)"><path d="M137,40Q137,15 107,15" stroke="#707070" stroke-width="1" stroke-linecap="round"/></g><g transform="translate(-520,-124.35050000000001)"><path d="M106,15Q106,40 76,40" stroke="#707070" stroke-width="1" stroke-linecap="round"/></g><g transform="translate(-532,-435.19431103515626)"><path d="M158,24L802,391" stroke-dasharray="4, 4" stroke="#c60c30" stroke-width="1"/><path d="M793,381L802,391L788,389Z" fill="#c60c30" stroke="#c60c30" stroke-width="1"/></g><g transform="translate(-11,43)"><path d="M109,108L66,15" stroke-dasharray="4, 4" stroke="#c60c30" stroke-width="1"/><path d="M67,29L66,15L76,25Z" fill="#c60c30" stroke="#c60c30" stroke-width="1"/></g><g transform="translate(-11,43)"><path d="M109,158L33,30" stroke-dasharray="4, 4" stroke="#c60c30" stroke-width="1"/><path d="M36,44L33,30L44,39Z" fill="#c60c30" stroke="#c60c30" stroke-width="1"/></g><g transform="translate(-623,-317.19431103515626)"><path d="M126,168L162,131" stroke-dasharray="4, 4" stroke="#c60c30" stroke-width="1"/><path d="M149,137L162,131L156,144Z" fill="#c60c30" stroke="#c60c30" stroke-width="1"/></g><g transform="translate(-354,-435.19431103515626)"><path d="M473,96L54,15" stroke-dasharray="4, 4" stroke="#c60c30" stroke-width="1"/><path d="M66,22L54,15L68,13Z" fill="#c60c30" stroke="#c60c30" stroke-width="1"/></g><g transform="translate(-623,-354)"><path d="M742,15L323,103" stroke-dasharray="4, 4" stroke="#c60c30" stroke-width="1"/><path d="M337,105L323,103L335,95Z" fill="#c60c30" stroke="#c60c30" stroke-width="1"/></g><g transform="translate(-455,-354)"><path d="M574,15L155,578" stroke-dasharray="4, 4" stroke="#c60c30" stroke-width="1"/><path d="M167,570L155,578L159,564Z" fill="#c60c30" stroke="#c60c30" stroke-width="1"/></g><g transform="translate(-279,-243)"><rect x="0" y="0" width="169" height="62" border="1" rx="10" ry="10" style="fill:#000000;stroke:#707070;stroke-width:1px;"/><image xlink:href="image1.png" x="6" y="6" width="50" height="50"/><text font-family="NotoSans, 'Helvetica Neue', Roboto, Helvetica, Arial, sans-serif" font-size="15" font-weight="bold" lengthAdjust="spacingAndGlyphs" style="fill:#FFFFFF;"><tspan y="35" x="112" text-anchor="middle" textLength="102">IMDS – Juárez</tspan></text></g><g transform="translate(-354,-435.19431103515626)"><rect x="0" y="0" width="54" height="30" border="1" rx="10" ry="10" style="fill:#a71930;stroke:#707070;stroke-width:1px;"/><text font-family="NotoSans, 'Helvetica Neue', Roboto, Helvetica, Arial, sans-serif" font-size="12" font-weight="bold" lengthAdjust="spacingAndGlyphs" style="fill:#FFFFFF;"><tspan y="18" x="27" text-anchor="middle" textLength="42">Clients</tspan></text></g><g transform="translate(-532,-503.19431103515626)"><rect x="0" y="0" width="158" height="48" border="1" rx="10" ry="10" style="fill:#E0E0E0;stroke:#707070;stroke-width:1px;"/><text font-family="NotoSans, 'Helvetica Neue', Roboto, Helvetica, Arial, sans-serif" font-size="12" font-weight="bold" lengthAdjust="spacingAndGlyphs" style="fill:#4F4F4F;"><tspan y="18" x="79" text-anchor="middle" textLength="105">Daimler Truck AG</tspan><tspan y="36" x="79" text-anchor="middle" textLength="50">[205311]</tspan></text></g><g transform="translate(-532,-435.19431103515626)"><rect x="0" y="0" width="158" height="48" border="1" rx="10" ry="10" style="fill:#E0E0E0;stroke:#707070;stroke-width:1px;"/><text font-family="NotoSans, 'Helvetica Neue', Roboto, Helvetica, Arial, sans-serif" font-size="12" font-weight="bold" lengthAdjust="spacingAndGlyphs" style="fill:#4F4F4F;"><tspan y="18" x="79" text-anchor="middle" textLength="130">International Motors,</tspan><tspan y="36" x="79" text-anchor="middle" textLength="74">LLC [186555]</tspan></text></g><g transform="translate(-505,-367.19431103515626)"><rect x="0" y="0" width="131" height="30" border="1" rx="10" ry="10" style="fill:#E0E0E0;stroke:#707070;stroke-width:1px;"/><text font-family="NotoSans, 'Helvetica Neue', Roboto, Helvetica, Arial, sans-serif" font-size="12" font-weight="bold" lengthAdjust="spacingAndGlyphs" style="fill:#4F4F4F;"><tspan y="18" x="66" text-anchor="middle" textLength="119">Volvo Group [46569]</tspan></text></g><g transform="translate(-623,-317.19431103515626)"><rect x="0" y="0" width="323" height="131" border="1" rx="10" ry="10" style="fill:#a71930;stroke:#707070;stroke-width:1px;"/><image xlink:href="image4.png" x="6" y="6" width="250" height="119"/><text font-family="NotoSans, 'Helvetica Neue', Roboto, Helvetica, Arial, sans-serif" font-size="12" font-weight="bold" lengthAdjust="spacingAndGlyphs" style="fill:#FFFFFF;"><tspan y="69" x="289" text-anchor="middle" textLength="56">Suppliers</tspan></text></g><g transform="translate(-731,-266.19431103515626)"><rect x="0" y="0" width="88" height="30" border="1" rx="10" ry="10" style="fill:#E0E0E0;stroke:#707070;stroke-width:1px;"/><text font-family="NotoSans, 'Helvetica Neue', Roboto, Helvetica, Arial, sans-serif" font-size="12" font-weight="bold" lengthAdjust="spacingAndGlyphs" style="fill:#4F4F4F;"><tspan y="18" x="44" text-anchor="middle" textLength="76">Components</tspan></text></g><g transform="translate(-424,-124.35050000000001)"><rect x="0" y="0" width="124" height="30" border="1" rx="10" ry="10" style="fill:#a71930;stroke:#707070;stroke-width:1px;"/><text font-family="NotoSans, 'Helvetica Neue', Roboto, Helvetica, Arial, sans-serif" font-size="12" font-weight="bold" lengthAdjust="spacingAndGlyphs" style="fill:#FFFFFF;"><tspan y="18" x="62" text-anchor="middle" textLength="112">Support from/ to...</tspan></text></g><g transform="translate(-551,-149.3505)"><rect x="0" y="0" width="107" height="30" border="1" rx="10" ry="10" style="fill:#E0E0E0;stroke:#707070;stroke-width:1px;"/><text font-family="NotoSans, 'Helvetica Neue', Roboto, Helvetica, Arial, sans-serif" font-size="12" font-weight="bold" lengthAdjust="spacingAndGlyphs" style="fill:#4F4F4F;"><tspan y="18" x="54" text-anchor="middle" textLength="95">from: SQM/ SQE</tspan></text></g><g transform="translate(-520,-99.35050000000001)"><rect x="0" y="0" width="76" height="30" border="1" rx="10" ry="10" style="fill:#E0E0E0;stroke:#707070;stroke-width:1px;"/><text font-family="NotoSans, 'Helvetica Neue', Roboto, Helvetica, Arial, sans-serif" font-size="12" font-weight="bold" lengthAdjust="spacingAndGlyphs" style="fill:#4F4F4F;"><tspan y="18" x="38" text-anchor="middle" textLength="64">to: Quality</tspan></text></g><g transform="translate(-355,-15.350500000000011)"><rect x="0" y="0" width="55" height="30" border="1" rx="10" ry="10" style="fill:#a71930;stroke:#707070;stroke-width:1px;"/><text font-family="NotoSans, 'Helvetica Neue', Roboto, Helvetica, Arial, sans-serif" font-size="12" font-weight="bold" lengthAdjust="spacingAndGlyphs" style="fill:#FFFFFF;"><tspan y="18" x="28" text-anchor="middle" textLength="43">Portals</tspan></text></g><g transform="translate(-533,-49.35050000000001)"><rect x="0" y="0" width="158" height="48" border="1" rx="10" ry="10" style="fill:#E0E0E0;stroke:#707070;stroke-width:1px;"/><text font-family="NotoSans, 'Helvetica Neue', Roboto, Helvetica, Arial, sans-serif" font-size="12" font-weight="bold" lengthAdjust="spacingAndGlyphs" style="fill:#4F4F4F;"><tspan y="18" x="79" text-anchor="middle" textLength="76">STELLANTIS/</tspan><tspan y="36" x="79" text-anchor="middle" textLength="106">eSupplierConnect</tspan></text></g><g transform="translate(-502,18.64949999999999)"><rect x="0" y="0" width="127" height="30" border="1" rx="10" ry="10" style="fill:#E0E0E0;stroke:#707070;stroke-width:1px;"/><text font-family="NotoSans, 'Helvetica Neue', Roboto, Helvetica, Arial, sans-serif" font-size="12" font-weight="bold" lengthAdjust="spacingAndGlyphs" style="fill:#4F4F4F;"><tspan y="18" x="64" text-anchor="middle" textLength="115">OpenText/ Covisint</tspan></text></g><g transform="translate(-455,208.69631396484374)"><rect x="0" y="0" width="155" height="30" border="1" rx="10" ry="10" style="fill:#a71930;stroke:#707070;stroke-width:1px;"/><text font-family="NotoSans, 'Helvetica Neue', Roboto, Helvetica, Arial, sans-serif" font-size="12" font-weight="bold" lengthAdjust="spacingAndGlyphs" style="fill:#FFFFFF;"><tspan y="18" x="78" text-anchor="middle" textLength="143">Documents/ References</tspan></text></g><g transform="translate(-688,190.69631396484374)"><rect x="0" y="0" width="213" height="66" border="1" rx="10" ry="10" style="fill:#E0E0E0;stroke:#707070;stroke-width:1px;"/><image xlink:href="image5.png" x="157" y="10" width="50" height="47"/><text font-family="NotoSans, 'Helvetica Neue', Roboto, Helvetica, Arial, sans-serif" font-size="12" font-weight="bold" lengthAdjust="spacingAndGlyphs" style="fill:#4F4F4F;"><tspan y="18" x="79" text-anchor="middle" textLength="81">International</tspan><tspan y="36" x="79" text-anchor="middle" textLength="100">Organization for</tspan><tspan y="54" x="79" text-anchor="middle" textLength="96">Standardization</tspan></text></g><g transform="translate(-866,25.69631396484374)"><rect x="0" y="0" width="158" height="66" border="1" rx="10" ry="10" style="fill:#E0E0E0;stroke:#707070;stroke-width:1px;"/><text font-family="NotoSans, 'Helvetica Neue', Roboto, Helvetica, Arial, sans-serif" font-size="12" font-weight="bold" lengthAdjust="spacingAndGlyphs" style="fill:#4F4F4F;"><tspan y="18" x="79" text-anchor="middle" textLength="52">ISO 1043</tspan><tspan y="36" x="79" text-anchor="middle" textLength="140">Plastics — Symbols and</tspan><tspan y="54" x="79" text-anchor="middle" textLength="111">abbreviated terms</tspan></text></g><g transform="translate(-866,111.69631396484374)"><rect x="0" y="0" width="158" height="66" border="1" rx="10" ry="10" style="fill:#E0E0E0;stroke:#707070;stroke-width:1px;"/><text font-family="NotoSans, 'Helvetica Neue', Roboto, Helvetica, Arial, sans-serif" font-size="12" font-weight="bold" lengthAdjust="spacingAndGlyphs" style="fill:#4F4F4F;"><tspan y="18" x="79" text-anchor="middle" textLength="78">DIN ISO 1629</tspan><tspan y="36" x="79" text-anchor="middle" textLength="121">Rubber and latices –</tspan><tspan y="54" x="79" text-anchor="middle" textLength="87">Nomenclature</tspan></text></g><g transform="translate(-866,197.69631396484374)"><rect x="0" y="0" width="158" height="102" border="1" rx="10" ry="10" style="fill:#E0E0E0;stroke:#707070;stroke-width:1px;"/><text font-family="NotoSans, 'Helvetica Neue', Roboto, Helvetica, Arial, sans-serif" font-size="12" font-weight="bold" lengthAdjust="spacingAndGlyphs" style="fill:#4F4F4F;"><tspan y="18" x="79" text-anchor="middle" textLength="59">ISO 11469</tspan><tspan y="36" x="79" text-anchor="middle" textLength="110">Plastics — Generic</tspan><tspan y="54" x="79" text-anchor="middle" textLength="107">identification and</tspan><tspan y="72" x="79" text-anchor="middle" textLength="115">marking of plastics</tspan><tspan y="90" x="79" text-anchor="middle" textLength="54">products</tspan></text></g><g transform="translate(-866,319.69631396484374)"><rect x="0" y="0" width="158" height="102" border="1" rx="10" ry="10" style="fill:#E0E0E0;stroke:#707070;stroke-width:1px;"/><text font-family="NotoSans, 'Helvetica Neue', Roboto, Helvetica, Arial, sans-serif" font-size="12" font-weight="bold" lengthAdjust="spacingAndGlyphs" style="fill:#4F4F4F;"><tspan y="18" x="79" text-anchor="middle" textLength="59">ISO 18064</tspan><tspan y="36" x="79" text-anchor="middle" textLength="87">Thermoplastic</tspan><tspan y="54" x="79" text-anchor="middle" textLength="83">elastomers —</tspan><tspan y="72" x="79" text-anchor="middle" textLength="113">Nomenclature and</tspan><tspan y="90" x="79" text-anchor="middle" textLength="111">abbreviated terms</tspan></text></g><g transform="translate(-90,-489)"><rect x="0" y="0" width="44" height="30" border="1" rx="10" ry="10" style="fill:#a71930;stroke:#707070;stroke-width:1px;"/><text font-family="NotoSans, 'Helvetica Neue', Roboto, Helvetica, Arial, sans-serif" font-size="12" font-weight="bold" lengthAdjust="spacingAndGlyphs" style="fill:#FFFFFF;"><tspan y="18" x="22" text-anchor="middle" textLength="32">Tools</tspan></text></g><g transform="translate(-26,-717)"><rect x="0" y="0" width="44" height="30" border="1" rx="10" ry="10" style="fill:#E0E0E0;stroke:#707070;stroke-width:1px;"/><text font-family="NotoSans, 'Helvetica Neue', Roboto, Helvetica, Arial, sans-serif" font-size="12" font-weight="bold" lengthAdjust="spacingAndGlyphs" style="fill:#4F4F4F;"><tspan y="18" x="22" text-anchor="middle" textLength="32">IMDS</tspan></text></g><g transform="translate(38,-808.038)"><rect x="0" y="0" width="34" height="30" border="1" rx="10" ry="10" style="fill:#E0E0E0;stroke:#707070;stroke-width:1px;"/><text font-family="NotoSans, 'Helvetica Neue', Roboto, Helvetica, Arial, sans-serif" font-size="12" font-weight="bold" lengthAdjust="spacingAndGlyphs" style="fill:#4F4F4F;"><tspan y="18" x="17" text-anchor="middle" textLength="22">SRE</tspan></text></g><g transform="translate(92,-808.038)"><rect x="0" y="0" width="149" height="30" border="1" rx="10" ry="10" style="fill:#E0E0E0;stroke:#707070;stroke-width:1px;"/><text font-family="NotoSans, 'Helvetica Neue', Roboto, Helvetica, Arial, sans-serif" font-size="12" font-weight="bold" lengthAdjust="spacingAndGlyphs" style="fill:#4F4F4F;"><tspan y="18" x="75" text-anchor="middle" textLength="137">Stoneridge TED [67439]</tspan></text></g><g transform="translate(38,-749.038)"><rect x="0" y="0" width="36" height="30" border="1" rx="10" ry="10" style="fill:#E0E0E0;stroke:#707070;stroke-width:1px;"/><text font-family="NotoSans, 'Helvetica Neue', Roboto, Helvetica, Arial, sans-serif" font-size="12" font-weight="bold" lengthAdjust="spacingAndGlyphs" style="fill:#4F4F4F;"><tspan y="18" x="18" text-anchor="middle" textLength="24">SCD</tspan></text></g><g transform="translate(94,-758.038)"><rect x="0" y="0" width="158" height="48" border="1" rx="10" ry="10" style="fill:#E0E0E0;stroke:#707070;stroke-width:1px;"/><text font-family="NotoSans, 'Helvetica Neue', Roboto, Helvetica, Arial, sans-serif" font-size="12" font-weight="bold" lengthAdjust="spacingAndGlyphs" style="fill:#4F4F4F;"><tspan y="18" x="79" text-anchor="middle" textLength="81">Joseph Pollak</tspan><tspan y="36" x="79" text-anchor="middle" textLength="118">Corporation [11899]</tspan></text></g><g transform="translate(95.21320000000009,-690.038)"><rect x="0" y="0" width="158" height="48" border="1" rx="10" ry="10" style="fill:#E0E0E0;stroke:#707070;stroke-width:1px;"/><text font-family="NotoSans, 'Helvetica Neue', Roboto, Helvetica, Arial, sans-serif" font-size="12" font-weight="bold" lengthAdjust="spacingAndGlyphs" style="fill:#4F4F4F;"><tspan y="18" x="79" text-anchor="middle" textLength="121">Pollak, A Stoneridge</tspan><tspan y="36" x="79" text-anchor="middle" textLength="95">Company [2724]</tspan></text></g><g transform="translate(-26,-622)"><rect x="0" y="0" width="55" height="30" border="1" rx="10" ry="10" style="fill:#E0E0E0;stroke:#707070;stroke-width:1px;"/><text font-family="NotoSans, 'Helvetica Neue', Roboto, Helvetica, Arial, sans-serif" font-size="12" font-weight="bold" lengthAdjust="spacingAndGlyphs" style="fill:#4F4F4F;"><tspan y="18" x="28" text-anchor="middle" textLength="43">CAMDS</tspan></text></g><g transform="translate(-26,-572)"><rect x="0" y="0" width="129" height="30" border="1" rx="10" ry="10" style="fill:#E0E0E0;stroke:#707070;stroke-width:1px;"/><text font-family="NotoSans, 'Helvetica Neue', Roboto, Helvetica, Arial, sans-serif" font-size="12" font-weight="bold" lengthAdjust="spacingAndGlyphs" style="fill:#4F4F4F;"><tspan y="18" x="65" text-anchor="middle" textLength="117">ORACLE JD Edwards</tspan></text></g><g transform="translate(-26,-522)"><rect x="0" y="0" width="136" height="48" border="1" rx="10" ry="10" style="fill:#E0E0E0;stroke:#707070;stroke-width:1px;"/><text font-family="NotoSans, 'Helvetica Neue', Roboto, Helvetica, Arial, sans-serif" font-size="12" font-weight="bold" lengthAdjust="spacingAndGlyphs" style="fill:#4F4F4F;"><tspan y="18" x="68" text-anchor="middle" textLength="47">canweb</tspan><tspan y="36" x="68" text-anchor="middle" textLength="124">http://canweb/view/</tspan></text></g><g transform="translate(-26,-454)"><rect x="0" y="0" width="115" height="30" border="1" rx="10" ry="10" style="fill:#E0E0E0;stroke:#707070;stroke-width:1px;"/><text font-family="NotoSans, 'Helvetica Neue', Roboto, Helvetica, Arial, sans-serif" font-size="12" font-weight="bold" lengthAdjust="spacingAndGlyphs" style="fill:#4F4F4F;"><tspan y="18" x="58" text-anchor="middle" textLength="103">: Component Edit</tspan></text></g><g transform="translate(-26,-404)"><rect x="0" y="0" width="151" height="30" border="1" rx="10" ry="10" style="fill:#E0E0E0;stroke:#707070;stroke-width:1px;"/><text font-family="NotoSans, 'Helvetica Neue', Roboto, Helvetica, Arial, sans-serif" font-size="12" font-weight="bold" lengthAdjust="spacingAndGlyphs" style="fill:#4F4F4F;"><tspan y="18" x="76" text-anchor="middle" textLength="139">ELCID 4.2.1 (2020-03-02)</tspan></text></g><g transform="translate(-26,-261)"><rect x="0" y="0" width="125" height="30" border="1" rx="10" ry="10" style="fill:#E0E0E0;stroke:#707070;stroke-width:1px;"/><text font-family="NotoSans, 'Helvetica Neue', Roboto, Helvetica, Arial, sans-serif" font-size="12" font-weight="bold" lengthAdjust="spacingAndGlyphs" style="fill:#4F4F4F;"><tspan y="18" x="63" text-anchor="middle" textLength="113">Teams/ SharePoint</tspan></text></g><g transform="translate(119,-354)"><rect x="0" y="0" width="94" height="30" border="1" rx="10" ry="10" style="fill:#c5d2e0;stroke:#707070;stroke-width:1px;"/><text font-family="NotoSans, 'Helvetica Neue', Roboto, Helvetica, Arial, sans-serif" font-size="12" font-weight="bold" lengthAdjust="spacingAndGlyphs" style="fill:#a71930;"><tspan y="18" x="47" text-anchor="middle" textLength="82">IMDS – Juarez</tspan></text></g><g transform="translate(233,-354)"><rect x="0" y="0" width="151" height="30" border="1" rx="10" ry="10" style="fill:#c5d2e0;stroke:#707070;stroke-width:1px;"/><text font-family="NotoSans, 'Helvetica Neue', Roboto, Helvetica, Arial, sans-serif" font-size="12" font-weight="bold" lengthAdjust="spacingAndGlyphs" style="fill:#a71930;"><tspan y="18" x="76" text-anchor="middle" textLength="139">Catalog: Company (list)</tspan></text></g><g transform="translate(119,-304)"><rect x="0" y="0" width="96" height="30" border="1" rx="10" ry="10" style="fill:#E0E0E0;stroke:#707070;stroke-width:1px;"/><text font-family="NotoSans, 'Helvetica Neue', Roboto, Helvetica, Arial, sans-serif" font-size="12" font-weight="bold" lengthAdjust="spacingAndGlyphs" style="fill:#4F4F4F;"><tspan y="18" x="48" text-anchor="middle" textLength="84">IMDS Request</tspan></text></g><g transform="translate(119,-254)"><rect x="0" y="0" width="158" height="48" border="1" rx="10" ry="10" style="fill:#E0E0E0;stroke:#707070;stroke-width:1px;"/><text font-family="NotoSans, 'Helvetica Neue', Roboto, Helvetica, Arial, sans-serif" font-size="12" font-weight="bold" lengthAdjust="spacingAndGlyphs" style="fill:#4F4F4F;"><tspan y="18" x="79" text-anchor="middle" textLength="122">Supplier APQP, PPAP</tspan><tspan y="36" x="79" text-anchor="middle" textLength="46">Tracker</tspan></text></g><g transform="translate(119,-186)"><rect x="0" y="0" width="158" height="48" border="1" rx="10" ry="10" style="fill:#E0E0E0;stroke:#707070;stroke-width:1px;"/><text font-family="NotoSans, 'Helvetica Neue', Roboto, Helvetica, Arial, sans-serif" font-size="12" font-weight="bold" lengthAdjust="spacingAndGlyphs" style="fill:#4F4F4F;"><tspan y="18" x="79" text-anchor="middle" textLength="128">Supplier PPAP / APQP</tspan><tspan y="36" x="79" text-anchor="middle" textLength="46">Tracker</tspan></text></g><g transform="translate(-90,36)"><rect x="0" y="0" width="59" height="30" border="1" rx="10" ry="10" style="fill:#a71930;stroke:#707070;stroke-width:1px;"/><text font-family="NotoSans, 'Helvetica Neue', Roboto, Helvetica, Arial, sans-serif" font-size="12" font-weight="bold" lengthAdjust="spacingAndGlyphs" style="fill:#FFFFFF;"><tspan y="18" x="30" text-anchor="middle" textLength="47">Reports</tspan></text></g><g transform="translate(-11,-89)"><rect x="0" y="0" width="125" height="30" border="1" rx="10" ry="10" style="fill:#E0E0E0;stroke:#707070;stroke-width:1px;"/><text font-family="NotoSans, 'Helvetica Neue', Roboto, Helvetica, Arial, sans-serif" font-size="12" font-weight="bold" lengthAdjust="spacingAndGlyphs" style="fill:#4F4F4F;"><tspan y="18" x="63" text-anchor="middle" textLength="113">Teams/ SharePoint</tspan></text></g><g transform="translate(134,-118)"><rect x="0" y="0" width="117" height="30" border="1" rx="10" ry="10" style="fill:#E0E0E0;stroke:#707070;stroke-width:1px;"/><text font-family="NotoSans, 'Helvetica Neue', Roboto, Helvetica, Arial, sans-serif" font-size="12" font-weight="bold" lengthAdjust="spacingAndGlyphs" style="fill:#4F4F4F;"><tspan y="18" x="59" text-anchor="middle" textLength="105">IMDS reports SCD</tspan></text></g><g transform="translate(134,-59)"><rect x="0" y="0" width="116" height="30" border="1" rx="10" ry="10" style="fill:#E0E0E0;stroke:#707070;stroke-width:1px;"/><text font-family="NotoSans, 'Helvetica Neue', Roboto, Helvetica, Arial, sans-serif" font-size="12" font-weight="bold" lengthAdjust="spacingAndGlyphs" style="fill:#4F4F4F;"><tspan y="18" x="58" text-anchor="middle" textLength="104">IMDS reports SRE</tspan></text></g><g transform="translate(270,-68)"><rect x="0" y="0" width="158" height="48" border="1" rx="10" ry="10" style="fill:#E0E0E0;stroke:#707070;stroke-width:1px;"/><text font-family="NotoSans, 'Helvetica Neue', Roboto, Helvetica, Arial, sans-serif" font-size="12" font-weight="bold" lengthAdjust="spacingAndGlyphs" style="fill:#4F4F4F;"><tspan y="18" x="79" text-anchor="middle" textLength="130">International Motors,</tspan><tspan y="36" x="79" text-anchor="middle" textLength="66">LLC 186555</tspan></text></g><g transform="translate(-11,43)"><rect x="0" y="0" width="66" height="30" border="1" rx="10" ry="10" style="fill:#E0E0E0;stroke:#707070;stroke-width:1px;"/><text font-family="NotoSans, 'Helvetica Neue', Roboto, Helvetica, Arial, sans-serif" font-size="12" font-weight="bold" lengthAdjust="spacingAndGlyphs" style="fill:#4F4F4F;"><tspan y="18" x="33" text-anchor="middle" textLength="54">Power BI</tspan></text></g><g transform="translate(75,9)"><rect x="0" y="0" width="116" height="30" border="1" rx="10" ry="10" style="fill:#c5d2e0;stroke:#707070;stroke-width:1px;"/><text font-family="NotoSans, 'Helvetica Neue', Roboto, Helvetica, Arial, sans-serif" font-size="12" font-weight="bold" lengthAdjust="spacingAndGlyphs" style="fill:#a71930;"><tspan y="18" x="58" text-anchor="middle" textLength="104">Workspace: IMDS</tspan></text></g><g transform="translate(211,0)"><rect x="0" y="0" width="158" height="48" border="1" rx="10" ry="10" style="fill:#c5d2e0;stroke:#707070;stroke-width:1px;"/><text font-family="NotoSans, 'Helvetica Neue', Roboto, Helvetica, Arial, sans-serif" font-size="12" font-weight="bold" lengthAdjust="spacingAndGlyphs" style="fill:#a71930;"><tspan y="18" x="79" text-anchor="middle" textLength="114">Report: VoC Report</tspan><tspan y="36" x="79" text-anchor="middle" textLength="83">(quick DRAFT)</tspan></text></g><g transform="translate(75,77)"><rect x="0" y="0" width="94" height="30" border="1" rx="10" ry="10" style="fill:#E0E0E0;stroke:#707070;stroke-width:1px;"/><text font-family="NotoSans, 'Helvetica Neue', Roboto, Helvetica, Arial, sans-serif" font-size="12" font-weight="bold" lengthAdjust="spacingAndGlyphs" style="fill:#4F4F4F;"><tspan y="18" x="47" text-anchor="middle" textLength="82">SRI Inventory</tspan></text></g><g transform="translate(189,68)"><rect x="0" y="0" width="132" height="48" border="1" rx="10" ry="10" style="fill:#E0E0E0;stroke:#707070;stroke-width:1px;"/><text font-family="NotoSans, 'Helvetica Neue', Roboto, Helvetica, Arial, sans-serif" font-size="12" font-weight="bold" lengthAdjust="spacingAndGlyphs" style="fill:#4F4F4F;"><tspan y="18" x="66" text-anchor="middle" textLength="29">PFEP</tspan><tspan y="36" x="66" text-anchor="middle" textLength="120">(Plan for Every Part)</tspan></text></g><g transform="translate(-11,161)"><rect x="0" y="0" width="89" height="30" border="1" rx="10" ry="10" style="fill:#E0E0E0;stroke:#707070;stroke-width:1px;"/><text font-family="NotoSans, 'Helvetica Neue', Roboto, Helvetica, Arial, sans-serif" font-size="12" font-weight="bold" lengthAdjust="spacingAndGlyphs" style="fill:#4F4F4F;"><tspan y="18" x="45" text-anchor="middle" textLength="77">Shared Drive</tspan></text></g><g transform="translate(98,136)"><rect x="0" y="0" width="137" height="30" border="1" rx="10" ry="10" style="fill:#5c7f92;stroke:#707070;stroke-width:1px;"/><text font-family="NotoSans, 'Helvetica Neue', Roboto, Helvetica, Arial, sans-serif" font-size="12" font-weight="bold" lengthAdjust="spacingAndGlyphs" style="fill:#FFFFFF;"><tspan y="18" x="69" text-anchor="middle" textLength="125">SRE Monthly Reports</tspan></text></g><g transform="translate(98,186)"><rect x="0" y="0" width="139" height="30" border="1" rx="10" ry="10" style="fill:#5c7f92;stroke:#707070;stroke-width:1px;"/><text font-family="NotoSans, 'Helvetica Neue', Roboto, Helvetica, Arial, sans-serif" font-size="12" font-weight="bold" lengthAdjust="spacingAndGlyphs" style="fill:#FFFFFF;"><tspan y="18" x="70" text-anchor="middle" textLength="127">SCD Monthly Reports</tspan></text></g><g transform="translate(-333,-917)"><rect x="0" y="0" width="262" height="253" border="1" rx="10" ry="10" style="fill:#FFFFFF;stroke:#707070;stroke-width:1px;"/><image xlink:href="image6.jpg" x="6" y="6" width="250" height="241"/></g></g></svg>