<?xml version="1.0" encoding="UTF-8"?>
<svg xmlns="http://www.w3.org/2000/svg" xmlns:xlink="http://www.w3.org/1999/xlink" width="1532" height="1458.6963139648437"><defs><style type="text/css"><![CDATA[@import url("https://atlas.mindmup.com/_resources/22/fonts.css")]]></style></defs><rect width="100%" height="100%" fill="#FFFFFF"/><g transform="translate(1074,947)" style="fill:none;"><g transform="translate(-279,-243)"><path d="M85,31Q85,313 189,277" stroke="#707070" stroke-width="1" stroke-linecap="round"/></g><g transform="translate(-90,-72)"><path d="M30,106Q30,-21 79,15" stroke="#707070" stroke-width="1" stroke-linecap="round"/></g><g transform="translate(-11,-101)"><path d="M63,44Q63,-6.75 145,15" stroke="#707070" stroke-width="1" stroke-linecap="round"/></g><g transform="translate(-11,-72)"><path d="M63,15Q63,67.5 145,45" stroke="#707070" stroke-width="1" stroke-linecap="round"/></g><g transform="translate(134,-51)"><path d="M106,24L136,24" stroke="#707070" stroke-width="1" stroke-linecap="round"/></g><g transform="translate(-90,19)"><path d="M49,15Q49,22 79,22" stroke="#707070" stroke-width="1" stroke-linecap="round"/></g><g transform="translate(-11,26)"><path d="M56,15L86,15" stroke="#707070" stroke-width="1" stroke-linecap="round"/></g><g transform="translate(75,17)"><path d="M84,24L114,24" stroke="#707070" stroke-width="1" stroke-linecap="round"/></g><g transform="translate(-90,19)"><path d="M30,15Q30,142 79,106" stroke="#707070" stroke-width="1" stroke-linecap="round"/></g><g transform="translate(-11,85)"><path d="M79,40Q79,15 109,15" stroke="#707070" stroke-width="1" stroke-linecap="round"/></g><g transform="translate(-11,110)"><path d="M79,15Q79,40 109,40" stroke="#707070" stroke-width="1" stroke-linecap="round"/></g><g transform="translate(-623,-301.19431103515626)"><path d="M354,89Q354,65 323,65" stroke="#707070" stroke-width="1" stroke-linecap="round"/></g><g transform="translate(-731,-301.19431103515626)"><path d="M118,65Q118,66 88,66" stroke="#707070" stroke-width="1" stroke-linecap="round"/></g><g transform="translate(-355,-243)"><path d="M161,31Q161,279 55,243" stroke="#707070" stroke-width="1" stroke-linecap="round"/></g><g transform="translate(-533,-49.35050000000001)"><path d="M188,49Q188,24 158,24" stroke="#707070" stroke-width="1" stroke-linecap="round"/></g><g transform="translate(-502,-15.350500000000011)"><path d="M175,15Q175,74.5 127,49" stroke="#707070" stroke-width="1" stroke-linecap="round"/></g><g transform="translate(-279,-472)"><path d="M85,260Q85,-21 189,15" stroke="#707070" stroke-width="1" stroke-linecap="round"/></g><g transform="translate(-90,-700)"><path d="M22,243Q22,-21 64,15" stroke="#707070" stroke-width="1" stroke-linecap="round"/></g><g transform="translate(-26,-791.038)"><path d="M22,106Q22,-21 64,15" stroke="#707070" stroke-width="1" stroke-linecap="round"/></g><g transform="translate(38,-791.038)"><path d="M24,15L54,15" stroke="#707070" stroke-width="1" stroke-linecap="round"/></g><g transform="translate(-26,-732.038)"><path d="M22,47Q22,-9 64,15" stroke="#707070" stroke-width="1" stroke-linecap="round"/></g><g transform="translate(38,-741.038)"><path d="M26,24L56,24" stroke="#707070" stroke-width="1" stroke-linecap="round"/></g><g transform="translate(-26,-700)"><path d="M22,15Q22,78 121,51" stroke="#707070" stroke-width="1" stroke-linecap="round"/></g><g transform="translate(-90,-605)"><path d="M22,148Q22,-21 64,15" stroke="#707070" stroke-width="1" stroke-linecap="round"/></g><g transform="translate(-90,-505)"><path d="M34,48Q34,24 64,24" stroke="#707070" stroke-width="1" stroke-linecap="round"/></g><g transform="translate(-90,-472)"><path d="M22,15Q22,136 64,100" stroke="#707070" stroke-width="1" stroke-linecap="round"/></g><g transform="translate(-90,-472)"><path d="M22,15Q22,279 64,243" stroke="#707070" stroke-width="1" stroke-linecap="round"/></g><g transform="translate(-26,-337)"><path d="M63,108Q63,-21 145,15" stroke="#707070" stroke-width="1" stroke-linecap="round"/></g><g transform="translate(119,-337)"><path d="M84,15L114,15" stroke="#707070" stroke-width="1" stroke-linecap="round"/></g><g transform="translate(-26,-287)"><path d="M63,58Q63,-17.25 145,15" stroke="#707070" stroke-width="1" stroke-linecap="round"/></g><g transform="translate(-26,-244)"><path d="M115,15Q115,31 145,31" stroke="#707070" stroke-width="1" stroke-linecap="round"/></g><g transform="translate(-26,-244)"><path d="M63,15Q63,135 145,99" stroke="#707070" stroke-width="1" stroke-linecap="round"/></g><g transform="translate(-90,-555)"><path d="M22,98Q22,-21 64,15" stroke="#707070" stroke-width="1" stroke-linecap="round"/></g><g transform="translate(-90,-472)"><path d="M22,15Q22,76.25 64,50" stroke="#707070" stroke-width="1" stroke-linecap="round"/></g><g transform="translate(-455,-243)"><path d="M261,31Q261,503 155,467" stroke="#707070" stroke-width="1" stroke-linecap="round"/></g><g transform="translate(-688,190.69631396484374)"><path d="M243,33L213,33" stroke="#707070" stroke-width="1" stroke-linecap="round"/></g><g transform="translate(-866,-34.30368603515626)"><path d="M285,258Q285,-46.19999999999999 158,33" stroke="#707070" stroke-width="1" stroke-linecap="round"/></g><g transform="translate(-1044,-154.30368603515626)"><path d="M257,153Q257,-37.19999999999999 158,42" stroke="#707070" stroke-width="1" stroke-linecap="round"/></g><g transform="translate(-1044,-50.30368603515626)"><path d="M188,49Q188,33 158,33" stroke="#707070" stroke-width="1" stroke-linecap="round"/></g><g transform="translate(-966,-34.30368603515626)"><path d="M179,33Q179,139.75 80,94" stroke="#707070" stroke-width="1" stroke-linecap="round"/></g><g transform="translate(-1002,-34.30368603515626)"><path d="M215,33Q215,219.6 116,162" stroke="#707070" stroke-width="1" stroke-linecap="round"/></g><g transform="translate(-866,171.69631396484374)"><path d="M188,52Q188,33 158,33" stroke="#707070" stroke-width="1" stroke-linecap="round"/></g><g transform="translate(-866,190.69631396484374)"><path d="M285,33Q285,181.75 158,118" stroke="#707070" stroke-width="1" stroke-linecap="round"/></g><g transform="translate(-866,190.69631396484374)"><path d="M285,33Q285,319.2 158,240" stroke="#707070" stroke-width="1" stroke-linecap="round"/></g><g transform="translate(-354,-435.19431103515626)"><path d="M160,223Q160,-21 54,15" stroke="#707070" stroke-width="1" stroke-linecap="round"/></g><g transform="translate(-532,-519.1943110351563)"><path d="M205,99Q205,-12 158,24" stroke="#707070" stroke-width="1" stroke-linecap="round"/></g><g transform="translate(-606,-519.1943110351563)"><path d="M84,24L54,24" stroke="#707070" stroke-width="1" stroke-linecap="round"/></g><g transform="translate(-532,-435.19431103515626)"><path d="M188,15Q188,24 158,24" stroke="#707070" stroke-width="1" stroke-linecap="round"/></g><g transform="translate(-606,-451.19431103515626)"><path d="M84,40Q84,15 54,15" stroke="#707070" stroke-width="1" stroke-linecap="round"/></g><g transform="translate(-608,-435.19431103515626)"><path d="M86,24Q86,49 56,49" stroke="#707070" stroke-width="1" stroke-linecap="round"/></g><g transform="translate(-505,-435.19431103515626)"><path d="M178,15Q178,135 131,99" stroke="#707070" stroke-width="1" stroke-linecap="round"/></g><g transform="translate(-579,-351.19431103515626)"><path d="M84,15L54,15" stroke="#707070" stroke-width="1" stroke-linecap="round"/></g><g transform="translate(-424,-243)"><path d="M230,31Q230,170 124,134" stroke="#707070" stroke-width="1" stroke-linecap="round"/></g><g transform="translate(-551,-149.3505)"><path d="M137,40Q137,15 107,15" stroke="#707070" stroke-width="1" stroke-linecap="round"/></g><g transform="translate(-520,-124.35050000000001)"><path d="M106,15Q106,40 76,40" stroke="#707070" stroke-width="1" stroke-linecap="round"/></g><g transform="translate(-532,-435.19431103515626)"><path d="M158,24L802,408" stroke-dasharray="4, 4" stroke="#c60c30" stroke-width="1"/><path d="M793,397L802,408L788,406Z" fill="#c60c30" stroke="#c60c30" stroke-width="1"/></g><g transform="translate(-11,26)"><path d="M109,74L66,15" stroke-dasharray="4, 4" stroke="#c60c30" stroke-width="1"/><path d="M70,28L66,15L78,23Z" fill="#c60c30" stroke="#c60c30" stroke-width="1"/></g><g transform="translate(-11,26)"><path d="M109,124L66,15" stroke-dasharray="4, 4" stroke="#c60c30" stroke-width="1"/><path d="M66,29L66,15L75,25Z" fill="#c60c30" stroke="#c60c30" stroke-width="1"/></g><g transform="translate(-623,-301.19431103515626)"><path d="M179,167L162,131" stroke-dasharray="4, 4" stroke="#c60c30" stroke-width="1"/><path d="M163,145L162,131L172,141Z" fill="#c60c30" stroke="#c60c30" stroke-width="1"/></g><g transform="translate(-354,-435.19431103515626)"><path d="M473,113L54,15" stroke-dasharray="4, 4" stroke="#c60c30" stroke-width="1"/><path d="M66,23L54,15L68,13Z" fill="#c60c30" stroke="#c60c30" stroke-width="1"/></g><g transform="translate(-623,-337)"><path d="M742,15L323,102" stroke-dasharray="4, 4" stroke="#c60c30" stroke-width="1"/><path d="M337,104L323,102L335,94Z" fill="#c60c30" stroke="#c60c30" stroke-width="1"/></g><g transform="translate(-455,-337)"><path d="M574,15L155,561" stroke-dasharray="4, 4" stroke="#c60c30" stroke-width="1"/><path d="M167,553L155,561L159,547Z" fill="#c60c30" stroke="#c60c30" stroke-width="1"/></g><g transform="translate(-279,-243)"><rect x="0" y="0" width="169" height="62" border="1" rx="10" ry="10" style="fill:#000000;stroke:#707070;stroke-width:1px;"/><image xlink:href="image1.png" x="6" y="6" width="50" height="50"/><text font-family="NotoSans, 'Helvetica Neue', Roboto, Helvetica, Arial, sans-serif" font-size="15" font-weight="bold" lengthAdjust="spacingAndGlyphs" style="fill:#FFFFFF;"><tspan y="35" x="112" text-anchor="middle" textLength="102">IMDS – Juárez</tspan></text></g><g transform="translate(-354,-435.19431103515626)"><rect x="0" y="0" width="54" height="30" border="1" rx="10" ry="10" style="fill:#a71930;stroke:#707070;stroke-width:1px;"/><text font-family="NotoSans, 'Helvetica Neue', Roboto, Helvetica, Arial, sans-serif" font-size="12" font-weight="bold" lengthAdjust="spacingAndGlyphs" style="fill:#FFFFFF;"><tspan y="18" x="27" text-anchor="middle" textLength="42">Clients</tspan></text></g><g transform="translate(-532,-519.1943110351563)"><rect x="0" y="0" width="158" height="48" border="1" rx="10" ry="10" style="fill:#E0E0E0;stroke:#707070;stroke-width:1px;"/><text font-family="NotoSans, 'Helvetica Neue', Roboto, Helvetica, Arial, sans-serif" font-size="12" font-weight="bold" lengthAdjust="spacingAndGlyphs" style="fill:#4F4F4F;"><tspan y="18" x="79" text-anchor="middle" textLength="105">Daimler Truck AG</tspan><tspan y="36" x="79" text-anchor="middle" textLength="50">[205311]</tspan></text></g><g transform="translate(-606,-510.19431103515626)"><rect x="0" y="0" width="54" height="30" border="1" rx="10" ry="10" style="fill:#E0E0E0;stroke:#707070;stroke-width:1px;"/><text font-family="NotoSans, 'Helvetica Neue', Roboto, Helvetica, Arial, sans-serif" font-size="12" font-weight="bold" lengthAdjust="spacingAndGlyphs" style="fill:#4F4F4F;"><tspan y="18" x="27" text-anchor="middle" textLength="42">MDS: #</tspan></text></g><g transform="translate(-532,-435.19431103515626)"><rect x="0" y="0" width="158" height="48" border="1" rx="10" ry="10" style="fill:#E0E0E0;stroke:#707070;stroke-width:1px;"/><text font-family="NotoSans, 'Helvetica Neue', Roboto, Helvetica, Arial, sans-serif" font-size="12" font-weight="bold" lengthAdjust="spacingAndGlyphs" style="fill:#4F4F4F;"><tspan y="18" x="79" text-anchor="middle" textLength="130">International Motors,</tspan><tspan y="36" x="79" text-anchor="middle" textLength="74">LLC [186555]</tspan></text></g><g transform="translate(-606,-451.19431103515626)"><rect x="0" y="0" width="54" height="30" border="1" rx="10" ry="10" style="fill:#E0E0E0;stroke:#707070;stroke-width:1px;"/><text font-family="NotoSans, 'Helvetica Neue', Roboto, Helvetica, Arial, sans-serif" font-size="12" font-weight="bold" lengthAdjust="spacingAndGlyphs" style="fill:#4F4F4F;"><tspan y="18" x="27" text-anchor="middle" textLength="42">MDS: #</tspan></text></g><g transform="translate(-608,-401.19431103515626)"><rect x="0" y="0" width="56" height="30" border="1" rx="10" ry="10" style="fill:#E0E0E0;stroke:#707070;stroke-width:1px;"/><text font-family="NotoSans, 'Helvetica Neue', Roboto, Helvetica, Arial, sans-serif" font-size="12" font-weight="bold" lengthAdjust="spacingAndGlyphs" style="fill:#4F4F4F;"><tspan y="18" x="28" text-anchor="middle" textLength="44">PFAS: #</tspan></text></g><g transform="translate(-505,-351.19431103515626)"><rect x="0" y="0" width="131" height="30" border="1" rx="10" ry="10" style="fill:#E0E0E0;stroke:#707070;stroke-width:1px;"/><text font-family="NotoSans, 'Helvetica Neue', Roboto, Helvetica, Arial, sans-serif" font-size="12" font-weight="bold" lengthAdjust="spacingAndGlyphs" style="fill:#4F4F4F;"><tspan y="18" x="66" text-anchor="middle" textLength="119">Volvo Group [46569]</tspan></text></g><g transform="translate(-579,-351.19431103515626)"><rect x="0" y="0" width="54" height="30" border="1" rx="10" ry="10" style="fill:#E0E0E0;stroke:#707070;stroke-width:1px;"/><text font-family="NotoSans, 'Helvetica Neue', Roboto, Helvetica, Arial, sans-serif" font-size="12" font-weight="bold" lengthAdjust="spacingAndGlyphs" style="fill:#4F4F4F;"><tspan y="18" x="27" text-anchor="middle" textLength="42">MDS: #</tspan></text></g><g transform="translate(-623,-301.19431103515626)"><rect x="0" y="0" width="323" height="131" border="1" rx="10" ry="10" style="fill:#a71930;stroke:#707070;stroke-width:1px;"/><image xlink:href="image2.png" x="6" y="6" width="250" height="119"/><text font-family="NotoSans, 'Helvetica Neue', Roboto, Helvetica, Arial, sans-serif" font-size="12" font-weight="bold" lengthAdjust="spacingAndGlyphs" style="fill:#FFFFFF;"><tspan y="69" x="289" text-anchor="middle" textLength="56">Suppliers</tspan></text></g><g transform="translate(-731,-250.19431103515626)"><rect x="0" y="0" width="88" height="30" border="1" rx="10" ry="10" style="fill:#E0E0E0;stroke:#707070;stroke-width:1px;"/><text font-family="NotoSans, 'Helvetica Neue', Roboto, Helvetica, Arial, sans-serif" font-size="12" font-weight="bold" lengthAdjust="spacingAndGlyphs" style="fill:#4F4F4F;"><tspan y="18" x="44" text-anchor="middle" textLength="76">Components</tspan></text></g><g transform="translate(-424,-124.35050000000001)"><rect x="0" y="0" width="124" height="30" border="1" rx="10" ry="10" style="fill:#a71930;stroke:#707070;stroke-width:1px;"/><text font-family="NotoSans, 'Helvetica Neue', Roboto, Helvetica, Arial, sans-serif" font-size="12" font-weight="bold" lengthAdjust="spacingAndGlyphs" style="fill:#FFFFFF;"><tspan y="18" x="62" text-anchor="middle" textLength="112">Support from/ to...</tspan></text></g><g transform="translate(-551,-149.3505)"><rect x="0" y="0" width="107" height="30" border="1" rx="10" ry="10" style="fill:#E0E0E0;stroke:#707070;stroke-width:1px;"/><text font-family="NotoSans, 'Helvetica Neue', Roboto, Helvetica, Arial, sans-serif" font-size="12" font-weight="bold" lengthAdjust="spacingAndGlyphs" style="fill:#4F4F4F;"><tspan y="18" x="54" text-anchor="middle" textLength="95">from: SQM/ SQE</tspan></text></g><g transform="translate(-520,-99.35050000000001)"><rect x="0" y="0" width="76" height="30" border="1" rx="10" ry="10" style="fill:#E0E0E0;stroke:#707070;stroke-width:1px;"/><text font-family="NotoSans, 'Helvetica Neue', Roboto, Helvetica, Arial, sans-serif" font-size="12" font-weight="bold" lengthAdjust="spacingAndGlyphs" style="fill:#4F4F4F;"><tspan y="18" x="38" text-anchor="middle" textLength="64">to: Quality</tspan></text></g><g transform="translate(-355,-15.350500000000011)"><rect x="0" y="0" width="55" height="30" border="1" rx="10" ry="10" style="fill:#a71930;stroke:#707070;stroke-width:1px;"/><text font-family="NotoSans, 'Helvetica Neue', Roboto, Helvetica, Arial, sans-serif" font-size="12" font-weight="bold" lengthAdjust="spacingAndGlyphs" style="fill:#FFFFFF;"><tspan y="18" x="28" text-anchor="middle" textLength="43">Portals</tspan></text></g><g transform="translate(-533,-49.35050000000001)"><rect x="0" y="0" width="158" height="48" border="1" rx="10" ry="10" style="fill:#E0E0E0;stroke:#707070;stroke-width:1px;"/><text font-family="NotoSans, 'Helvetica Neue', Roboto, Helvetica, Arial, sans-serif" font-size="12" font-weight="bold" lengthAdjust="spacingAndGlyphs" style="fill:#4F4F4F;"><tspan y="18" x="79" text-anchor="middle" textLength="76">STELLANTIS/</tspan><tspan y="36" x="79" text-anchor="middle" textLength="106">eSupplierConnect</tspan></text></g><g transform="translate(-502,18.64949999999999)"><rect x="0" y="0" width="127" height="30" border="1" rx="10" ry="10" style="fill:#E0E0E0;stroke:#707070;stroke-width:1px;"/><text font-family="NotoSans, 'Helvetica Neue', Roboto, Helvetica, Arial, sans-serif" font-size="12" font-weight="bold" lengthAdjust="spacingAndGlyphs" style="fill:#4F4F4F;"><tspan y="18" x="64" text-anchor="middle" textLength="115">OpenText/ Covisint</tspan></text></g><g transform="translate(-455,208.69631396484374)"><rect x="0" y="0" width="155" height="30" border="1" rx="10" ry="10" style="fill:#a71930;stroke:#707070;stroke-width:1px;"/><text font-family="NotoSans, 'Helvetica Neue', Roboto, Helvetica, Arial, sans-serif" font-size="12" font-weight="bold" lengthAdjust="spacingAndGlyphs" style="fill:#FFFFFF;"><tspan y="18" x="78" text-anchor="middle" textLength="143">Documents/ References</tspan></text></g><g transform="translate(-688,190.69631396484374)"><rect x="0" y="0" width="213" height="66" border="1" rx="10" ry="10" style="fill:#E0E0E0;stroke:#707070;stroke-width:1px;"/><image xlink:href="image6.png" x="157" y="10" width="50" height="47"/><text font-family="NotoSans, 'Helvetica Neue', Roboto, Helvetica, Arial, sans-serif" font-size="12" font-weight="bold" lengthAdjust="spacingAndGlyphs" style="fill:#4F4F4F;"><tspan y="18" x="79" text-anchor="middle" textLength="81">International</tspan><tspan y="36" x="79" text-anchor="middle" textLength="100">Organization for</tspan><tspan y="54" x="79" text-anchor="middle" textLength="96">Standardization</tspan></text></g><g transform="translate(-866,-34.30368603515626)"><rect x="0" y="0" width="158" height="66" border="1" rx="10" ry="10" style="fill:#E0E0E0;stroke:#707070;stroke-width:1px;"/><text font-family="NotoSans, 'Helvetica Neue', Roboto, Helvetica, Arial, sans-serif" font-size="12" font-weight="bold" lengthAdjust="spacingAndGlyphs" style="fill:#4F4F4F;"><tspan y="18" x="79" text-anchor="middle" textLength="52">ISO 1043</tspan><tspan y="36" x="79" text-anchor="middle" textLength="140">Plastics — Symbols and</tspan><tspan y="54" x="79" text-anchor="middle" textLength="111">abbreviated terms</tspan></text></g><g transform="translate(-1044,-154.30368603515626)"><rect x="0" y="0" width="158" height="84" border="1" rx="10" ry="10" style="fill:#E0E0E0;stroke:#707070;stroke-width:1px;"/><text font-family="NotoSans, 'Helvetica Neue', Roboto, Helvetica, Arial, sans-serif" font-size="12" font-weight="bold" lengthAdjust="spacingAndGlyphs" style="fill:#4F4F4F;"><tspan y="18" x="79" text-anchor="middle" textLength="39">Part 1:</tspan><tspan y="36" x="79" text-anchor="middle" textLength="116">Basic polymers and</tspan><tspan y="54" x="79" text-anchor="middle" textLength="74">their special</tspan><tspan y="72" x="79" text-anchor="middle" textLength="89">characteristics</tspan></text></g><g transform="translate(-1044,-50.30368603515626)"><rect x="0" y="0" width="158" height="66" border="1" rx="10" ry="10" style="fill:#E0E0E0;stroke:#707070;stroke-width:1px;"/><text font-family="NotoSans, 'Helvetica Neue', Roboto, Helvetica, Arial, sans-serif" font-size="12" font-weight="bold" lengthAdjust="spacingAndGlyphs" style="fill:#4F4F4F;"><tspan y="18" x="79" text-anchor="middle" textLength="39">Part 2:</tspan><tspan y="36" x="79" text-anchor="middle" textLength="132">Fillers and reinforcing</tspan><tspan y="54" x="79" text-anchor="middle" textLength="58">materials</tspan></text></g><g transform="translate(-966,35.69631396484374)"><rect x="0" y="0" width="80" height="48" border="1" rx="10" ry="10" style="fill:#E0E0E0;stroke:#707070;stroke-width:1px;"/><text font-family="NotoSans, 'Helvetica Neue', Roboto, Helvetica, Arial, sans-serif" font-size="12" font-weight="bold" lengthAdjust="spacingAndGlyphs" style="fill:#4F4F4F;"><tspan y="18" x="40" text-anchor="middle" textLength="39">Part 3:</tspan><tspan y="36" x="40" text-anchor="middle" textLength="68">Plasticizers</tspan></text></g><g transform="translate(-1002,103.69631396484374)"><rect x="0" y="0" width="116" height="48" border="1" rx="10" ry="10" style="fill:#E0E0E0;stroke:#707070;stroke-width:1px;"/><text font-family="NotoSans, 'Helvetica Neue', Roboto, Helvetica, Arial, sans-serif" font-size="12" font-weight="bold" lengthAdjust="spacingAndGlyphs" style="fill:#4F4F4F;"><tspan y="18" x="58" text-anchor="middle" textLength="39">Part 4:</tspan><tspan y="36" x="58" text-anchor="middle" textLength="104">Flame retardants</tspan></text></g><g transform="translate(-866,171.69631396484374)"><rect x="0" y="0" width="158" height="66" border="1" rx="10" ry="10" style="fill:#E0E0E0;stroke:#707070;stroke-width:1px;"/><text font-family="NotoSans, 'Helvetica Neue', Roboto, Helvetica, Arial, sans-serif" font-size="12" font-weight="bold" lengthAdjust="spacingAndGlyphs" style="fill:#4F4F4F;"><tspan y="18" x="79" text-anchor="middle" textLength="78">DIN ISO 1629</tspan><tspan y="36" x="79" text-anchor="middle" textLength="121">Rubber and latices –</tspan><tspan y="54" x="79" text-anchor="middle" textLength="87">Nomenclature</tspan></text></g><g transform="translate(-866,257.69631396484374)"><rect x="0" y="0" width="158" height="102" border="1" rx="10" ry="10" style="fill:#E0E0E0;stroke:#707070;stroke-width:1px;"/><text font-family="NotoSans, 'Helvetica Neue', Roboto, Helvetica, Arial, sans-serif" font-size="12" font-weight="bold" lengthAdjust="spacingAndGlyphs" style="fill:#4F4F4F;"><tspan y="18" x="79" text-anchor="middle" textLength="59">ISO 11469</tspan><tspan y="36" x="79" text-anchor="middle" textLength="110">Plastics — Generic</tspan><tspan y="54" x="79" text-anchor="middle" textLength="107">identification and</tspan><tspan y="72" x="79" text-anchor="middle" textLength="115">marking of plastics</tspan><tspan y="90" x="79" text-anchor="middle" textLength="54">products</tspan></text></g><g transform="translate(-866,379.69631396484374)"><rect x="0" y="0" width="158" height="102" border="1" rx="10" ry="10" style="fill:#E0E0E0;stroke:#707070;stroke-width:1px;"/><text font-family="NotoSans, 'Helvetica Neue', Roboto, Helvetica, Arial, sans-serif" font-size="12" font-weight="bold" lengthAdjust="spacingAndGlyphs" style="fill:#4F4F4F;"><tspan y="18" x="79" text-anchor="middle" textLength="59">ISO 18064</tspan><tspan y="36" x="79" text-anchor="middle" textLength="87">Thermoplastic</tspan><tspan y="54" x="79" text-anchor="middle" textLength="83">elastomers —</tspan><tspan y="72" x="79" text-anchor="middle" textLength="113">Nomenclature and</tspan><tspan y="90" x="79" text-anchor="middle" textLength="111">abbreviated terms</tspan></text></g><g transform="translate(-90,-472)"><rect x="0" y="0" width="44" height="30" border="1" rx="10" ry="10" style="fill:#a71930;stroke:#707070;stroke-width:1px;"/><text font-family="NotoSans, 'Helvetica Neue', Roboto, Helvetica, Arial, sans-serif" font-size="12" font-weight="bold" lengthAdjust="spacingAndGlyphs" style="fill:#FFFFFF;"><tspan y="18" x="22" text-anchor="middle" textLength="32">Tools</tspan></text></g><g transform="translate(-26,-700)"><rect x="0" y="0" width="44" height="30" border="1" rx="10" ry="10" style="fill:#E0E0E0;stroke:#707070;stroke-width:1px;"/><text font-family="NotoSans, 'Helvetica Neue', Roboto, Helvetica, Arial, sans-serif" font-size="12" font-weight="bold" lengthAdjust="spacingAndGlyphs" style="fill:#4F4F4F;"><tspan y="18" x="22" text-anchor="middle" textLength="32">IMDS</tspan></text></g><g transform="translate(38,-791.038)"><rect x="0" y="0" width="34" height="30" border="1" rx="10" ry="10" style="fill:#E0E0E0;stroke:#707070;stroke-width:1px;"/><text font-family="NotoSans, 'Helvetica Neue', Roboto, Helvetica, Arial, sans-serif" font-size="12" font-weight="bold" lengthAdjust="spacingAndGlyphs" style="fill:#4F4F4F;"><tspan y="18" x="17" text-anchor="middle" textLength="22">SRE</tspan></text></g><g transform="translate(92,-791.038)"><rect x="0" y="0" width="149" height="30" border="1" rx="10" ry="10" style="fill:#E0E0E0;stroke:#707070;stroke-width:1px;"/><text font-family="NotoSans, 'Helvetica Neue', Roboto, Helvetica, Arial, sans-serif" font-size="12" font-weight="bold" lengthAdjust="spacingAndGlyphs" style="fill:#4F4F4F;"><tspan y="18" x="75" text-anchor="middle" textLength="137">Stoneridge TED [67439]</tspan></text></g><g transform="translate(38,-732.038)"><rect x="0" y="0" width="36" height="30" border="1" rx="10" ry="10" style="fill:#E0E0E0;stroke:#707070;stroke-width:1px;"/><text font-family="NotoSans, 'Helvetica Neue', Roboto, Helvetica, Arial, sans-serif" font-size="12" font-weight="bold" lengthAdjust="spacingAndGlyphs" style="fill:#4F4F4F;"><tspan y="18" x="18" text-anchor="middle" textLength="24">SCD</tspan></text></g><g transform="translate(94,-741.038)"><rect x="0" y="0" width="158" height="48" border="1" rx="10" ry="10" style="fill:#E0E0E0;stroke:#707070;stroke-width:1px;"/><text font-family="NotoSans, 'Helvetica Neue', Roboto, Helvetica, Arial, sans-serif" font-size="12" font-weight="bold" lengthAdjust="spacingAndGlyphs" style="fill:#4F4F4F;"><tspan y="18" x="79" text-anchor="middle" textLength="81">Joseph Pollak</tspan><tspan y="36" x="79" text-anchor="middle" textLength="118">Corporation [11899]</tspan></text></g><g transform="translate(95.21320000000009,-673.038)"><rect x="0" y="0" width="158" height="48" border="1" rx="10" ry="10" style="fill:#E0E0E0;stroke:#707070;stroke-width:1px;"/><text font-family="NotoSans, 'Helvetica Neue', Roboto, Helvetica, Arial, sans-serif" font-size="12" font-weight="bold" lengthAdjust="spacingAndGlyphs" style="fill:#4F4F4F;"><tspan y="18" x="79" text-anchor="middle" textLength="121">Pollak, A Stoneridge</tspan><tspan y="36" x="79" text-anchor="middle" textLength="95">Company [2724]</tspan></text></g><g transform="translate(-26,-605)"><rect x="0" y="0" width="55" height="30" border="1" rx="10" ry="10" style="fill:#E0E0E0;stroke:#707070;stroke-width:1px;"/><text font-family="NotoSans, 'Helvetica Neue', Roboto, Helvetica, Arial, sans-serif" font-size="12" font-weight="bold" lengthAdjust="spacingAndGlyphs" style="fill:#4F4F4F;"><tspan y="18" x="28" text-anchor="middle" textLength="43">CAMDS</tspan></text></g><g transform="translate(-26,-555)"><rect x="0" y="0" width="129" height="30" border="1" rx="10" ry="10" style="fill:#E0E0E0;stroke:#707070;stroke-width:1px;"/><text font-family="NotoSans, 'Helvetica Neue', Roboto, Helvetica, Arial, sans-serif" font-size="12" font-weight="bold" lengthAdjust="spacingAndGlyphs" style="fill:#4F4F4F;"><tspan y="18" x="65" text-anchor="middle" textLength="117">ORACLE JD Edwards</tspan></text></g><g transform="translate(-26,-505)"><rect x="0" y="0" width="136" height="48" border="1" rx="10" ry="10" style="fill:#E0E0E0;stroke:#707070;stroke-width:1px;"/><text font-family="NotoSans, 'Helvetica Neue', Roboto, Helvetica, Arial, sans-serif" font-size="12" font-weight="bold" lengthAdjust="spacingAndGlyphs" style="fill:#4F4F4F;"><tspan y="18" x="68" text-anchor="middle" textLength="47">canweb</tspan><tspan y="36" x="68" text-anchor="middle" textLength="124">http://canweb/view/</tspan></text></g><g transform="translate(-26,-437)"><rect x="0" y="0" width="115" height="30" border="1" rx="10" ry="10" style="fill:#E0E0E0;stroke:#707070;stroke-width:1px;"/><text font-family="NotoSans, 'Helvetica Neue', Roboto, Helvetica, Arial, sans-serif" font-size="12" font-weight="bold" lengthAdjust="spacingAndGlyphs" style="fill:#4F4F4F;"><tspan y="18" x="58" text-anchor="middle" textLength="103">: Component Edit</tspan></text></g><g transform="translate(-26,-387)"><rect x="0" y="0" width="151" height="30" border="1" rx="10" ry="10" style="fill:#E0E0E0;stroke:#707070;stroke-width:1px;"/><text font-family="NotoSans, 'Helvetica Neue', Roboto, Helvetica, Arial, sans-serif" font-size="12" font-weight="bold" lengthAdjust="spacingAndGlyphs" style="fill:#4F4F4F;"><tspan y="18" x="76" text-anchor="middle" textLength="139">ELCID 4.2.1 (2020-03-02)</tspan></text></g><g transform="translate(-26,-244)"><rect x="0" y="0" width="125" height="30" border="1" rx="10" ry="10" style="fill:#E0E0E0;stroke:#707070;stroke-width:1px;"/><text font-family="NotoSans, 'Helvetica Neue', Roboto, Helvetica, Arial, sans-serif" font-size="12" font-weight="bold" lengthAdjust="spacingAndGlyphs" style="fill:#4F4F4F;"><tspan y="18" x="63" text-anchor="middle" textLength="113">Teams/ SharePoint</tspan></text></g><g transform="translate(119,-337)"><rect x="0" y="0" width="94" height="30" border="1" rx="10" ry="10" style="fill:#c5d2e0;stroke:#707070;stroke-width:1px;"/><text font-family="NotoSans, 'Helvetica Neue', Roboto, Helvetica, Arial, sans-serif" font-size="12" font-weight="bold" lengthAdjust="spacingAndGlyphs" style="fill:#a71930;"><tspan y="18" x="47" text-anchor="middle" textLength="82">IMDS – Juarez</tspan></text></g><g transform="translate(233,-337)"><rect x="0" y="0" width="151" height="30" border="1" rx="10" ry="10" style="fill:#c5d2e0;stroke:#707070;stroke-width:1px;"/><text font-family="NotoSans, 'Helvetica Neue', Roboto, Helvetica, Arial, sans-serif" font-size="12" font-weight="bold" lengthAdjust="spacingAndGlyphs" style="fill:#a71930;"><tspan y="18" x="76" text-anchor="middle" textLength="139">Catalog: Company (list)</tspan></text></g><g transform="translate(119,-287)"><rect x="0" y="0" width="96" height="30" border="1" rx="10" ry="10" style="fill:#E0E0E0;stroke:#707070;stroke-width:1px;"/><text font-family="NotoSans, 'Helvetica Neue', Roboto, Helvetica, Arial, sans-serif" font-size="12" font-weight="bold" lengthAdjust="spacingAndGlyphs" style="fill:#4F4F4F;"><tspan y="18" x="48" text-anchor="middle" textLength="84">IMDS Request</tspan></text></g><g transform="translate(119,-237)"><rect x="0" y="0" width="158" height="48" border="1" rx="10" ry="10" style="fill:#E0E0E0;stroke:#707070;stroke-width:1px;"/><text font-family="NotoSans, 'Helvetica Neue', Roboto, Helvetica, Arial, sans-serif" font-size="12" font-weight="bold" lengthAdjust="spacingAndGlyphs" style="fill:#4F4F4F;"><tspan y="18" x="79" text-anchor="middle" textLength="122">Supplier APQP, PPAP</tspan><tspan y="36" x="79" text-anchor="middle" textLength="46">Tracker</tspan></text></g><g transform="translate(119,-169)"><rect x="0" y="0" width="158" height="48" border="1" rx="10" ry="10" style="fill:#E0E0E0;stroke:#707070;stroke-width:1px;"/><text font-family="NotoSans, 'Helvetica Neue', Roboto, Helvetica, Arial, sans-serif" font-size="12" font-weight="bold" lengthAdjust="spacingAndGlyphs" style="fill:#4F4F4F;"><tspan y="18" x="79" text-anchor="middle" textLength="128">Supplier PPAP / APQP</tspan><tspan y="36" x="79" text-anchor="middle" textLength="46">Tracker</tspan></text></g><g transform="translate(-90,19)"><rect x="0" y="0" width="59" height="30" border="1" rx="10" ry="10" style="fill:#a71930;stroke:#707070;stroke-width:1px;"/><text font-family="NotoSans, 'Helvetica Neue', Roboto, Helvetica, Arial, sans-serif" font-size="12" font-weight="bold" lengthAdjust="spacingAndGlyphs" style="fill:#FFFFFF;"><tspan y="18" x="30" text-anchor="middle" textLength="47">Reports</tspan></text></g><g transform="translate(-11,-72)"><rect x="0" y="0" width="125" height="30" border="1" rx="10" ry="10" style="fill:#E0E0E0;stroke:#707070;stroke-width:1px;"/><text font-family="NotoSans, 'Helvetica Neue', Roboto, Helvetica, Arial, sans-serif" font-size="12" font-weight="bold" lengthAdjust="spacingAndGlyphs" style="fill:#4F4F4F;"><tspan y="18" x="63" text-anchor="middle" textLength="113">Teams/ SharePoint</tspan></text></g><g transform="translate(134,-101)"><rect x="0" y="0" width="117" height="30" border="1" rx="10" ry="10" style="fill:#E0E0E0;stroke:#707070;stroke-width:1px;"/><text font-family="NotoSans, 'Helvetica Neue', Roboto, Helvetica, Arial, sans-serif" font-size="12" font-weight="bold" lengthAdjust="spacingAndGlyphs" style="fill:#4F4F4F;"><tspan y="18" x="59" text-anchor="middle" textLength="105">IMDS reports SCD</tspan></text></g><g transform="translate(134,-42)"><rect x="0" y="0" width="116" height="30" border="1" rx="10" ry="10" style="fill:#E0E0E0;stroke:#707070;stroke-width:1px;"/><text font-family="NotoSans, 'Helvetica Neue', Roboto, Helvetica, Arial, sans-serif" font-size="12" font-weight="bold" lengthAdjust="spacingAndGlyphs" style="fill:#4F4F4F;"><tspan y="18" x="58" text-anchor="middle" textLength="104">IMDS reports SRE</tspan></text></g><g transform="translate(270,-51)"><rect x="0" y="0" width="158" height="48" border="1" rx="10" ry="10" style="fill:#E0E0E0;stroke:#707070;stroke-width:1px;"/><text font-family="NotoSans, 'Helvetica Neue', Roboto, Helvetica, Arial, sans-serif" font-size="12" font-weight="bold" lengthAdjust="spacingAndGlyphs" style="fill:#4F4F4F;"><tspan y="18" x="79" text-anchor="middle" textLength="130">International Motors,</tspan><tspan y="36" x="79" text-anchor="middle" textLength="66">LLC 186555</tspan></text></g><g transform="translate(-11,26)"><rect x="0" y="0" width="66" height="30" border="1" rx="10" ry="10" style="fill:#E0E0E0;stroke:#707070;stroke-width:1px;"/><text font-family="NotoSans, 'Helvetica Neue', Roboto, Helvetica, Arial, sans-serif" font-size="12" font-weight="bold" lengthAdjust="spacingAndGlyphs" style="fill:#4F4F4F;"><tspan y="18" x="33" text-anchor="middle" textLength="54">Power BI</tspan></text></g><g transform="translate(75,26)"><rect x="0" y="0" width="94" height="30" border="1" rx="10" ry="10" style="fill:#E0E0E0;stroke:#707070;stroke-width:1px;"/><text font-family="NotoSans, 'Helvetica Neue', Roboto, Helvetica, Arial, sans-serif" font-size="12" font-weight="bold" lengthAdjust="spacingAndGlyphs" style="fill:#4F4F4F;"><tspan y="18" x="47" text-anchor="middle" textLength="82">SRI Inventory</tspan></text></g><g transform="translate(189,17)"><rect x="0" y="0" width="132" height="48" border="1" rx="10" ry="10" style="fill:#E0E0E0;stroke:#707070;stroke-width:1px;"/><text font-family="NotoSans, 'Helvetica Neue', Roboto, Helvetica, Arial, sans-serif" font-size="12" font-weight="bold" lengthAdjust="spacingAndGlyphs" style="fill:#4F4F4F;"><tspan y="18" x="66" text-anchor="middle" textLength="29">PFEP</tspan><tspan y="36" x="66" text-anchor="middle" textLength="120">(Plan for Every Part)</tspan></text></g><g transform="translate(-11,110)"><rect x="0" y="0" width="89" height="30" border="1" rx="10" ry="10" style="fill:#E0E0E0;stroke:#707070;stroke-width:1px;"/><text font-family="NotoSans, 'Helvetica Neue', Roboto, Helvetica, Arial, sans-serif" font-size="12" font-weight="bold" lengthAdjust="spacingAndGlyphs" style="fill:#4F4F4F;"><tspan y="18" x="45" text-anchor="middle" textLength="77">Shared Drive</tspan></text></g><g transform="translate(98,85)"><rect x="0" y="0" width="137" height="30" border="1" rx="10" ry="10" style="fill:#5c7f92;stroke:#707070;stroke-width:1px;"/><text font-family="NotoSans, 'Helvetica Neue', Roboto, Helvetica, Arial, sans-serif" font-size="12" font-weight="bold" lengthAdjust="spacingAndGlyphs" style="fill:#FFFFFF;"><tspan y="18" x="69" text-anchor="middle" textLength="125">SRE Monthly Reports</tspan></text></g><g transform="translate(98,135)"><rect x="0" y="0" width="139" height="30" border="1" rx="10" ry="10" style="fill:#5c7f92;stroke:#707070;stroke-width:1px;"/><text font-family="NotoSans, 'Helvetica Neue', Roboto, Helvetica, Arial, sans-serif" font-size="12" font-weight="bold" lengthAdjust="spacingAndGlyphs" style="fill:#FFFFFF;"><tspan y="18" x="70" text-anchor="middle" textLength="127">SCD Monthly Reports</tspan></text></g><g transform="translate(-333,-917)"><rect x="0" y="0" width="262" height="253" border="1" rx="10" ry="10" style="fill:#FFFFFF;stroke:#707070;stroke-width:1px;"/><image xlink:href="image7.jpg" x="6" y="6" width="250" height="241"/></g></g></svg>