<?xml version="1.0" encoding="UTF-8"?>
<svg xmlns="http://www.w3.org/2000/svg" xmlns:xlink="http://www.w3.org/1999/xlink" width="1585" height="1701.5096695895195"><defs><style type="text/css"><![CDATA[@import url("https://atlas.mindmup.com/_resources/22/fonts.css")]]></style></defs><rect width="100%" height="100%" fill="#FFFFFF"/><g transform="translate(872,1032)" style="fill:none;"><g transform="translate(-279,-151)"><path d="M122,38Q122,582.6 264,525" stroke="#707070" stroke-width="1" stroke-linecap="round"/></g><g transform="translate(-15,123.50966958951949)"><path d="M50,250Q50,-33.60000000000002 120,24" stroke="#707070" stroke-width="1" stroke-linecap="round"/></g><g transform="translate(105,101.50966958951949)"><path d="M156,46Q156,18 186,18" stroke="#707070" stroke-width="1" stroke-linecap="round"/></g><g transform="translate(105,123.50966958951949)"><path d="M156,24Q156,52 186,52" stroke="#707070" stroke-width="1" stroke-linecap="round"/></g><g transform="translate(-15,349.5096695895195)"><path d="M90,24Q90,52 120,52" stroke="#707070" stroke-width="1" stroke-linecap="round"/></g><g transform="translate(105,377.5096695895195)"><path d="M54,24Q54,104.5 127,70" stroke="#707070" stroke-width="1" stroke-linecap="round"/></g><g transform="translate(232,423.5096695895195)"><path d="M125,24L155,24" stroke="#707070" stroke-width="1" stroke-linecap="round"/></g><g transform="translate(105,377.5096695895195)"><path d="M54,24Q54,195.6 127,138" stroke="#707070" stroke-width="1" stroke-linecap="round"/></g><g transform="translate(232,491.5096695895195)"><path d="M145,24L175,24" stroke="#707070" stroke-width="1" stroke-linecap="round"/></g><g transform="translate(105,264.5096695895195)"><path d="M54,137Q54,-21.599999999999994 127,36" stroke="#707070" stroke-width="1" stroke-linecap="round"/></g><g transform="translate(232,213.89354458951948)"><path d="M91,87Q91,-23.25 201,24" stroke="#707070" stroke-width="1" stroke-linecap="round"/></g><g transform="translate(232,264.5096695895195)"><path d="M171,36Q171,50 201,50" stroke="#707070" stroke-width="1" stroke-linecap="round"/></g><g transform="translate(232,264.5096695895195)"><path d="M91,36Q91,164.2 201,121" stroke="#707070" stroke-width="1" stroke-linecap="round"/></g><g transform="translate(-15,349.5096695895195)"><path d="M50,24Q50,307.6 120,250" stroke="#707070" stroke-width="1" stroke-linecap="round"/></g><g transform="translate(105,559.5096695895195)"><path d="M120,40Q120,15 150,15" stroke="#707070" stroke-width="1" stroke-linecap="round"/></g><g transform="translate(105,575.5096695895195)"><path d="M120,24Q120,49 150,49" stroke="#707070" stroke-width="1" stroke-linecap="round"/></g><g transform="translate(-408,-215)"><path d="M251,102Q251,-33.599999999999994 109,24" stroke="#707070" stroke-width="1" stroke-linecap="round"/></g><g transform="translate(-545,-215)"><path d="M147,24L117,24" stroke="#707070" stroke-width="1" stroke-linecap="round"/></g><g transform="translate(-395,-151)"><path d="M238,38Q238,365.6 96,308" stroke="#707070" stroke-width="1" stroke-linecap="round"/></g><g transform="translate(-573,57.671875)"><path d="M226,99Q226,-32.25 158,24" stroke="#707070" stroke-width="1" stroke-linecap="round"/></g><g transform="translate(-542,125.671875)"><path d="M157,31Q157,15 127,15" stroke="#707070" stroke-width="1" stroke-linecap="round"/></g><g transform="translate(-675,125.671875)"><path d="M143,15L113,15" stroke="#707070" stroke-width="1" stroke-linecap="round"/></g><g transform="translate(-468,132.671875)"><path d="M121,24Q121,144 53,108" stroke="#707070" stroke-width="1" stroke-linecap="round"/></g><g transform="translate(-501,132.671875)"><path d="M116,24Q116,58 86,58" stroke="#707070" stroke-width="1" stroke-linecap="round"/></g><g transform="translate(-279,-465.4903304104805)"><path d="M122,352Q122,-33.60000000000002 264,24" stroke="#707070" stroke-width="1" stroke-linecap="round"/></g><g transform="translate(-15,-799.4903304104805)"><path d="M43,358Q43,-33.60000000000002 105,24" stroke="#707070" stroke-width="1" stroke-linecap="round"/></g><g transform="translate(90,-875.7783304104805)"><path d="M43,101Q43,-21 105,15" stroke="#707070" stroke-width="1" stroke-linecap="round"/></g><g transform="translate(195,-884.7783304104805)"><path d="M129,24L159,24" stroke="#707070" stroke-width="1" stroke-linecap="round"/></g><g transform="translate(90,-816.7783304104805)"><path d="M75,42Q75,15 105,15" stroke="#707070" stroke-width="1" stroke-linecap="round"/></g><g transform="translate(195,-816.7783304104805)"><path d="M99,15L129,15" stroke="#707070" stroke-width="1" stroke-linecap="round"/></g><g transform="translate(90,-799.4903304104805)"><path d="M75,24Q75,56 105,56" stroke="#707070" stroke-width="1" stroke-linecap="round"/></g><g transform="translate(-15,-698.4903304104805)"><path d="M43,257Q43,-21 105,15" stroke="#707070" stroke-width="1" stroke-linecap="round"/></g><g transform="translate(-15,-598.4903304104805)"><path d="M43,157Q43,-33.599999999999994 105,24" stroke="#707070" stroke-width="1" stroke-linecap="round"/></g><g transform="translate(-15,-465.4903304104805)"><path d="M75,24Q75,50 105,50" stroke="#707070" stroke-width="1" stroke-linecap="round"/></g><g transform="translate(-15,-465.4903304104805)"><path d="M43,24Q43,175.6 105,118" stroke="#707070" stroke-width="1" stroke-linecap="round"/></g><g transform="translate(-15,-465.4903304104805)"><path d="M43,24Q43,416.6 105,359" stroke="#707070" stroke-width="1" stroke-linecap="round"/></g><g transform="translate(90,-294.4903304104805)"><path d="M83,188Q83,-33.599999999999994 186,24" stroke="#707070" stroke-width="1" stroke-linecap="round"/></g><g transform="translate(276,-294.4903304104805)"><path d="M174,24L204,24" stroke="#707070" stroke-width="1" stroke-linecap="round"/></g><g transform="translate(276,-294.4903304104805)"><path d="M92,24Q92,143 204,92" stroke="#707070" stroke-width="1" stroke-linecap="round"/></g><g transform="translate(276,-294.4903304104805)"><path d="M92,24Q92,217.6 204,160" stroke="#707070" stroke-width="1" stroke-linecap="round"/></g><g transform="translate(276,-430.4903304104805)"><path d="M92,160Q92,-33.599999999999994 204,24" stroke="#707070" stroke-width="1" stroke-linecap="round"/></g><g transform="translate(276,-362.4903304104805)"><path d="M92,92Q92,-27 204,24" stroke="#707070" stroke-width="1" stroke-linecap="round"/></g><g transform="translate(90,-130.4903304104805)"><path d="M156,24Q156,58 186,58" stroke="#707070" stroke-width="1" stroke-linecap="round"/></g><g transform="translate(90,-130.4903304104805)"><path d="M83,24Q83,177.6 186,120" stroke="#707070" stroke-width="1" stroke-linecap="round"/></g><g transform="translate(90,-130.4903304104805)"><path d="M83,24Q83,245.6 186,188" stroke="#707070" stroke-width="1" stroke-linecap="round"/></g><g transform="translate(-15,-648.4903304104805)"><path d="M43,207Q43,-21 105,15" stroke="#707070" stroke-width="1" stroke-linecap="round"/></g><g transform="translate(-15,-480.4903304104805)"><path d="M75,39Q75,15 105,15" stroke="#707070" stroke-width="1" stroke-linecap="round"/></g><g transform="translate(-15,-530.4903304104805)"><path d="M43,89Q43,-21 105,15" stroke="#707070" stroke-width="1" stroke-linecap="round"/></g><g transform="translate(-495,-151)"><path d="M338,38Q338,582.6 196,525" stroke="#707070" stroke-width="1" stroke-linecap="round"/></g><g transform="translate(-664,340.671875)"><path d="M179,33L149,33" stroke="#707070" stroke-width="1" stroke-linecap="round"/></g><g transform="translate(-842,175.671875)"><path d="M253,198Q253,-46.19999999999999 158,33" stroke="#707070" stroke-width="1" stroke-linecap="round"/></g><g transform="translate(-842,261.671875)"><path d="M253,112Q253,-26.25 158,33" stroke="#707070" stroke-width="1" stroke-linecap="round"/></g><g transform="translate(-842,340.671875)"><path d="M188,33Q188,58 158,58" stroke="#707070" stroke-width="1" stroke-linecap="round"/></g><g transform="translate(-842,340.671875)"><path d="M253,33Q253,259.2 158,180" stroke="#707070" stroke-width="1" stroke-linecap="round"/></g><g transform="translate(-468.81249618530273,-640.7187900543214)"><path d="M312,528Q312,-33.60000000000002 167,24" stroke="#707070" stroke-width="1" stroke-linecap="round"/></g><g transform="translate(-646.8124961853027,-828.7187900543214)"><path d="M262,212Q262,-33.599999999999994 158,24" stroke="#707070" stroke-width="1" stroke-linecap="round"/></g><g transform="translate(-646.8124961853027,-681.7187900543214)"><path d="M262,65Q262,-6.75 158,24" stroke="#707070" stroke-width="1" stroke-linecap="round"/></g><g transform="translate(-789.8124961853027,-760.7187900543214)"><path d="M222,103Q222,12 123,51" stroke="#707070" stroke-width="1" stroke-linecap="round"/></g><g transform="translate(-796.8124961853027,-681.7187900543214)"><path d="M229,24Q229,130.75 130,85" stroke="#707070" stroke-width="1" stroke-linecap="round"/></g><g transform="translate(-619.8124961853027,-640.7187900543214)"><path d="M235,24Q235,157 131,121" stroke="#707070" stroke-width="1" stroke-linecap="round"/></g><g transform="translate(-583.8124961853027,-640.7187900543214)"><path d="M199,24Q199,318 95,282" stroke="#707070" stroke-width="1" stroke-linecap="round"/></g><g transform="translate(-621.8124961853027,-640.7187900543214)"><path d="M237,24Q237,268 133,232" stroke="#707070" stroke-width="1" stroke-linecap="round"/></g><g transform="translate(-464,-151)"><path d="M195,38Q195,55 165,55" stroke="#707070" stroke-width="1" stroke-linecap="round"/></g><g transform="translate(-591,-136.3125)"><path d="M137,40Q137,15 107,15" stroke="#707070" stroke-width="1" stroke-linecap="round"/></g><g transform="translate(-622,-120.3125)"><path d="M168,24Q168,49 138,49" stroke="#707070" stroke-width="1" stroke-linecap="round"/></g><g transform="translate(-591,-215)"><path d="M107,94L183,24" stroke-dasharray="4, 4" stroke="#c60c30" stroke-width="1"/><path d="M170,29L183,24L177,36Z" fill="#c60c30" stroke="#c60c30" stroke-width="1"/></g><g transform="translate(-468.81249618530273,-640.7187900543214)"><path d="M745,370L167,24" stroke-dasharray="4, 4" stroke="#c60c30" stroke-width="1"/><path d="M176,35L167,24L181,27Z" fill="#c60c30" stroke="#c60c30" stroke-width="1"/></g><g transform="translate(-408,-294.4903304104805)"><path d="M684,24L109,103" stroke-dasharray="4, 4" stroke="#c60c30" stroke-width="1"/><path d="M123,106L109,103L121,97Z" fill="#c60c30" stroke="#c60c30" stroke-width="1"/></g><g transform="translate(-495,-294.4903304104805)"><path d="M771,24L196,668" stroke-dasharray="4, 4" stroke="#c60c30" stroke-width="1"/><path d="M208,662L196,668L201,655Z" fill="#c60c30" stroke="#c60c30" stroke-width="1"/></g><g transform="translate(-545,-209)"><path d="M932,657L117,18" stroke-dasharray="4, 4" stroke="#c60c30" stroke-width="1"/><path d="M124,30L117,18L130,22Z" fill="#c60c30" stroke="#c60c30" stroke-width="1"/></g><g transform="translate(-408,-215)"><path d="M815,731L109,24" stroke-dasharray="4, 4" stroke="#c60c30" stroke-width="1"/><path d="M115,37L109,24L122,30Z" fill="#c60c30" stroke="#c60c30" stroke-width="1"/></g><g transform="translate(255,367.8935445895195)"><path d="M137,207L178,18" stroke-dasharray="4, 4" stroke="#c60c30" stroke-width="1"/><path d="M171,30L178,18L180,32Z" fill="#c60c30" stroke="#c60c30" stroke-width="1"/></g><g transform="translate(255,367.8935445895195)"><path d="M139,257L178,18" stroke-dasharray="4, 4" stroke="#c60c30" stroke-width="1"/><path d="M171,30L178,18L181,32Z" fill="#c60c30" stroke="#c60c30" stroke-width="1"/></g><g transform="translate(480,-430.4903304104805)"><path d="M72,48L94,68" stroke-dasharray="4, 4" stroke="#c60c30" stroke-width="1"/><path d="M87,56L94,68L81,63Z" fill="#c60c30" stroke="#c60c30" stroke-width="1"/></g><g transform="translate(-796.8124961853027,-760.7187900543214)"><path d="M69,102L65,122" stroke-dasharray="4, 4" stroke="#c60c30" stroke-width="1"/><path d="M72,110L65,122L63,108Z" fill="#c60c30" stroke="#c60c30" stroke-width="1"/></g><g transform="translate(-796.8124961853027,-638.7187900543214)"><path d="M1277,300L130,42" stroke-dasharray="4, 4" stroke="#c60c30" stroke-width="1"/><path d="M142,50L130,42L144,40Z" fill="#c60c30" stroke="#c60c30" stroke-width="1"/></g><g transform="translate(-796.8124961853027,-638.7187900543214)"><path d="M1230,1025L130,42" stroke-dasharray="4, 4" stroke="#c60c30" stroke-width="1"/><path d="M137,54L130,42L143,47Z" fill="#c60c30" stroke="#c60c30" stroke-width="1"/></g><g transform="translate(-279,-151)"><rect x="0" y="0" width="244" height="76" border="1" rx="10" ry="10" style="fill:#000000;stroke:#707070;stroke-width:1px;"/><image xlink:href="image1.png" x="6" y="6" width="64" height="64"/><text font-family="NotoSans, 'Helvetica Neue', Roboto, Helvetica, Arial, sans-serif" font-size="15" font-weight="bold" lengthAdjust="spacingAndGlyphs" style="fill:#FFFFFF;"><tspan y="42" x="157" text-anchor="middle" textLength="163">IMDS – Juarez, Mexico</tspan></text></g><g transform="translate(-468.81249618530273,-640.7187900543214)"><rect x="0" y="0" width="167" height="48" border="1" rx="10" ry="10" style="fill:#a71930;stroke:#707070;stroke-width:1px;"/><image xlink:href="image29.png" x="125" y="6" width="36" height="36"/><text font-family="NotoSans, 'Helvetica Neue', Roboto, Helvetica, Arial, sans-serif" font-size="12" font-weight="bold" lengthAdjust="spacingAndGlyphs" style="fill:#FFFFFF;"><tspan y="27" x="63" text-anchor="middle" textLength="114">Clients/ Customers</tspan></text></g><g transform="translate(-646.8124961853027,-828.7187900543214)"><rect x="0" y="0" width="158" height="48" border="1" rx="10" ry="10" style="fill:#E0E0E0;stroke:#707070;stroke-width:1px;"/><text font-family="NotoSans, 'Helvetica Neue', Roboto, Helvetica, Arial, sans-serif" font-size="12" font-weight="bold" lengthAdjust="spacingAndGlyphs" style="fill:#4F4F4F;"><tspan y="18" x="79" text-anchor="middle" textLength="105">Daimler Truck AG</tspan><tspan y="36" x="79" text-anchor="middle" textLength="50">[205311]</tspan></text></g><g transform="translate(-646.8124961853027,-681.7187900543214)"><rect x="0" y="0" width="158" height="48" border="1" rx="10" ry="10" style="fill:#E0E0E0;stroke:#707070;stroke-width:1px;"/><text font-family="NotoSans, 'Helvetica Neue', Roboto, Helvetica, Arial, sans-serif" font-size="12" font-weight="bold" lengthAdjust="spacingAndGlyphs" style="fill:#4F4F4F;"><tspan y="18" x="79" text-anchor="middle" textLength="130">International Motors,</tspan><tspan y="36" x="79" text-anchor="middle" textLength="74">LLC [186555]</tspan></text></g><g transform="translate(-789.8124961853027,-760.7187900543214)"><rect x="0" y="0" width="123" height="102" border="1" rx="10" ry="10" style="fill:#E0E0E0;stroke:#707070;stroke-width:1px;"/><image xlink:href="image32.png" x="93" y="39" width="24" height="24"/><text font-family="NotoSans, 'Helvetica Neue', Roboto, Helvetica, Arial, sans-serif" font-size="12" font-weight="bold" lengthAdjust="spacingAndGlyphs" style="fill:#4F4F4F;"><tspan y="18" x="88" text-anchor="end" textLength="82">accepted: 579</tspan><tspan y="36" x="88" text-anchor="end" textLength="63">rejected: 0</tspan><tspan y="54" x="88" text-anchor="end" textLength="74">in process: 0</tspan><tspan y="72" x="88" text-anchor="end" textLength="77">pending: 267</tspan><tspan y="90" x="88" text-anchor="end" textLength="56">total: 846</tspan></text></g><g transform="translate(-796.8124961853027,-638.7187900543214)"><rect x="0" y="0" width="130" height="84" border="1" rx="10" ry="10" style="fill:#E0E0E0;stroke:#707070;stroke-width:1px;"/><image xlink:href="image33.png" x="92" y="26" width="32" height="32"/><text font-family="NotoSans, 'Helvetica Neue', Roboto, Helvetica, Arial, sans-serif" font-size="12" font-weight="bold" lengthAdjust="spacingAndGlyphs" style="fill:#4F4F4F;"><tspan y="18" x="87" text-anchor="end" textLength="47">sent: 60</tspan><tspan y="36" x="87" text-anchor="end" textLength="81">in process: 97</tspan><tspan y="54" x="87" text-anchor="end" textLength="77">pending: 689</tspan><tspan y="72" x="87" text-anchor="end" textLength="56">total: 846</tspan></text></g><g transform="translate(-619.8124961853027,-534.7187900543214)"><rect x="0" y="0" width="131" height="30" border="1" rx="10" ry="10" style="fill:#E0E0E0;stroke:#707070;stroke-width:1px;"/><text font-family="NotoSans, 'Helvetica Neue', Roboto, Helvetica, Arial, sans-serif" font-size="12" font-weight="bold" lengthAdjust="spacingAndGlyphs" style="fill:#4F4F4F;"><tspan y="18" x="66" text-anchor="middle" textLength="119">Volvo Group [46569]</tspan></text></g><g transform="translate(-621.8124961853027,-423.75675)"><rect x="0" y="0" width="133" height="30" border="1" rx="10" ry="10" style="fill:#E0E0E0;stroke:#707070;stroke-width:1px;"/><text font-family="NotoSans, 'Helvetica Neue', Roboto, Helvetica, Arial, sans-serif" font-size="12" font-weight="bold" lengthAdjust="spacingAndGlyphs" style="fill:#4F4F4F;"><tspan y="18" x="67" text-anchor="middle" textLength="121">PACCAR Inc [152663]</tspan></text></g><g transform="translate(-583.8124961853027,-373.75675)"><rect x="0" y="0" width="95" height="30" border="1" rx="10" ry="10" style="fill:#E0E0E0;stroke:#707070;stroke-width:1px;"/><text font-family="NotoSans, 'Helvetica Neue', Roboto, Helvetica, Arial, sans-serif" font-size="12" font-weight="bold" lengthAdjust="spacingAndGlyphs" style="fill:#4F4F4F;"><tspan y="18" x="48" text-anchor="middle" textLength="83">BMW AG [103]</tspan></text></g><g transform="translate(-408,-215)"><rect x="0" y="0" width="109" height="48" border="1" rx="10" ry="10" style="fill:#a71930;stroke:#707070;stroke-width:1px;"/><image xlink:href="image38.png" x="67" y="6" width="36" height="36"/><text font-family="NotoSans, 'Helvetica Neue', Roboto, Helvetica, Arial, sans-serif" font-size="12" font-weight="bold" lengthAdjust="spacingAndGlyphs" style="fill:#FFFFFF;"><tspan y="27" x="34" text-anchor="middle" textLength="56">Suppliers</tspan></text></g><g transform="translate(-545,-209)"><rect x="0" y="0" width="117" height="36" border="1" rx="10" ry="10" style="fill:#E0E0E0;stroke:#707070;stroke-width:1px;"/><image xlink:href="image39.png" x="87" y="6" width="24" height="24"/><text font-family="NotoSans, 'Helvetica Neue', Roboto, Helvetica, Arial, sans-serif" font-size="12" font-weight="bold" lengthAdjust="spacingAndGlyphs" style="fill:#4F4F4F;"><tspan y="21" x="44" text-anchor="middle" textLength="76">Components</tspan></text></g><g transform="translate(-464,-120.3125)"><rect x="0" y="0" width="165" height="48" border="1" rx="10" ry="10" style="fill:#a71930;stroke:#707070;stroke-width:1px;"/><image xlink:href="image40.png" x="123" y="6" width="36" height="36"/><text font-family="NotoSans, 'Helvetica Neue', Roboto, Helvetica, Arial, sans-serif" font-size="12" font-weight="bold" lengthAdjust="spacingAndGlyphs" style="fill:#FFFFFF;"><tspan y="27" x="62" text-anchor="middle" textLength="112">Support from/ to...</tspan></text></g><g transform="translate(-591,-136.3125)"><rect x="0" y="0" width="107" height="30" border="1" rx="10" ry="10" style="fill:#E0E0E0;stroke:#707070;stroke-width:1px;"/><text font-family="NotoSans, 'Helvetica Neue', Roboto, Helvetica, Arial, sans-serif" font-size="12" font-weight="bold" lengthAdjust="spacingAndGlyphs" style="fill:#4F4F4F;"><tspan y="18" x="54" text-anchor="middle" textLength="95">from: SQM/ SQE</tspan></text></g><g transform="translate(-622,-86.3125)"><rect x="0" y="0" width="138" height="30" border="1" rx="10" ry="10" style="fill:#E0E0E0;stroke:#707070;stroke-width:1px;"/><text font-family="NotoSans, 'Helvetica Neue', Roboto, Helvetica, Arial, sans-serif" font-size="12" font-weight="bold" lengthAdjust="spacingAndGlyphs" style="fill:#4F4F4F;"><tspan y="18" x="69" text-anchor="middle" textLength="126">to: Advanced Quality</tspan></text></g><g transform="translate(-395,132.671875)"><rect x="0" y="0" width="96" height="48" border="1" rx="10" ry="10" style="fill:#a71930;stroke:#707070;stroke-width:1px;"/><image xlink:href="image41.png" x="54" y="6" width="36" height="36"/><text font-family="NotoSans, 'Helvetica Neue', Roboto, Helvetica, Arial, sans-serif" font-size="12" font-weight="bold" lengthAdjust="spacingAndGlyphs" style="fill:#FFFFFF;"><tspan y="27" x="28" text-anchor="middle" textLength="43">Portals</tspan></text></g><g transform="translate(-573,57.671875)"><rect x="0" y="0" width="158" height="48" border="1" rx="10" ry="10" style="fill:#E0E0E0;stroke:#707070;stroke-width:1px;"/><text font-family="NotoSans, 'Helvetica Neue', Roboto, Helvetica, Arial, sans-serif" font-size="12" font-weight="bold" lengthAdjust="spacingAndGlyphs" style="fill:#4F4F4F;"><tspan y="18" x="79" text-anchor="middle" textLength="76">STELLANTIS/</tspan><tspan y="36" x="79" text-anchor="middle" textLength="106">eSupplierConnect</tspan></text></g><g transform="translate(-542,125.671875)"><rect x="0" y="0" width="127" height="30" border="1" rx="10" ry="10" style="fill:#E0E0E0;stroke:#707070;stroke-width:1px;"/><text font-family="NotoSans, 'Helvetica Neue', Roboto, Helvetica, Arial, sans-serif" font-size="12" font-weight="bold" lengthAdjust="spacingAndGlyphs" style="fill:#4F4F4F;"><tspan y="18" x="64" text-anchor="middle" textLength="115">OpenText/ Covisint</tspan></text></g><g transform="translate(-675,125.671875)"><rect x="0" y="0" width="113" height="30" border="1" rx="10" ry="10" style="fill:#E0E0E0;stroke:#707070;stroke-width:1px;"/><text font-family="NotoSans, 'Helvetica Neue', Roboto, Helvetica, Arial, sans-serif" font-size="12" font-weight="bold" lengthAdjust="spacingAndGlyphs" style="fill:#4F4F4F;"><tspan y="18" x="57" text-anchor="middle" textLength="101">GM SupplyPower</tspan></text></g><g transform="translate(-501,175.671875)"><rect x="0" y="0" width="86" height="30" border="1" rx="10" ry="10" style="fill:#E0E0E0;stroke:#707070;stroke-width:1px;"/><text font-family="NotoSans, 'Helvetica Neue', Roboto, Helvetica, Arial, sans-serif" font-size="12" font-weight="bold" lengthAdjust="spacingAndGlyphs" style="fill:#4F4F4F;"><tspan y="18" x="43" text-anchor="middle" textLength="74">DTNA Portal</tspan></text></g><g transform="translate(-468,225.671875)"><rect x="0" y="0" width="53" height="30" border="1" rx="10" ry="10" style="fill:#E0E0E0;stroke:#707070;stroke-width:1px;"/><text font-family="NotoSans, 'Helvetica Neue', Roboto, Helvetica, Arial, sans-serif" font-size="12" font-weight="bold" lengthAdjust="spacingAndGlyphs" style="fill:#4F4F4F;"><tspan y="18" x="27" text-anchor="middle" textLength="41">Assent</tspan></text></g><g transform="translate(-495,349.671875)"><rect x="0" y="0" width="196" height="48" border="1" rx="10" ry="10" style="fill:#a71930;stroke:#707070;stroke-width:1px;"/><image xlink:href="image42.png" x="154" y="6" width="36" height="36"/><text font-family="NotoSans, 'Helvetica Neue', Roboto, Helvetica, Arial, sans-serif" font-size="12" font-weight="bold" lengthAdjust="spacingAndGlyphs" style="fill:#FFFFFF;"><tspan y="27" x="78" text-anchor="middle" textLength="143">Documents/ References</tspan></text></g><g transform="translate(-664,340.671875)"><rect x="0" y="0" width="149" height="66" border="1" rx="10" ry="10" style="fill:#E0E0E0;stroke:#707070;stroke-width:1px;"/><image xlink:href="image43.png" x="111" y="17" width="32" height="32"/><text font-family="NotoSans, 'Helvetica Neue', Roboto, Helvetica, Arial, sans-serif" font-size="12" font-weight="bold" lengthAdjust="spacingAndGlyphs" style="fill:#4F4F4F;"><tspan y="18" x="56" text-anchor="middle" textLength="81">International</tspan><tspan y="36" x="56" text-anchor="middle" textLength="100">Organization for</tspan><tspan y="54" x="56" text-anchor="middle" textLength="96">Standardization</tspan></text></g><g transform="translate(-842,175.671875)"><rect x="0" y="0" width="158" height="66" border="1" rx="10" ry="10" style="fill:#E0E0E0;stroke:#707070;stroke-width:1px;"/><text font-family="NotoSans, 'Helvetica Neue', Roboto, Helvetica, Arial, sans-serif" font-size="12" font-weight="bold" lengthAdjust="spacingAndGlyphs" style="fill:#4F4F4F;"><tspan y="18" x="79" text-anchor="middle" textLength="52">ISO 1043</tspan><tspan y="36" x="79" text-anchor="middle" textLength="140">Plastics — Symbols and</tspan><tspan y="54" x="79" text-anchor="middle" textLength="111">abbreviated terms</tspan></text></g><g transform="translate(-842,261.671875)"><rect x="0" y="0" width="158" height="66" border="1" rx="10" ry="10" style="fill:#E0E0E0;stroke:#707070;stroke-width:1px;"/><text font-family="NotoSans, 'Helvetica Neue', Roboto, Helvetica, Arial, sans-serif" font-size="12" font-weight="bold" lengthAdjust="spacingAndGlyphs" style="fill:#4F4F4F;"><tspan y="18" x="79" text-anchor="middle" textLength="78">DIN ISO 1629</tspan><tspan y="36" x="79" text-anchor="middle" textLength="121">Rubber and latices –</tspan><tspan y="54" x="79" text-anchor="middle" textLength="87">Nomenclature</tspan></text></g><g transform="translate(-842,347.671875)"><rect x="0" y="0" width="158" height="102" border="1" rx="10" ry="10" style="fill:#E0E0E0;stroke:#707070;stroke-width:1px;"/><text font-family="NotoSans, 'Helvetica Neue', Roboto, Helvetica, Arial, sans-serif" font-size="12" font-weight="bold" lengthAdjust="spacingAndGlyphs" style="fill:#4F4F4F;"><tspan y="18" x="79" text-anchor="middle" textLength="59">ISO 11469</tspan><tspan y="36" x="79" text-anchor="middle" textLength="110">Plastics — Generic</tspan><tspan y="54" x="79" text-anchor="middle" textLength="107">identification and</tspan><tspan y="72" x="79" text-anchor="middle" textLength="115">marking of plastics</tspan><tspan y="90" x="79" text-anchor="middle" textLength="54">products</tspan></text></g><g transform="translate(-842,469.671875)"><rect x="0" y="0" width="158" height="102" border="1" rx="10" ry="10" style="fill:#E0E0E0;stroke:#707070;stroke-width:1px;"/><text font-family="NotoSans, 'Helvetica Neue', Roboto, Helvetica, Arial, sans-serif" font-size="12" font-weight="bold" lengthAdjust="spacingAndGlyphs" style="fill:#4F4F4F;"><tspan y="18" x="79" text-anchor="middle" textLength="59">ISO 18064</tspan><tspan y="36" x="79" text-anchor="middle" textLength="87">Thermoplastic</tspan><tspan y="54" x="79" text-anchor="middle" textLength="83">elastomers —</tspan><tspan y="72" x="79" text-anchor="middle" textLength="113">Nomenclature and</tspan><tspan y="90" x="79" text-anchor="middle" textLength="111">abbreviated terms</tspan></text></g><g transform="translate(-15,-465.4903304104805)"><rect x="0" y="0" width="85" height="48" border="1" rx="10" ry="10" style="fill:#a71930;stroke:#707070;stroke-width:1px;"/><image xlink:href="image2.png" x="6" y="6" width="36" height="36"/><text font-family="NotoSans, 'Helvetica Neue', Roboto, Helvetica, Arial, sans-serif" font-size="12" font-weight="bold" lengthAdjust="spacingAndGlyphs" style="fill:#FFFFFF;"><tspan y="27" x="63" text-anchor="middle" textLength="32">Tools</tspan></text></g><g transform="translate(90,-799.4903304104805)"><rect x="0" y="0" width="85" height="48" border="1" rx="10" ry="10" style="fill:#E0E0E0;stroke:#707070;stroke-width:1px;"/><image xlink:href="image3.png" x="6" y="6" width="36" height="36"/><text font-family="NotoSans, 'Helvetica Neue', Roboto, Helvetica, Arial, sans-serif" font-size="12" font-weight="bold" lengthAdjust="spacingAndGlyphs" style="fill:#4F4F4F;"><tspan y="27" x="63" text-anchor="middle" textLength="32">IMDS</tspan></text></g><g transform="translate(195,-875.7783304104805)"><rect x="0" y="0" width="139" height="30" border="1" rx="10" ry="10" style="fill:#E0E0E0;stroke:#707070;stroke-width:1px;"/><text font-family="NotoSans, 'Helvetica Neue', Roboto, Helvetica, Arial, sans-serif" font-size="12" font-weight="bold" lengthAdjust="spacingAndGlyphs" style="fill:#4F4F4F;"><tspan y="18" x="70" text-anchor="middle" textLength="127">SCD - Control Devices</tspan></text></g><g transform="translate(354,-884.7783304104805)"><rect x="0" y="0" width="158" height="48" border="1" rx="10" ry="10" style="fill:#E0E0E0;stroke:#707070;stroke-width:1px;"/><text font-family="NotoSans, 'Helvetica Neue', Roboto, Helvetica, Arial, sans-serif" font-size="12" font-weight="bold" lengthAdjust="spacingAndGlyphs" style="fill:#4F4F4F;"><tspan y="18" x="79" text-anchor="middle" textLength="81">Joseph Pollak</tspan><tspan y="36" x="79" text-anchor="middle" textLength="118">Corporation [11899]</tspan></text></g><g transform="translate(195,-816.7783304104805)"><rect x="0" y="0" width="109" height="30" border="1" rx="10" ry="10" style="fill:#E0E0E0;stroke:#707070;stroke-width:1px;"/><text font-family="NotoSans, 'Helvetica Neue', Roboto, Helvetica, Arial, sans-serif" font-size="12" font-weight="bold" lengthAdjust="spacingAndGlyphs" style="fill:#4F4F4F;"><tspan y="18" x="55" text-anchor="middle" textLength="97">SRE - Electronics</tspan></text></g><g transform="translate(324,-816.7783304104805)"><rect x="0" y="0" width="149" height="30" border="1" rx="10" ry="10" style="fill:#E0E0E0;stroke:#707070;stroke-width:1px;"/><text font-family="NotoSans, 'Helvetica Neue', Roboto, Helvetica, Arial, sans-serif" font-size="12" font-weight="bold" lengthAdjust="spacingAndGlyphs" style="fill:#4F4F4F;"><tspan y="18" x="75" text-anchor="middle" textLength="137">Stoneridge TED [67439]</tspan></text></g><g transform="translate(195,-766.7783304104805)"><rect x="0" y="0" width="158" height="48" border="1" rx="10" ry="10" style="fill:#E0E0E0;stroke:#707070;stroke-width:1px;"/><text font-family="NotoSans, 'Helvetica Neue', Roboto, Helvetica, Arial, sans-serif" font-size="12" font-weight="bold" lengthAdjust="spacingAndGlyphs" style="fill:#4F4F4F;"><tspan y="18" x="79" text-anchor="middle" textLength="121">Pollak, A Stoneridge</tspan><tspan y="36" x="79" text-anchor="middle" textLength="95">Company [2724]</tspan></text></g><g transform="translate(90,-698.4903304104805)"><rect x="0" y="0" width="55" height="30" border="1" rx="10" ry="10" style="fill:#E0E0E0;stroke:#707070;stroke-width:1px;"/><text font-family="NotoSans, 'Helvetica Neue', Roboto, Helvetica, Arial, sans-serif" font-size="12" font-weight="bold" lengthAdjust="spacingAndGlyphs" style="fill:#4F4F4F;"><tspan y="18" x="28" text-anchor="middle" textLength="43">CAMDS</tspan></text></g><g transform="translate(90,-648.4903304104805)"><rect x="0" y="0" width="129" height="30" border="1" rx="10" ry="10" style="fill:#E0E0E0;stroke:#707070;stroke-width:1px;"/><text font-family="NotoSans, 'Helvetica Neue', Roboto, Helvetica, Arial, sans-serif" font-size="12" font-weight="bold" lengthAdjust="spacingAndGlyphs" style="fill:#4F4F4F;"><tspan y="18" x="65" text-anchor="middle" textLength="117">ORACLE JD Edwards</tspan></text></g><g transform="translate(90,-598.4903304104805)"><rect x="0" y="0" width="136" height="48" border="1" rx="10" ry="10" style="fill:#E0E0E0;stroke:#707070;stroke-width:1px;"/><text font-family="NotoSans, 'Helvetica Neue', Roboto, Helvetica, Arial, sans-serif" font-size="12" font-weight="bold" lengthAdjust="spacingAndGlyphs" style="fill:#4F4F4F;"><tspan y="18" x="68" text-anchor="middle" textLength="47">canweb</tspan><tspan y="36" x="68" text-anchor="middle" textLength="124">http://canweb/view/</tspan></text></g><g transform="translate(90,-530.4903304104805)"><rect x="0" y="0" width="77" height="30" border="1" rx="10" ry="10" style="fill:#E0E0E0;stroke:#707070;stroke-width:1px;"/><text font-family="NotoSans, 'Helvetica Neue', Roboto, Helvetica, Arial, sans-serif" font-size="12" font-weight="bold" lengthAdjust="spacingAndGlyphs" style="fill:#4F4F4F;"><tspan y="18" x="39" text-anchor="middle" textLength="65">CM Tool V3</tspan></text></g><g transform="translate(90,-480.4903304104805)"><rect x="0" y="0" width="115" height="30" border="1" rx="10" ry="10" style="fill:#E0E0E0;stroke:#707070;stroke-width:1px;"/><text font-family="NotoSans, 'Helvetica Neue', Roboto, Helvetica, Arial, sans-serif" font-size="12" font-weight="bold" lengthAdjust="spacingAndGlyphs" style="fill:#4F4F4F;"><tspan y="18" x="58" text-anchor="middle" textLength="103">: Component Edit</tspan></text></g><g transform="translate(90,-430.4903304104805)"><rect x="0" y="0" width="151" height="30" border="1" rx="10" ry="10" style="fill:#E0E0E0;stroke:#707070;stroke-width:1px;"/><text font-family="NotoSans, 'Helvetica Neue', Roboto, Helvetica, Arial, sans-serif" font-size="12" font-weight="bold" lengthAdjust="spacingAndGlyphs" style="fill:#4F4F4F;"><tspan y="18" x="76" text-anchor="middle" textLength="139">ELCID 4.2.1 (2020-03-02)</tspan></text></g><g transform="translate(90,-380.4903304104805)"><rect x="0" y="0" width="158" height="66" border="1" rx="10" ry="10" style="fill:#E0E0E0;stroke:#707070;stroke-width:1px;"/><text font-family="NotoSans, 'Helvetica Neue', Roboto, Helvetica, Arial, sans-serif" font-size="12" font-weight="bold" lengthAdjust="spacingAndGlyphs" style="fill:#4F4F4F;"><tspan y="18" x="79" text-anchor="middle" textLength="50">MatWeb</tspan><tspan y="36" x="79" text-anchor="middle" textLength="126">MATERIAL PROPERTY</tspan><tspan y="54" x="79" text-anchor="middle" textLength="32">DATA</tspan></text></g><g transform="translate(90,-130.4903304104805)"><rect x="0" y="0" width="166" height="48" border="1" rx="10" ry="10" style="fill:#E0E0E0;stroke:#707070;stroke-width:1px;"/><image xlink:href="image4.png" x="6" y="6" width="36" height="36"/><text font-family="NotoSans, 'Helvetica Neue', Roboto, Helvetica, Arial, sans-serif" font-size="12" font-weight="bold" lengthAdjust="spacingAndGlyphs" style="fill:#4F4F4F;"><tspan y="27" x="104" text-anchor="middle" textLength="113">SharePoint/ Teams</tspan></text></g><g transform="translate(276,-294.4903304104805)"><rect x="0" y="0" width="184" height="48" border="1" rx="10" ry="10" style="fill:#c5d2e0;stroke:#707070;stroke-width:1px;"/><image xlink:href="image5.png" x="6" y="6" width="36" height="36"/><text font-family="NotoSans, 'Helvetica Neue', Roboto, Helvetica, Arial, sans-serif" font-size="12" font-weight="bold" lengthAdjust="spacingAndGlyphs" style="fill:#a71930;"><tspan y="27" x="113" text-anchor="middle" textLength="131">IMDS – Juarez, Mexico</tspan></text></g><g transform="translate(480,-430.4903304104805)"><rect x="0" y="0" width="144" height="48" border="1" rx="10" ry="10" style="fill:#c5d2e0;stroke:#707070;stroke-width:1px;"/><image xlink:href="image6.png" x="6" y="6" width="36" height="36"/><text font-family="NotoSans, 'Helvetica Neue', Roboto, Helvetica, Arial, sans-serif" font-size="12" font-weight="bold" lengthAdjust="spacingAndGlyphs" style="fill:#a71930;"><tspan y="27" x="93" text-anchor="middle" textLength="91">List: Sent MDSs</tspan></text></g><g transform="translate(480,-362.4903304104805)"><rect x="0" y="0" width="187" height="48" border="1" rx="10" ry="10" style="fill:#c5d2e0;stroke:#707070;stroke-width:1px;"/><image xlink:href="image7.png" x="6" y="6" width="36" height="36"/><text font-family="NotoSans, 'Helvetica Neue', Roboto, Helvetica, Arial, sans-serif" font-size="12" font-weight="bold" lengthAdjust="spacingAndGlyphs" style="fill:#a71930;"><tspan y="18" x="114" text-anchor="middle" textLength="58">List: PFAS</tspan><tspan y="36" x="114" text-anchor="middle" textLength="123">Submissions Tracker</tspan></text></g><g transform="translate(480,-294.4903304104805)"><rect x="0" y="0" width="172" height="48" border="1" rx="10" ry="10" style="fill:#c5d2e0;stroke:#707070;stroke-width:1px;"/><image xlink:href="image8.png" x="6" y="6" width="36" height="36"/><text font-family="NotoSans, 'Helvetica Neue', Roboto, Helvetica, Arial, sans-serif" font-size="12" font-weight="bold" lengthAdjust="spacingAndGlyphs" style="fill:#a71930;"><tspan y="18" x="107" text-anchor="middle" textLength="119">Catalog: Companies</tspan><tspan y="36" x="107" text-anchor="middle" textLength="27">(list)</tspan></text></g><g transform="translate(480,-226.4903304104805)"><rect x="0" y="0" width="164" height="48" border="1" rx="10" ry="10" style="fill:#c5d2e0;stroke:#707070;stroke-width:1px;"/><image xlink:href="image9.png" x="6" y="6" width="36" height="36"/><text font-family="NotoSans, 'Helvetica Neue', Roboto, Helvetica, Arial, sans-serif" font-size="12" font-weight="bold" lengthAdjust="spacingAndGlyphs" style="fill:#a71930;"><tspan y="18" x="103" text-anchor="middle" textLength="111">Catalog: Locations</tspan><tspan y="36" x="103" text-anchor="middle" textLength="27">(list)</tspan></text></g><g transform="translate(480,-158.4903304104805)"><rect x="0" y="0" width="203" height="48" border="1" rx="10" ry="10" style="fill:#c5d2e0;stroke:#707070;stroke-width:1px;"/><image xlink:href="image9.png" x="6" y="6" width="36" height="36"/><text font-family="NotoSans, 'Helvetica Neue', Roboto, Helvetica, Arial, sans-serif" font-size="12" font-weight="bold" lengthAdjust="spacingAndGlyphs" style="fill:#a71930;"><tspan y="18" x="122" text-anchor="middle" textLength="149">Catalog: Basic Substance</tspan><tspan y="36" x="122" text-anchor="middle" textLength="27">(list)</tspan></text></g><g transform="translate(276,-90.49033041048051)"><rect x="0" y="0" width="125" height="36" border="1" rx="10" ry="10" style="fill:#E0E0E0;stroke:#707070;stroke-width:1px;"/><image xlink:href="image11.png" x="6" y="6" width="24" height="24"/><text font-family="NotoSans, 'Helvetica Neue', Roboto, Helvetica, Arial, sans-serif" font-size="12" font-weight="bold" lengthAdjust="spacingAndGlyphs" style="fill:#4F4F4F;"><tspan y="21" x="77" text-anchor="middle" textLength="84">IMDS Request</tspan></text></g><g transform="translate(276,-34.49033041048051)"><rect x="0" y="0" width="163" height="48" border="1" rx="10" ry="10" style="fill:#E0E0E0;stroke:#707070;stroke-width:1px;"/><image xlink:href="image12.png" x="6" y="12" width="24" height="24"/><text font-family="NotoSans, 'Helvetica Neue', Roboto, Helvetica, Arial, sans-serif" font-size="12" font-weight="bold" lengthAdjust="spacingAndGlyphs" style="fill:#4F4F4F;"><tspan y="18" x="96" text-anchor="middle" textLength="122">Supplier APQP, PPAP</tspan><tspan y="36" x="96" text-anchor="middle" textLength="46">Tracker</tspan></text></g><g transform="translate(276,33.50966958951949)"><rect x="0" y="0" width="169" height="48" border="1" rx="10" ry="10" style="fill:#E0E0E0;stroke:#707070;stroke-width:1px;"/><image xlink:href="image13.png" x="6" y="12" width="24" height="24"/><text font-family="NotoSans, 'Helvetica Neue', Roboto, Helvetica, Arial, sans-serif" font-size="12" font-weight="bold" lengthAdjust="spacingAndGlyphs" style="fill:#4F4F4F;"><tspan y="18" x="99" text-anchor="middle" textLength="128">Supplier PPAP / APQP</tspan><tspan y="36" x="99" text-anchor="middle" textLength="46">Tracker</tspan></text></g><g transform="translate(-15,349.5096695895195)"><rect x="0" y="0" width="100" height="48" border="1" rx="10" ry="10" style="fill:#a71930;stroke:#707070;stroke-width:1px;"/><image xlink:href="image14.png" x="6" y="6" width="36" height="36"/><text font-family="NotoSans, 'Helvetica Neue', Roboto, Helvetica, Arial, sans-serif" font-size="12" font-weight="bold" lengthAdjust="spacingAndGlyphs" style="fill:#FFFFFF;"><tspan y="27" x="71" text-anchor="middle" textLength="47">Reports</tspan></text></g><g transform="translate(105,123.50966958951949)"><rect x="0" y="0" width="166" height="48" border="1" rx="10" ry="10" style="fill:#E0E0E0;stroke:#707070;stroke-width:1px;"/><image xlink:href="image15.png" x="6" y="6" width="36" height="36"/><text font-family="NotoSans, 'Helvetica Neue', Roboto, Helvetica, Arial, sans-serif" font-size="12" font-weight="bold" lengthAdjust="spacingAndGlyphs" style="fill:#4F4F4F;"><tspan y="27" x="104" text-anchor="middle" textLength="113">Teams/ SharePoint</tspan></text></g><g transform="translate(291,101.50966958951949)"><rect x="0" y="0" width="146" height="36" border="1" rx="10" ry="10" style="fill:#E0E0E0;stroke:#707070;stroke-width:1px;"/><image xlink:href="image16.png" x="6" y="6" width="24" height="24"/><text font-family="NotoSans, 'Helvetica Neue', Roboto, Helvetica, Arial, sans-serif" font-size="12" font-weight="bold" lengthAdjust="spacingAndGlyphs" style="fill:#4F4F4F;"><tspan y="21" x="88" text-anchor="middle" textLength="105">IMDS reports SCD</tspan></text></g><g transform="translate(291,157.5096695895195)"><rect x="0" y="0" width="145" height="36" border="1" rx="10" ry="10" style="fill:#E0E0E0;stroke:#707070;stroke-width:1px;"/><image xlink:href="image17.png" x="6" y="6" width="24" height="24"/><text font-family="NotoSans, 'Helvetica Neue', Roboto, Helvetica, Arial, sans-serif" font-size="12" font-weight="bold" lengthAdjust="spacingAndGlyphs" style="fill:#4F4F4F;"><tspan y="21" x="87" text-anchor="middle" textLength="104">IMDS reports SRE</tspan></text></g><g transform="translate(105,377.5096695895195)"><rect x="0" y="0" width="107" height="48" border="1" rx="10" ry="10" style="fill:#E0E0E0;stroke:#707070;stroke-width:1px;"/><image xlink:href="image18.png" x="6" y="6" width="36" height="36"/><text font-family="NotoSans, 'Helvetica Neue', Roboto, Helvetica, Arial, sans-serif" font-size="12" font-weight="bold" lengthAdjust="spacingAndGlyphs" style="fill:#4F4F4F;"><tspan y="27" x="74" text-anchor="middle" textLength="54">Power BI</tspan></text></g><g transform="translate(232,264.5096695895195)"><rect x="0" y="0" width="181" height="72" border="1" rx="10" ry="10" style="fill:#c5d2e0;stroke:#707070;stroke-width:1px;"/><image xlink:href="image19.png" x="6" y="6" width="60" height="60"/><text font-family="NotoSans, 'Helvetica Neue', Roboto, Helvetica, Arial, sans-serif" font-size="12" font-weight="bold" lengthAdjust="spacingAndGlyphs" style="fill:#a71930;"><tspan y="39" x="123" text-anchor="middle" textLength="104">Workspace: IMDS</tspan></text></g><g transform="translate(433,213.89354458951948)"><rect x="0" y="0" width="171" height="48" border="1" rx="10" ry="10" style="fill:#c5d2e0;stroke:#707070;stroke-width:1px;"/><image xlink:href="image20.png" x="6" y="12" width="24" height="24"/><text font-family="NotoSans, 'Helvetica Neue', Roboto, Helvetica, Arial, sans-serif" font-size="12" font-weight="bold" lengthAdjust="spacingAndGlyphs" style="fill:#a71930;"><tspan y="18" x="100" text-anchor="middle" textLength="122">Report: MDSs Status</tspan><tspan y="36" x="100" text-anchor="middle" textLength="82">per Customer</tspan></text></g><g transform="translate(433,281.8935445895195)"><rect x="0" y="0" width="171" height="66" border="1" rx="10" ry="10" style="fill:#c5d2e0;stroke:#707070;stroke-width:1px;"/><image xlink:href="image20.png" x="6" y="21" width="24" height="24"/><text font-family="NotoSans, 'Helvetica Neue', Roboto, Helvetica, Arial, sans-serif" font-size="12" font-weight="bold" lengthAdjust="spacingAndGlyphs" style="fill:#a71930;"><tspan y="18" x="100" text-anchor="middle" textLength="80">Report: VoC –</tspan><tspan y="36" x="100" text-anchor="middle" textLength="105">Daimler Truck AG</tspan><tspan y="54" x="100" text-anchor="middle" textLength="42">(DTNA)</tspan></text></g><g transform="translate(433,367.8935445895195)"><rect x="0" y="0" width="156" height="36" border="1" rx="10" ry="10" style="fill:#c5d2e0;stroke:#707070;stroke-width:1px;"/><image xlink:href="image22.png" x="6" y="6" width="24" height="24"/><text font-family="NotoSans, 'Helvetica Neue', Roboto, Helvetica, Arial, sans-serif" font-size="12" font-weight="bold" lengthAdjust="spacingAndGlyphs" style="fill:#a71930;"><tspan y="21" x="93" text-anchor="middle" textLength="103">Report: _sandbox</tspan></text></g><g transform="translate(232,423.5096695895195)"><rect x="0" y="0" width="135" height="48" border="1" rx="10" ry="10" style="fill:#E0E0E0;stroke:#707070;stroke-width:1px;"/><image xlink:href="image23.png" x="6" y="6" width="36" height="36"/><text font-family="NotoSans, 'Helvetica Neue', Roboto, Helvetica, Arial, sans-serif" font-size="12" font-weight="bold" lengthAdjust="spacingAndGlyphs" style="fill:#4F4F4F;"><tspan y="18" x="88" text-anchor="middle" textLength="82">SRI Inventory</tspan><tspan y="36" x="88" text-anchor="middle" textLength="24">App</tspan></text></g><g transform="translate(387,423.5096695895195)"><rect x="0" y="0" width="161" height="48" border="1" rx="10" ry="10" style="fill:#E0E0E0;stroke:#707070;stroke-width:1px;"/><image xlink:href="image24.png" x="6" y="12" width="24" height="24"/><text font-family="NotoSans, 'Helvetica Neue', Roboto, Helvetica, Arial, sans-serif" font-size="12" font-weight="bold" lengthAdjust="spacingAndGlyphs" style="fill:#4F4F4F;"><tspan y="18" x="95" text-anchor="middle" textLength="29">PFEP</tspan><tspan y="36" x="95" text-anchor="middle" textLength="120">(Plan for Every Part)</tspan></text></g><g transform="translate(232,491.5096695895195)"><rect x="0" y="0" width="155" height="48" border="1" rx="10" ry="10" style="fill:#E0E0E0;stroke:#707070;stroke-width:1px;"/><image xlink:href="image25.png" x="6" y="6" width="36" height="36"/><text font-family="NotoSans, 'Helvetica Neue', Roboto, Helvetica, Arial, sans-serif" font-size="12" font-weight="bold" lengthAdjust="spacingAndGlyphs" style="fill:#4F4F4F;"><tspan y="18" x="98" text-anchor="middle" textLength="102">SRI Procurement</tspan><tspan y="36" x="98" text-anchor="middle" textLength="24">App</tspan></text></g><g transform="translate(407,491.5096695895195)"><rect x="0" y="0" width="187" height="48" border="1" rx="10" ry="10" style="fill:#E0E0E0;stroke:#707070;stroke-width:1px;"/><image xlink:href="image26.png" x="6" y="12" width="24" height="24"/><text font-family="NotoSans, 'Helvetica Neue', Roboto, Helvetica, Arial, sans-serif" font-size="12" font-weight="bold" lengthAdjust="spacingAndGlyphs" style="fill:#4F4F4F;"><tspan y="18" x="108" text-anchor="middle" textLength="142">Global Supplier Address</tspan><tspan y="36" x="108" text-anchor="middle" textLength="31">Book</tspan></text></g><g transform="translate(105,575.5096695895195)"><rect x="0" y="0" width="130" height="48" border="1" rx="10" ry="10" style="fill:#E0E0E0;stroke:#707070;stroke-width:1px;"/><image xlink:href="image27.png" x="6" y="6" width="36" height="36"/><text font-family="NotoSans, 'Helvetica Neue', Roboto, Helvetica, Arial, sans-serif" font-size="12" font-weight="bold" lengthAdjust="spacingAndGlyphs" style="fill:#4F4F4F;"><tspan y="27" x="86" text-anchor="middle" textLength="77">Shared Drive</tspan></text></g><g transform="translate(255,559.5096695895195)"><rect x="0" y="0" width="137" height="30" border="1" rx="10" ry="10" style="fill:#5c7f92;stroke:#707070;stroke-width:1px;"/><text font-family="NotoSans, 'Helvetica Neue', Roboto, Helvetica, Arial, sans-serif" font-size="12" font-weight="bold" lengthAdjust="spacingAndGlyphs" style="fill:#FFFFFF;"><tspan y="18" x="69" text-anchor="middle" textLength="125">SRE Monthly Reports</tspan></text></g><g transform="translate(255,609.5096695895195)"><rect x="0" y="0" width="139" height="30" border="1" rx="10" ry="10" style="fill:#5c7f92;stroke:#707070;stroke-width:1px;"/><text font-family="NotoSans, 'Helvetica Neue', Roboto, Helvetica, Arial, sans-serif" font-size="12" font-weight="bold" lengthAdjust="spacingAndGlyphs" style="fill:#FFFFFF;"><tspan y="18" x="70" text-anchor="middle" textLength="127">SCD Monthly Reports</tspan></text></g><g transform="translate(-325,-1002)"><rect x="0" y="0" width="287" height="341" border="1" rx="10" ry="10" style="fill:#FFFFFF;stroke:#707070;stroke-width:1px;"/><image xlink:href="image44.png" x="6" y="6" width="275" height="329"/></g></g></svg>