<?xml version="1.0" encoding="UTF-8"?>
<svg xmlns="http://www.w3.org/2000/svg" xmlns:xlink="http://www.w3.org/1999/xlink" width="1002" height="700"><defs><style type="text/css"><![CDATA[@import url("https://atlas.mindmup.com/_resources/22/fonts.css")]]></style></defs><rect width="100%" height="100%" fill="#FFFFFF"/><g transform="translate(637,341)" style="fill:none;"><g transform="translate(-279,-160)"><path d="M79,173Q79,-21 178,15" stroke="#707070" stroke-width="1" stroke-linecap="round"/></g><g transform="translate(-101,-282)"><path d="M30,137Q30,-21 79,15" stroke="#707070" stroke-width="1" stroke-linecap="round"/></g><g transform="translate(-22,-311)"><path d="M63,44Q63,-6.75 145,15" stroke="#707070" stroke-width="1" stroke-linecap="round"/></g><g transform="translate(-22,-282)"><path d="M63,15Q63,67.5 145,45" stroke="#707070" stroke-width="1" stroke-linecap="round"/></g><g transform="translate(123,-261)"><path d="M24,24L54,24" stroke="#707070" stroke-width="1" stroke-linecap="round"/></g><g transform="translate(-101,-184)"><path d="M49,39Q49,15 79,15" stroke="#707070" stroke-width="1" stroke-linecap="round"/></g><g transform="translate(-22,-184)"><path d="M56,15L86,15" stroke="#707070" stroke-width="1" stroke-linecap="round"/></g><g transform="translate(64,-193)"><path d="M84,24L114,24" stroke="#707070" stroke-width="1" stroke-linecap="round"/></g><g transform="translate(-101,-160)"><path d="M30,15Q30,174 79,138" stroke="#707070" stroke-width="1" stroke-linecap="round"/></g><g transform="translate(-22,-125)"><path d="M45,103Q45,6 109,42" stroke="#707070" stroke-width="1" stroke-linecap="round"/></g><g transform="translate(-22,-37)"><path d="M45,15Q45,103 109,67" stroke="#707070" stroke-width="1" stroke-linecap="round"/></g><g transform="translate(-279,-20)"><path d="M79,33Q79,227 178,191" stroke="#707070" stroke-width="1" stroke-linecap="round"/></g><g transform="translate(-101,13)"><path d="M22,158Q22,-21 64,15" stroke="#707070" stroke-width="1" stroke-linecap="round"/></g><g transform="translate(-101,63)"><path d="M22,108Q22,-21 64,15" stroke="#707070" stroke-width="1" stroke-linecap="round"/></g><g transform="translate(-101,156)"><path d="M34,15Q34,31 64,31" stroke="#707070" stroke-width="1" stroke-linecap="round"/></g><g transform="translate(-101,156)"><path d="M22,15Q22,126 64,90" stroke="#707070" stroke-width="1" stroke-linecap="round"/></g><g transform="translate(-101,156)"><path d="M22,15Q22,185 64,149" stroke="#707070" stroke-width="1" stroke-linecap="round"/></g><g transform="translate(-101,113)"><path d="M22,58Q22,-17.25 64,15" stroke="#707070" stroke-width="1" stroke-linecap="round"/></g><g transform="translate(-440,-119)"><path d="M240,132Q240,-21 141,15" stroke="#707070" stroke-width="1" stroke-linecap="round"/></g><g transform="translate(-354,-44)"><path d="M85,57Q85,15 55,15" stroke="#707070" stroke-width="1" stroke-linecap="round"/></g><g transform="translate(-457,-69)"><path d="M113,40Q113,15 83,15" stroke="#707070" stroke-width="1" stroke-linecap="round"/></g><g transform="translate(-501,-44)"><path d="M157,15Q157,40 127,40" stroke="#707070" stroke-width="1" stroke-linecap="round"/></g><g transform="translate(-353,-20)"><path d="M153,33Q153,186 54,150" stroke="#707070" stroke-width="1" stroke-linecap="round"/></g><g transform="translate(-531,31)"><path d="M205,99Q205,-12 158,24" stroke="#707070" stroke-width="1" stroke-linecap="round"/></g><g transform="translate(-605,31)"><path d="M84,24L54,24" stroke="#707070" stroke-width="1" stroke-linecap="round"/></g><g transform="translate(-531,115)"><path d="M188,15Q188,24 158,24" stroke="#707070" stroke-width="1" stroke-linecap="round"/></g><g transform="translate(-605,99)"><path d="M84,40Q84,15 54,15" stroke="#707070" stroke-width="1" stroke-linecap="round"/></g><g transform="translate(-607,115)"><path d="M86,24Q86,49 56,49" stroke="#707070" stroke-width="1" stroke-linecap="round"/></g><g transform="translate(-496,115)"><path d="M170,15Q170,135 123,99" stroke="#707070" stroke-width="1" stroke-linecap="round"/></g><g transform="translate(-570,199)"><path d="M84,15L54,15" stroke="#707070" stroke-width="1" stroke-linecap="round"/></g><g transform="translate(-531,-261)"><path d="M158,400L708,24" stroke-dasharray="4, 4" stroke="#707070" stroke-width="1"/><path d="M694,27L708,24L700,35Z" fill="#707070" stroke="#707070" stroke-width="1"/></g><g transform="translate(-22,-184)"><path d="M109,101L66,15" stroke-dasharray="4, 4" stroke="#707070" stroke-width="1"/><path d="M68,29L66,15L76,25Z" fill="#707070" stroke="#707070" stroke-width="1"/></g><g transform="translate(-22,-184)"><path d="M188,163L66,15" stroke-dasharray="4, 4" stroke="#707070" stroke-width="1"/><path d="M71,28L66,15L78,22Z" fill="#707070" stroke="#707070" stroke-width="1"/></g><g transform="translate(-279,-20)"><rect x="0" y="0" width="158" height="66" border="1" rx="10" ry="10" style="fill:#a71930;stroke:#707070;stroke-width:1px;"/><text font-family="NotoSans, 'Helvetica Neue', Roboto, Helvetica, Arial, sans-serif" font-size="12" font-weight="bold" lengthAdjust="spacingAndGlyphs" style="fill:#FFFFFF;"><tspan y="18" x="79" text-anchor="middle" textLength="135">International Material</tspan><tspan y="36" x="79" text-anchor="middle" textLength="76">Data System</tspan><tspan y="54" x="79" text-anchor="middle" textLength="82">IMDS – Juarez</tspan></text></g><g transform="translate(-440,-119)"><rect x="0" y="0" width="141" height="30" border="1" rx="10" ry="10" style="fill:#E0E0E0;stroke:#707070;stroke-width:1px;"/><text font-family="NotoSans, 'Helvetica Neue', Roboto, Helvetica, Arial, sans-serif" font-size="12" font-weight="bold" lengthAdjust="spacingAndGlyphs" style="fill:#4F4F4F;"><tspan y="18" x="71" text-anchor="middle" textLength="129">Supplier Components</tspan></text></g><g transform="translate(-354,-44)"><rect x="0" y="0" width="55" height="30" border="1" rx="10" ry="10" style="fill:#000000;stroke:#707070;stroke-width:1px;"/><text font-family="NotoSans, 'Helvetica Neue', Roboto, Helvetica, Arial, sans-serif" font-size="12" font-weight="bold" lengthAdjust="spacingAndGlyphs" style="fill:#FFFFFF;"><tspan y="18" x="28" text-anchor="middle" textLength="43">Portals</tspan></text></g><g transform="translate(-457,-69)"><rect x="0" y="0" width="83" height="30" border="1" rx="10" ry="10" style="fill:#E0E0E0;stroke:#707070;stroke-width:1px;"/><text font-family="NotoSans, 'Helvetica Neue', Roboto, Helvetica, Arial, sans-serif" font-size="12" font-weight="bold" lengthAdjust="spacingAndGlyphs" style="fill:#4F4F4F;"><tspan y="18" x="42" text-anchor="middle" textLength="71">STELLANTIS</tspan></text></g><g transform="translate(-501,-19)"><rect x="0" y="0" width="127" height="30" border="1" rx="10" ry="10" style="fill:#E0E0E0;stroke:#707070;stroke-width:1px;"/><text font-family="NotoSans, 'Helvetica Neue', Roboto, Helvetica, Arial, sans-serif" font-size="12" font-weight="bold" lengthAdjust="spacingAndGlyphs" style="fill:#4F4F4F;"><tspan y="18" x="64" text-anchor="middle" textLength="115">OpenText/ Covisint</tspan></text></g><g transform="translate(-353,115)"><rect x="0" y="0" width="54" height="30" border="1" rx="10" ry="10" style="fill:#000000;stroke:#707070;stroke-width:1px;"/><text font-family="NotoSans, 'Helvetica Neue', Roboto, Helvetica, Arial, sans-serif" font-size="12" font-weight="bold" lengthAdjust="spacingAndGlyphs" style="fill:#FFFFFF;"><tspan y="18" x="27" text-anchor="middle" textLength="42">Clients</tspan></text></g><g transform="translate(-531,31)"><rect x="0" y="0" width="158" height="48" border="1" rx="10" ry="10" style="fill:#E0E0E0;stroke:#707070;stroke-width:1px;"/><text font-family="NotoSans, 'Helvetica Neue', Roboto, Helvetica, Arial, sans-serif" font-size="12" font-weight="bold" lengthAdjust="spacingAndGlyphs" style="fill:#4F4F4F;"><tspan y="18" x="79" text-anchor="middle" textLength="129">261589 Daimler Truck</tspan><tspan y="36" x="79" text-anchor="middle" textLength="17">AG</tspan></text></g><g transform="translate(-605,40)"><rect x="0" y="0" width="54" height="30" border="1" rx="10" ry="10" style="fill:#E0E0E0;stroke:#707070;stroke-width:1px;"/><text font-family="NotoSans, 'Helvetica Neue', Roboto, Helvetica, Arial, sans-serif" font-size="12" font-weight="bold" lengthAdjust="spacingAndGlyphs" style="fill:#4F4F4F;"><tspan y="18" x="27" text-anchor="middle" textLength="42">MDS: #</tspan></text></g><g transform="translate(-531,115)"><rect x="0" y="0" width="158" height="48" border="1" rx="10" ry="10" style="fill:#E0E0E0;stroke:#707070;stroke-width:1px;"/><text font-family="NotoSans, 'Helvetica Neue', Roboto, Helvetica, Arial, sans-serif" font-size="12" font-weight="bold" lengthAdjust="spacingAndGlyphs" style="fill:#4F4F4F;"><tspan y="18" x="79" text-anchor="middle" textLength="125">186555 International</tspan><tspan y="36" x="79" text-anchor="middle" textLength="71">Motors, LLC</tspan></text></g><g transform="translate(-605,99)"><rect x="0" y="0" width="54" height="30" border="1" rx="10" ry="10" style="fill:#E0E0E0;stroke:#707070;stroke-width:1px;"/><text font-family="NotoSans, 'Helvetica Neue', Roboto, Helvetica, Arial, sans-serif" font-size="12" font-weight="bold" lengthAdjust="spacingAndGlyphs" style="fill:#4F4F4F;"><tspan y="18" x="27" text-anchor="middle" textLength="42">MDS: #</tspan></text></g><g transform="translate(-607,149)"><rect x="0" y="0" width="56" height="30" border="1" rx="10" ry="10" style="fill:#E0E0E0;stroke:#707070;stroke-width:1px;"/><text font-family="NotoSans, 'Helvetica Neue', Roboto, Helvetica, Arial, sans-serif" font-size="12" font-weight="bold" lengthAdjust="spacingAndGlyphs" style="fill:#4F4F4F;"><tspan y="18" x="28" text-anchor="middle" textLength="44">PFAS: #</tspan></text></g><g transform="translate(-496,199)"><rect x="0" y="0" width="123" height="30" border="1" rx="10" ry="10" style="fill:#E0E0E0;stroke:#707070;stroke-width:1px;"/><text font-family="NotoSans, 'Helvetica Neue', Roboto, Helvetica, Arial, sans-serif" font-size="12" font-weight="bold" lengthAdjust="spacingAndGlyphs" style="fill:#4F4F4F;"><tspan y="18" x="62" text-anchor="middle" textLength="111">46569 Volvo Group</tspan></text></g><g transform="translate(-570,199)"><rect x="0" y="0" width="54" height="30" border="1" rx="10" ry="10" style="fill:#E0E0E0;stroke:#707070;stroke-width:1px;"/><text font-family="NotoSans, 'Helvetica Neue', Roboto, Helvetica, Arial, sans-serif" font-size="12" font-weight="bold" lengthAdjust="spacingAndGlyphs" style="fill:#4F4F4F;"><tspan y="18" x="27" text-anchor="middle" textLength="42">MDS: #</tspan></text></g><g transform="translate(-101,-160)"><rect x="0" y="0" width="59" height="30" border="1" rx="10" ry="10" style="fill:#000000;stroke:#707070;stroke-width:1px;"/><text font-family="NotoSans, 'Helvetica Neue', Roboto, Helvetica, Arial, sans-serif" font-size="12" font-weight="bold" lengthAdjust="spacingAndGlyphs" style="fill:#FFFFFF;"><tspan y="18" x="30" text-anchor="middle" textLength="47">Reports</tspan></text></g><g transform="translate(-22,-282)"><rect x="0" y="0" width="125" height="30" border="1" rx="10" ry="10" style="fill:#E0E0E0;stroke:#707070;stroke-width:1px;"/><text font-family="NotoSans, 'Helvetica Neue', Roboto, Helvetica, Arial, sans-serif" font-size="12" font-weight="bold" lengthAdjust="spacingAndGlyphs" style="fill:#4F4F4F;"><tspan y="18" x="63" text-anchor="middle" textLength="113">Teams/ SharePoint</tspan></text></g><g transform="translate(123,-311)"><rect x="0" y="0" width="36" height="30" border="1" rx="10" ry="10" style="fill:#E0E0E0;stroke:#707070;stroke-width:1px;"/><text font-family="NotoSans, 'Helvetica Neue', Roboto, Helvetica, Arial, sans-serif" font-size="12" font-weight="bold" lengthAdjust="spacingAndGlyphs" style="fill:#4F4F4F;"><tspan y="18" x="18" text-anchor="middle" textLength="24">SCD</tspan></text></g><g transform="translate(123,-252)"><rect x="0" y="0" width="34" height="30" border="1" rx="10" ry="10" style="fill:#E0E0E0;stroke:#707070;stroke-width:1px;"/><text font-family="NotoSans, 'Helvetica Neue', Roboto, Helvetica, Arial, sans-serif" font-size="12" font-weight="bold" lengthAdjust="spacingAndGlyphs" style="fill:#4F4F4F;"><tspan y="18" x="17" text-anchor="middle" textLength="22">SRE</tspan></text></g><g transform="translate(177,-261)"><rect x="0" y="0" width="158" height="48" border="1" rx="10" ry="10" style="fill:#E0E0E0;stroke:#707070;stroke-width:1px;"/><text font-family="NotoSans, 'Helvetica Neue', Roboto, Helvetica, Arial, sans-serif" font-size="12" font-weight="bold" lengthAdjust="spacingAndGlyphs" style="fill:#4F4F4F;"><tspan y="18" x="79" text-anchor="middle" textLength="125">186555 International</tspan><tspan y="36" x="79" text-anchor="middle" textLength="71">Motors, LLC</tspan></text></g><g transform="translate(-22,-184)"><rect x="0" y="0" width="66" height="30" border="1" rx="10" ry="10" style="fill:#E0E0E0;stroke:#707070;stroke-width:1px;"/><text font-family="NotoSans, 'Helvetica Neue', Roboto, Helvetica, Arial, sans-serif" font-size="12" font-weight="bold" lengthAdjust="spacingAndGlyphs" style="fill:#4F4F4F;"><tspan y="18" x="33" text-anchor="middle" textLength="54">Power BI</tspan></text></g><g transform="translate(64,-184)"><rect x="0" y="0" width="94" height="30" border="1" rx="10" ry="10" style="fill:#E0E0E0;stroke:#707070;stroke-width:1px;"/><text font-family="NotoSans, 'Helvetica Neue', Roboto, Helvetica, Arial, sans-serif" font-size="12" font-weight="bold" lengthAdjust="spacingAndGlyphs" style="fill:#4F4F4F;"><tspan y="18" x="47" text-anchor="middle" textLength="82">SRI Inventory</tspan></text></g><g transform="translate(178,-193)"><rect x="0" y="0" width="132" height="48" border="1" rx="10" ry="10" style="fill:#E0E0E0;stroke:#707070;stroke-width:1px;"/><text font-family="NotoSans, 'Helvetica Neue', Roboto, Helvetica, Arial, sans-serif" font-size="12" font-weight="bold" lengthAdjust="spacingAndGlyphs" style="fill:#4F4F4F;"><tspan y="18" x="66" text-anchor="middle" textLength="29">PFEP</tspan><tspan y="36" x="66" text-anchor="middle" textLength="120">(Plan for Every Part)</tspan></text></g><g transform="translate(-22,-37)"><rect x="0" y="0" width="89" height="30" border="1" rx="10" ry="10" style="fill:#E0E0E0;stroke:#707070;stroke-width:1px;"/><text font-family="NotoSans, 'Helvetica Neue', Roboto, Helvetica, Arial, sans-serif" font-size="12" font-weight="bold" lengthAdjust="spacingAndGlyphs" style="fill:#4F4F4F;"><tspan y="18" x="45" text-anchor="middle" textLength="77">Shared Drive</tspan></text></g><g transform="translate(87,-125)"><rect x="0" y="0" width="158" height="84" border="1" rx="10" ry="10" style="fill:#E0E0E0;stroke:#707070;stroke-width:1px;"/><text font-family="NotoSans, 'Helvetica Neue', Roboto, Helvetica, Arial, sans-serif" font-size="12" font-weight="bold" lengthAdjust="spacingAndGlyphs" style="fill:#4F4F4F;"><tspan y="18" x="79" text-anchor="middle" textLength="125">SRE Monthly Reports</tspan><tspan y="36" x="79" text-anchor="middle" textLength="98">\\juafile02\IMDS</tspan><tspan y="54" x="79" text-anchor="middle" textLength="141">\Electronics\Electronics</tspan><tspan y="72" x="79" text-anchor="middle" textLength="101">Mensual Reports</tspan></text></g><g transform="translate(87,-21)"><rect x="0" y="0" width="158" height="102" border="1" rx="10" ry="10" style="fill:#E0E0E0;stroke:#707070;stroke-width:1px;"/><text font-family="NotoSans, 'Helvetica Neue', Roboto, Helvetica, Arial, sans-serif" font-size="12" font-weight="bold" lengthAdjust="spacingAndGlyphs" style="fill:#4F4F4F;"><tspan y="18" x="79" text-anchor="middle" textLength="127">SCD Monthly Reports</tspan><tspan y="36" x="79" text-anchor="middle" textLength="98">\\juafile02\IMDS</tspan><tspan y="54" x="79" text-anchor="middle" textLength="97">\Control devices</tspan><tspan y="72" x="79" text-anchor="middle" textLength="99">\Control Devices</tspan><tspan y="90" x="79" text-anchor="middle" textLength="101">Mensual Reports</tspan></text></g><g transform="translate(-101,156)"><rect x="0" y="0" width="44" height="30" border="1" rx="10" ry="10" style="fill:#000000;stroke:#707070;stroke-width:1px;"/><text font-family="NotoSans, 'Helvetica Neue', Roboto, Helvetica, Arial, sans-serif" font-size="12" font-weight="bold" lengthAdjust="spacingAndGlyphs" style="fill:#FFFFFF;"><tspan y="18" x="22" text-anchor="middle" textLength="32">Tools</tspan></text></g><g transform="translate(-37,13)"><rect x="0" y="0" width="44" height="30" border="1" rx="10" ry="10" style="fill:#E0E0E0;stroke:#707070;stroke-width:1px;"/><text font-family="NotoSans, 'Helvetica Neue', Roboto, Helvetica, Arial, sans-serif" font-size="12" font-weight="bold" lengthAdjust="spacingAndGlyphs" style="fill:#4F4F4F;"><tspan y="18" x="22" text-anchor="middle" textLength="32">IMDS</tspan></text></g><g transform="translate(-37,63)"><rect x="0" y="0" width="55" height="30" border="1" rx="10" ry="10" style="fill:#E0E0E0;stroke:#707070;stroke-width:1px;"/><text font-family="NotoSans, 'Helvetica Neue', Roboto, Helvetica, Arial, sans-serif" font-size="12" font-weight="bold" lengthAdjust="spacingAndGlyphs" style="fill:#4F4F4F;"><tspan y="18" x="28" text-anchor="middle" textLength="43">CAMDS</tspan></text></g><g transform="translate(-37,113)"><rect x="0" y="0" width="129" height="30" border="1" rx="10" ry="10" style="fill:#E0E0E0;stroke:#707070;stroke-width:1px;"/><text font-family="NotoSans, 'Helvetica Neue', Roboto, Helvetica, Arial, sans-serif" font-size="12" font-weight="bold" lengthAdjust="spacingAndGlyphs" style="fill:#4F4F4F;"><tspan y="18" x="65" text-anchor="middle" textLength="117">ORACLE JD Edwards</tspan></text></g><g transform="translate(-37,163)"><rect x="0" y="0" width="158" height="48" border="1" rx="10" ry="10" style="fill:#E0E0E0;stroke:#707070;stroke-width:1px;"/><text font-family="NotoSans, 'Helvetica Neue', Roboto, Helvetica, Arial, sans-serif" font-size="12" font-weight="bold" lengthAdjust="spacingAndGlyphs" style="fill:#4F4F4F;"><tspan y="18" x="79" text-anchor="middle" textLength="140">canweb http://canweb/</tspan><tspan y="36" x="79" text-anchor="middle" textLength="33">view/</tspan></text></g><g transform="translate(-37,231)"><rect x="0" y="0" width="151" height="30" border="1" rx="10" ry="10" style="fill:#E0E0E0;stroke:#707070;stroke-width:1px;"/><text font-family="NotoSans, 'Helvetica Neue', Roboto, Helvetica, Arial, sans-serif" font-size="12" font-weight="bold" lengthAdjust="spacingAndGlyphs" style="fill:#4F4F4F;"><tspan y="18" x="76" text-anchor="middle" textLength="139">ELCID 4.2.1 (2020-03-02)</tspan></text></g><g transform="translate(-37,281)"><rect x="0" y="0" width="158" height="48" border="1" rx="10" ry="10" style="fill:#E0E0E0;stroke:#707070;stroke-width:1px;"/><text font-family="NotoSans, 'Helvetica Neue', Roboto, Helvetica, Arial, sans-serif" font-size="12" font-weight="bold" lengthAdjust="spacingAndGlyphs" style="fill:#4F4F4F;"><tspan y="18" x="79" text-anchor="middle" textLength="128">Supplier PPAP / APQP</tspan><tspan y="36" x="79" text-anchor="middle" textLength="46">Tracker</tspan></text></g></g></svg>