<?xml version="1.0" encoding="UTF-8"?>
<svg xmlns="http://www.w3.org/2000/svg" xmlns:xlink="http://www.w3.org/1999/xlink" width="341" height="190"><defs><style type="text/css"><![CDATA[@import url("https://atlas.mindmup.com/_resources/22/fonts.css")]]></style></defs><rect width="100%" height="100%" fill="#FFFFFF"/><g transform="translate(397,97)" style="fill:none;"><g transform="translate(-279,-20)"><path d="M104,18Q104,43 134,43" stroke="#707070" stroke-width="1" stroke-linecap="round"/></g><g transform="translate(-367,-20)"><path d="M98,18L68,18" stroke="#707070" stroke-width="1" stroke-linecap="round"/></g><g transform="translate(-354,-20)"><path d="M132,18Q132,104 55,68" stroke="#707070" stroke-width="1" stroke-linecap="round"/></g><g transform="translate(-353,-67)"><path d="M131,65Q131,-21 54,15" stroke="#707070" stroke-width="1" stroke-linecap="round"/></g><g transform="translate(-279,-42)"><path d="M104,40Q104,15 134,15" stroke="#707070" stroke-width="1" stroke-linecap="round"/></g><g transform="translate(-279,-20)"><rect x="0" y="0" width="114" height="35" border="1" rx="10" ry="10" style="fill:#a71930;stroke:#707070;stroke-width:1px;"/><text font-family="NotoSans, 'Helvetica Neue', Roboto, Helvetica, Arial, sans-serif" font-size="15" font-weight="bold" lengthAdjust="spacingAndGlyphs" style="fill:#FFFFFF;"><tspan y="21" x="57" text-anchor="middle" textLength="102">IMDS – Juarez</tspan></text></g><g transform="translate(-353,-67)"><rect x="0" y="0" width="54" height="30" border="1" rx="10" ry="10" style="fill:#000000;stroke:#707070;stroke-width:1px;"/><text font-family="NotoSans, 'Helvetica Neue', Roboto, Helvetica, Arial, sans-serif" font-size="12" font-weight="bold" lengthAdjust="spacingAndGlyphs" style="fill:#FFFFFF;"><tspan y="18" x="27" text-anchor="middle" textLength="42">Clients</tspan></text></g><g transform="translate(-367,-17)"><rect x="0" y="0" width="68" height="30" border="1" rx="10" ry="10" style="fill:#000000;stroke:#707070;stroke-width:1px;"/><text font-family="NotoSans, 'Helvetica Neue', Roboto, Helvetica, Arial, sans-serif" font-size="12" font-weight="bold" lengthAdjust="spacingAndGlyphs" style="fill:#FFFFFF;"><tspan y="18" x="34" text-anchor="middle" textLength="56">Suppliers</tspan></text></g><g transform="translate(-354,33)"><rect x="0" y="0" width="55" height="30" border="1" rx="10" ry="10" style="fill:#000000;stroke:#707070;stroke-width:1px;"/><text font-family="NotoSans, 'Helvetica Neue', Roboto, Helvetica, Arial, sans-serif" font-size="12" font-weight="bold" lengthAdjust="spacingAndGlyphs" style="fill:#FFFFFF;"><tspan y="18" x="28" text-anchor="middle" textLength="43">Portals</tspan></text></g><g transform="translate(-145,-42)"><rect x="0" y="0" width="44" height="30" border="1" rx="10" ry="10" style="fill:#000000;stroke:#707070;stroke-width:1px;"/><text font-family="NotoSans, 'Helvetica Neue', Roboto, Helvetica, Arial, sans-serif" font-size="12" font-weight="bold" lengthAdjust="spacingAndGlyphs" style="fill:#FFFFFF;"><tspan y="18" x="22" text-anchor="middle" textLength="32">Tools</tspan></text></g><g transform="translate(-145,8)"><rect x="0" y="0" width="59" height="30" border="1" rx="10" ry="10" style="fill:#000000;stroke:#707070;stroke-width:1px;"/><text font-family="NotoSans, 'Helvetica Neue', Roboto, Helvetica, Arial, sans-serif" font-size="12" font-weight="bold" lengthAdjust="spacingAndGlyphs" style="fill:#FFFFFF;"><tspan y="18" x="30" text-anchor="middle" textLength="47">Reports</tspan></text></g></g></svg>